<?xml version="1.0" encoding="utf-8"?>
<!-- Generator: Adobe Illustrator 22.1.0, SVG Export Plug-In . SVG Version: 6.00 Build 0)  -->
<svg version="1.1" id="Layer_1" xmlns="http://www.w3.org/2000/svg" xmlns:xlink="http://www.w3.org/1999/xlink" x="0px" y="0px"
	 viewBox="0 0 800 600" style="enable-background:new 0 0 800 600;" xml:space="preserve">
<style type="text/css">
	.st0{fill:#FFFFFF;}
	.st1{fill:#FFBA1F;}
	.st2{fill:#030D1C;}
</style>
<g>
	<g>
		<path class="st0" d="M444.4,179.6c-18,9.8-39.9,4.3-39.9,4.3s7.4-21.3,25.4-31.1c0.2-0.1,0.4-0.2,0.5-0.3
			c8.7-4.5,19.8-2.6,23.7,4.8c3.5,6.7-0.7,17.1-9.2,21.9C444.8,179.4,444.6,179.5,444.4,179.6z"/>
	</g>
	<g>
		<path class="st0" d="M390.3,182.8c0,0-3-18.5,7.1-32.6c4.9-6.9,15.3-11,22.4-6.9c10.2,5.9,9,17.1,0.4,30
			C410.5,188,390.3,182.8,390.3,182.8z"/>
	</g>
	<g>
		
			<ellipse transform="matrix(0.3785 -0.9256 0.9256 0.3785 49.7304 500.0775)" class="st1" cx="397.3" cy="213" rx="25.8" ry="35.6"/>
	</g>
	<g>
		<path class="st1" d="M425.9,326c0-11-15.1-42-22.4-56.5c-1.6-3.2-6.2-3.2-7.8,0c-7.3,14.4-22.4,45.4-22.4,56.5
			c0,14.5,11.8,26.3,26.3,26.3S425.9,340.5,425.9,326z"/>
	</g>
	<g>
		<path class="st2" d="M399.2,355.7c-6.7,0-13.2-2.3-18.4-6.5c-0.7-0.5-1.1-1.4-1.2-2.3c-0.1-0.9,0.1-1.8,0.7-2.5
			c1.1-1.4,3.3-1.7,4.8-0.5c4.1,3.3,9,5,14.2,5c12.4,0,22.6-10.2,22.6-22.6c0.1-3.9-3.2-14.1-8.4-26c-5-11.5-10.8-23.2-13.9-29.1
			c-0.1-0.2-0.2-0.2-0.4-0.3c-0.2,0-0.2,0.1-0.3,0.3c-3.1,6-9,17.8-13.9,29.1c-5.2,11.9-8.5,22.1-8.4,26c0,1.9-1.5,3.4-3.4,3.4
			c-1.9,0-3.4-1.5-3.4-3.4c0.1-7,4.4-17.9,9-28.7c4.7-10.9,10.2-22.1,14-29.5c1.2-2.4,3.7-3.9,6.4-3.9h0.1c2.6,0,5.1,1.6,6.3,3.9
			c3.8,7.5,9.4,18.7,14.1,29.5c4.6,10.8,8.8,21.7,8.9,28.7C428.6,342.5,415.4,355.7,399.2,355.7z M375,339.2c-1.4,0-2.6-0.8-3.1-2.1
			c0,0,0,0,0,0c-0.3-0.8-0.3-1.8,0.1-2.6c0.3-0.8,1-1.5,1.9-1.8c1.7-0.7,3.7,0.2,4.4,1.9c0.7,1.8-0.2,3.7-1.9,4.4
			C375.8,339.1,375.4,339.2,375,339.2z"/>
	</g>
	<g>
		<path class="st0" d="M416.9,317.5c-1.9,0-3.4-1.5-3.4-3.4s1.5-3.4,3.4-3.4c1.9,0,3.3,1.5,3.4,3.3c0,0,0,0,0,0.1
			C420.3,315.9,418.8,317.5,416.9,317.5z M413,304.5c-1.4,0-2.6-0.8-3.1-2.1c-2.8-6.8-6.6-14.2-8.5-18.1c-0.4-0.8-0.5-1.7-0.2-2.6
			c0.3-0.9,0.9-1.6,1.7-2c1.6-0.8,3.7-0.1,4.5,1.5c2.5,4.9,6,12.1,8.7,18.6c0,0,0,0,0,0c0.7,1.7-0.1,3.7-1.9,4.4
			C413.9,304.4,413.5,304.5,413,304.5z"/>
	</g>
	<g>
		<path d="M275.9,433.7c0,2.2-0.3,4.4-1,6.4c-0.7,2-1.7,3.9-3,5.4c-1.3,1.6-2.9,2.8-4.8,3.7c-1.9,0.9-4,1.4-6.4,1.4
			c-2,0-3.8-0.4-5.6-1.2c-1.8-0.8-3.1-1.9-4.1-3.2H251v18.9h-10.5v-47.2h10v3.9h0.2c1-1.3,2.3-2.4,4.1-3.4s3.8-1.4,6.1-1.4
			c2.3,0,4.4,0.4,6.3,1.3c1.9,0.9,3.5,2.1,4.8,3.6c1.3,1.5,2.3,3.3,3,5.3S275.9,431.5,275.9,433.7z M265.8,433.7c0-1-0.2-2-0.5-3
			c-0.3-1-0.8-1.8-1.4-2.6c-0.6-0.7-1.4-1.4-2.3-1.8c-0.9-0.5-2-0.7-3.3-0.7c-1.2,0-2.3,0.2-3.2,0.7c-0.9,0.5-1.7,1.1-2.4,1.9
			c-0.7,0.8-1.2,1.6-1.5,2.6c-0.4,1-0.5,2-0.5,3s0.2,2,0.5,3c0.4,1,0.9,1.9,1.5,2.6c0.7,0.8,1.5,1.4,2.4,1.9c0.9,0.5,2,0.7,3.2,0.7
			c1.2,0,2.3-0.2,3.3-0.7c0.9-0.5,1.7-1.1,2.3-1.9c0.6-0.8,1.1-1.7,1.4-2.7C265.6,435.7,265.8,434.7,265.8,433.7z"/>
		<path d="M300.6,426.5c-0.5-0.1-0.9-0.2-1.4-0.3c-0.4,0-0.9-0.1-1.3-0.1c-1.4,0-2.6,0.3-3.6,0.8c-1,0.5-1.7,1.1-2.3,1.9
			c-0.6,0.7-1,1.5-1.2,2.4c-0.3,0.9-0.4,1.6-0.4,2.2v16.3H280v-31.8h10.1v4.6h0.1c0.8-1.6,2-3,3.5-4c1.5-1,3.2-1.5,5.2-1.5
			c0.4,0,0.8,0,1.2,0.1c0.4,0,0.7,0.1,1,0.2L300.6,426.5z"/>
		<path d="M338,433.7c0,2.6-0.5,5-1.4,7.1c-0.9,2.1-2.2,3.9-3.8,5.4c-1.6,1.5-3.5,2.6-5.6,3.4c-2.1,0.8-4.4,1.2-6.8,1.2
			c-2.4,0-4.7-0.4-6.8-1.2c-2.2-0.8-4-2-5.6-3.4c-1.6-1.5-2.9-3.3-3.8-5.4c-0.9-2.1-1.4-4.5-1.4-7.1c0-2.6,0.5-4.9,1.4-7
			c0.9-2.1,2.2-3.9,3.8-5.3c1.6-1.5,3.5-2.6,5.6-3.3c2.2-0.8,4.4-1.2,6.8-1.2c2.4,0,4.7,0.4,6.8,1.2c2.1,0.8,4,1.9,5.6,3.3
			c1.6,1.5,2.9,3.2,3.8,5.3C337.5,428.7,338,431.1,338,433.7z M327.8,433.7c0-1-0.2-2-0.5-3c-0.3-1-0.8-1.8-1.5-2.6
			c-0.6-0.7-1.4-1.4-2.4-1.8c-0.9-0.5-2-0.7-3.3-0.7c-1.2,0-2.3,0.2-3.3,0.7c-0.9,0.5-1.7,1.1-2.3,1.8c-0.6,0.7-1.1,1.6-1.4,2.6
			c-0.3,1-0.5,2-0.5,3c0,1,0.2,2,0.5,3c0.3,1,0.8,1.9,1.4,2.7c0.6,0.8,1.4,1.4,2.4,1.9c0.9,0.5,2,0.7,3.3,0.7c1.2,0,2.3-0.2,3.3-0.7
			c0.9-0.5,1.7-1.1,2.4-1.9c0.6-0.8,1.1-1.7,1.4-2.7C327.7,435.7,327.8,434.7,327.8,433.7z"/>
		<path d="M367.5,449.8v-4.2h-0.1c-1,1.6-2.5,2.9-4.4,3.7c-1.9,0.9-3.9,1.3-6,1.3c-2.4,0-4.5-0.5-6.4-1.4c-1.9-0.9-3.5-2.2-4.8-3.7
			c-1.3-1.6-2.3-3.4-3-5.4c-0.7-2-1-4.2-1-6.4c0-2.2,0.4-4.3,1.1-6.4c0.7-2,1.7-3.8,3-5.3c1.3-1.5,2.9-2.8,4.7-3.6
			c1.9-0.9,3.9-1.3,6.2-1.3c2.3,0,4.3,0.4,6,1.3c1.6,0.9,2.9,1.9,3.8,2.9h0.1v-19.9h10.5v48.4H367.5z M367.1,433.8c0-1-0.2-2-0.5-3
			c-0.4-1-0.9-1.9-1.5-2.6c-0.7-0.8-1.5-1.4-2.4-1.9c-0.9-0.5-2-0.7-3.2-0.7c-1.2,0-2.3,0.2-3.3,0.7c-0.9,0.5-1.7,1.1-2.4,1.8
			c-0.6,0.7-1.1,1.6-1.4,2.6c-0.3,1-0.5,2-0.5,3c0,1,0.2,2,0.5,3c0.3,1,0.8,1.9,1.4,2.7c0.6,0.8,1.4,1.4,2.4,1.9
			c0.9,0.5,2,0.7,3.3,0.7c1.2,0,2.3-0.2,3.2-0.7c0.9-0.5,1.7-1.1,2.4-1.9c0.7-0.8,1.2-1.6,1.5-2.6
			C366.9,435.8,367.1,434.8,367.1,433.8z"/>
		<path d="M403.9,449.8v-4.4h-0.1c-0.4,0.7-0.9,1.4-1.5,2c-0.6,0.6-1.3,1.2-2.2,1.7c-0.8,0.5-1.8,0.9-2.8,1.2
			c-1,0.3-2.1,0.4-3.2,0.4c-2.1,0-3.9-0.4-5.4-1.2c-1.5-0.8-2.7-1.8-3.6-3c-0.9-1.2-1.6-2.6-2-4.2c-0.4-1.6-0.6-3.1-0.6-4.8v-19.7
			h10.6v17.3c0,0.9,0.1,1.8,0.2,2.6c0.1,0.8,0.4,1.5,0.7,2.2c0.4,0.6,0.8,1.1,1.4,1.5c0.6,0.4,1.4,0.5,2.4,0.5c1.8,0,3.2-0.7,4.2-2
			c1-1.4,1.4-3,1.4-4.8v-17.2H414v31.9H403.9z"/>
		<path d="M441.6,428.2c-0.6-0.8-1.4-1.4-2.4-1.9c-1-0.5-2.1-0.7-3.1-0.7c-1.1,0-2.1,0.2-3,0.7c-0.9,0.4-1.7,1-2.3,1.8
			c-0.6,0.7-1.1,1.6-1.5,2.6c-0.4,1-0.5,2-0.5,3.1s0.2,2.2,0.5,3.1c0.3,1,0.8,1.8,1.5,2.6c0.7,0.7,1.5,1.3,2.4,1.8
			c0.9,0.4,2,0.6,3.1,0.6c1.1,0,2.1-0.2,3.2-0.6c1-0.4,1.9-1,2.5-1.8l5.8,7.1c-1.3,1.3-3,2.3-5.1,3c-2.1,0.7-4.3,1.1-6.7,1.1
			c-2.5,0-4.9-0.4-7-1.2c-2.2-0.8-4.1-1.9-5.7-3.4c-1.6-1.5-2.9-3.3-3.8-5.3c-0.9-2.1-1.4-4.5-1.4-7.1c0-2.6,0.5-4.9,1.4-7
			c0.9-2.1,2.2-3.9,3.8-5.3c1.6-1.5,3.5-2.6,5.7-3.4c2.2-0.8,4.5-1.2,7-1.2c1.2,0,2.3,0.1,3.4,0.3c1.1,0.2,2.2,0.5,3.3,0.9
			c1,0.4,2,0.8,2.9,1.3c0.9,0.5,1.6,1.1,2.3,1.8L441.6,428.2z"/>
		<path d="M465.8,425.7v12.2c0,1.5,0.3,2.6,0.9,3.4s1.6,1.1,3.1,1.1c0.5,0,1.1,0,1.6-0.1c0.6-0.1,1.1-0.2,1.4-0.4l0.1,7.7
			c-0.7,0.3-1.6,0.5-2.8,0.7c-1.1,0.2-2.2,0.3-3.3,0.3c-2.1,0-3.9-0.3-5.4-0.8c-1.5-0.5-2.6-1.3-3.5-2.3c-0.9-1-1.5-2.2-1.9-3.6
			c-0.4-1.4-0.6-2.9-0.6-4.7v-13.5h-5.1v-7.8h5.1v-8.4h10.3v8.4h7.5v7.8H465.8z"/>
		<path d="M489.6,407.7c0,0.8-0.2,1.6-0.5,2.3s-0.7,1.3-1.3,1.8c-0.5,0.5-1.2,0.9-1.9,1.2c-0.7,0.3-1.5,0.4-2.3,0.4
			c-1.7,0-3.1-0.6-4.3-1.7c-1.2-1.1-1.7-2.5-1.7-4.1c0-0.8,0.1-1.5,0.4-2.2s0.7-1.3,1.3-1.8c0.6-0.5,1.2-0.9,1.9-1.2
			s1.5-0.5,2.4-0.5c0.8,0,1.6,0.1,2.3,0.4c0.7,0.3,1.4,0.7,1.9,1.2c0.5,0.5,1,1.1,1.3,1.8S489.6,406.9,489.6,407.7z M478.3,449.8
			v-31.9h10.5v31.9H478.3z"/>
		<path d="M516.8,449.8h-11.3L493,417.9h11.6l6.7,20.7h0.2l6.7-20.7h11.2L516.8,449.8z"/>
		<path d="M561.2,434.2c0,0.4,0,0.9,0,1.3c0,0.4,0,0.8-0.1,1.2H538c0.1,0.9,0.4,1.7,0.8,2.4c0.4,0.7,1,1.4,1.7,1.9
			c0.7,0.5,1.5,1,2.4,1.2c0.9,0.3,1.8,0.4,2.7,0.4c1.7,0,3.1-0.3,4.2-0.9c1.2-0.6,2.1-1.4,2.8-2.4l7.3,4.6c-1.5,2.2-3.5,3.9-5.9,5
			c-2.5,1.2-5.3,1.8-8.5,1.8c-2.4,0-4.7-0.4-6.8-1.1c-2.1-0.7-4-1.8-5.6-3.3c-1.6-1.4-2.9-3.2-3.8-5.3c-0.9-2.1-1.4-4.5-1.4-7.2
			c0-2.6,0.4-5,1.3-7.1c0.9-2.1,2.1-3.9,3.6-5.4s3.3-2.6,5.4-3.4c2.1-0.8,4.4-1.2,6.8-1.2c2.3,0,4.5,0.4,6.5,1.2
			c2,0.8,3.6,1.9,5.1,3.4c1.4,1.5,2.5,3.3,3.3,5.4C560.8,429,561.2,431.5,561.2,434.2z M551.5,430.2c0-1.7-0.5-3.1-1.6-4.3
			c-1-1.2-2.6-1.8-4.7-1.8c-1,0-2,0.2-2.8,0.5c-0.9,0.3-1.6,0.8-2.2,1.3c-0.6,0.6-1.2,1.2-1.5,2c-0.4,0.7-0.6,1.5-0.6,2.3H551.5z"/>
	</g>
	<path class="st2" d="M460.2,154.3c-5-9.5-17.7-13.3-29.1-9.3c-1.8-3-4.4-5.6-7.8-7.6c-10.6-6.1-24.7-0.4-31.3,8.8
		c-8.4,11.8-9,25.9-8.7,33c-17.9,0.2-32.4,8.3-38.1,21.8c-1.6,3.7-2.3,7.5-2.3,11.7c0.2,18.3,14.3,35.9,35.8,44.8
		c8.2,3.3,16.6,5,24.9,5c4.9,0,9.5-0.7,13.9-1.9c3.6-1,5.7-4.8,4.8-8.4c-0.9-3.5-4.7-5-8.2-5c0,0,0,0,0,0c-8.9,2-20.1,1.6-30.2-2.5
		c-1.5-0.6-3-1.3-4.5-2.1l16.9-26.7c2-3.1,1.1-7.3-2.1-9.3c-3-1.9-7.4-0.9-9.3,2.1L368.1,235c-6.9-6.2-11.9-14.1-11.7-22.2
		c0-2.4,0.4-4.7,1.3-6.8c3.3-8.5,13.3-13.7,26.1-13.7c6.5,0,13.2,1.4,19.7,4c4.1,1.7,7.9,3.8,11.3,6.3l-14.6,25.3
		c-0.9,1.6-1.1,3.4-0.7,5.1c0.5,1.8,1.6,3.2,3.1,4.1c1,0.6,2.2,0.9,3.4,0.9c2.4,0,4.7-1.3,5.8-3.4l12.8-22.2c3.9,5.4,5.6,11,5.5,16
		c0,2.5,1.8,4.7-2.2,6.9c0,0,0,0,0,0.1c0,1.7,0.2,3.5,0.9,5.1c0.7,1.7,2.9,3,4.5,3.7c3.4,1.4,7.4-0.3,8.8-3.7
		c1.6-3.8,2.3-7.8,2.3-11.9c-0.2-11.6-5.8-22.8-15.4-31.7c-0.5-0.8-1.3-1.4-2.1-1.9c0,0-0.1,0-0.1-0.1c-1.1-0.9-2.3-1.9-3.5-2.7
		c7.5-0.4,16.2-2.1,24.4-6.5l0.6-0.3C459.9,178.7,465.4,164.3,460.2,154.3z M402.9,154.1c3.3-4.6,9.9-7,13.5-5
		c1.6,0.9,2.4,1.9,3,2.7c-10.2,8.1-16.3,18.9-19.2,25.1c-1.2,0.1-2.4,0.1-3.5,0C396.6,171.3,397.5,161.7,402.9,154.1z M441.7,173.4
		l-0.4,0.2c0,0,0,0,0,0c-9.1,4.9-19.6,5.4-26.7,4.9c3.5-6.2,9.5-14.8,18.6-19.7l0.5-0.3c5.5-2.9,12.6-1.9,14.6,2
		C449.7,163.4,447.5,170.2,441.7,173.4z"/>
</g>
</svg>
