<svg xmlns="http://www.w3.org/2000/svg" viewBox="-189 190 96 96">
  <path d="M-96 210.1c-3.3 1.5-6.9 2.5-10.6 2.9 3.8-2.3 6.7-5.9 8.1-10.2-3.6 2.1-7.5 3.7-11.7 4.5-3.4-3.6-8.2-5.8-13.5-5.8-10.2 0-18.5 8.3-18.5 18.5 0 1.4.2 2.9.5 4.2-15.3-.9-28.9-8.2-38-19.4-1.6 2.7-2.5 5.9-2.5 9.3 0 6.4 3.3 12.1 8.2 15.4-3-.1-5.9-.9-8.4-2.3v.2c0 8.9 6.4 16.4 14.8 18.1-1.5.4-3.2.6-4.9.6-1.2 0-2.3-.1-3.5-.3 2.4 7.3 9.2 12.7 17.2 12.8-6.3 5-14.3 7.9-22.9 7.9-1.5 0-3-.1-4.4-.3 8.2 5.2 17.9 8.3 28.3 8.3 34 0 52.5-28.1 52.5-52.5 0-.8 0-1.6-.1-2.4 3.8-2.6 6.9-5.8 9.4-9.5"/>
</svg>
