<svg xmlns="http://www.w3.org/2000/svg" viewBox="32 -32 96 96">
  <path d="M80-32c26.4 0 48 21.6 48 48s-21.6 48-48 48-48-21.6-48-48 21.6-48 48-48zm41 47.6C121 6 117.4-3 111.8-10c-.8 1.2-7.8 10-23 16.2 1 2 1.8 4 2.8 6 .2.8.6 1.4.8 2.2 13.6-1.8 27.2 1 28.6 1.2zM103 50c9.2-6.2 15.8-16 17.6-27.4-1.4-.4-12.6-3.8-25.6-1.8 5.4 14.8 7.4 26.8 8 29.2zM85.6.2c14.6-5.4 20.8-13.8 21.4-14.8C100-21 90.4-25 80-25c-3.2 0-6.6.4-9.6 1.2 1.2 1.6 8.6 11.6 15.2 24zM96 53.8c-.6-3.6-3-16.2-8.8-31H87c-23.2 8-31.4 24-32.2 25.6 7 5.4 15.6 8.6 25.2 8.6 5.6 0 11-1 16-3.2zM82.8 16.4c.6-.2 1-.4 1.6-.4-1-2.4-2.2-4.6-3.4-7-20.4 6.2-40.4 5.8-42.2 5.8V16c0 10.6 4 20.2 10.6 27.4 1-1.6 12.4-20.2 33.4-27zm-5-13.8C71-9.4 63.6-19.6 62.6-21.2c-11.4 5.4-20 16-22.6 28.8 1.8 0 18.6.2 37.8-5z"/>
</svg>
