<svg width="40" height="40" viewBox="0 0 40 40" fill="none" xmlns="http://www.w3.org/2000/svg">
<g clip-path="url(#clip0_47_1082)">
<path d="M20 15.9594L35.1226 0.836838C36.2383 -0.278946 38.0474 -0.278946 39.1632 0.836838C40.2789 1.95262 40.2789 3.76166 39.1632 4.87745L24.0406 20L39.1632 35.1226C40.2789 36.2383 40.2789 38.0474 39.1632 39.1632C38.0474 40.2789 36.2383 40.2789 35.1226 39.1632L20 24.0406L4.87745 39.1632C3.76166 40.2789 1.95262 40.2789 0.836838 39.1632C-0.278946 38.0474 -0.278946 36.2383 0.836838 35.1226L15.9594 20L0.836838 4.87745C-0.278946 3.76166 -0.278946 1.95262 0.836838 0.836838C1.95262 -0.278946 3.76166 -0.278946 4.87745 0.836838L20 15.9594Z" fill="white"/>
</g>
<defs>
<clipPath id="clip0_47_1082">
<rect width="40" height="40" fill="white"/>
</clipPath>
</defs>
</svg>
