<?xml version="1.0" encoding="UTF-8"?>
<svg width="20px" height="28px" viewBox="0 0 20 28" version="1.1" xmlns="http://www.w3.org/2000/svg" xmlns:xlink="http://www.w3.org/1999/xlink">
    <!-- Generator: Sketch 47.1 (45422) - http://www.bohemiancoding.com/sketch -->
    <title>Page 1</title>
    <desc>Created with Sketch.</desc>
    <defs></defs>
    <g id="Page-1" stroke="none" stroke-width="1" fill="none" fill-rule="evenodd">
        <g id="Animation" transform="translate(-262.000000, -52.000000)" fill="#000000">
            <g id="Group" transform="translate(262.000000, 52.000000)">
                <g id="Page-1">
                    <path d="M1.0328,0 L6.96713333,0 C7.53746667,0 8.00013333,0.462333333 8.00013333,1.03266667 L8.00013333,6.96733333 C8.00013333,7.53766667 7.53746667,8 6.96713333,8 L1.0328,8 C0.462466667,8 0.000133333333,7.53766667 0.000133333333,6.96733333 L0.000133333333,1.03266667 C0.000133333333,0.462333333 0.462466667,0 1.0328,0" id="Fill-1"></path>
                    <path d="M1.0328,12 L6.96713333,12 C7.53746667,12 8.00013333,12.4623333 8.00013333,13.0326667 L8.00013333,26.9673333 C8.00013333,27.5376667 7.53746667,28 6.96713333,28 L1.0328,28 C0.462466667,28 0.000133333333,27.5376667 0.000133333333,26.9673333 L0.000133333333,13.0326667 C0.000133333333,12.4623333 0.462466667,12 1.0328,12" id="Fill-3"></path>
                    <path d="M18.9672,28 L13.0328667,28 C12.4625333,28 11.9998667,27.5376667 11.9998667,26.9673333 L11.9998667,21.0326667 C11.9998667,20.4623333 12.4625333,20 13.0328667,20 L18.9672,20 C19.5375333,20 19.9998667,20.4623333 19.9998667,21.0326667 L19.9998667,26.9673333 C19.9998667,27.5376667 19.5375333,28 18.9672,28" id="Fill-5"></path>
                    <path d="M18.9672,16 L13.0328667,16 C12.4625333,16 11.9998667,15.5376667 11.9998667,14.9673333 L11.9998667,1.03266667 C11.9998667,0.462333333 12.4625333,0 13.0328667,0 L18.9672,0 C19.5375333,0 19.9998667,0.462333333 19.9998667,1.03266667 L19.9998667,14.9673333 C19.9998667,15.5376667 19.5375333,16 18.9672,16" id="Fill-7"></path>
                </g>
            </g>
        </g>
    </g>
</svg>