<?xml version="1.0" standalone="no"?>
<!DOCTYPE svg PUBLIC "-//W3C//DTD SVG 20010904//EN"
 "http://www.w3.org/TR/2001/REC-SVG-20010904/DTD/svg10.dtd">
<svg version="1.0" xmlns="http://www.w3.org/2000/svg"
 width="896.000000pt" height="896.000000pt" viewBox="0 0 896.000000 896.000000"
 preserveAspectRatio="xMidYMid meet">
<metadata>
Created by potrace 1.11, written by Peter Selinger 2001-2013
</metadata>
<g transform="translate(0.000000,896.000000) scale(0.100000,-0.100000)"
fill="#000000" stroke="none">
<path d="M1566 8936 c-37 -13 -72 -29 -77 -37 -5 -8 -9 -11 -9 -6 0 8 -56 -40
-96 -82 -12 -13 -34 -47 -49 -76 -56 -112 -55 -85 -55 -1065 0 -613 4 -918 11
-945 30 -113 121 -230 213 -274 25 -13 47 -21 49 -19 2 2 10 -2 18 -9 24 -19
185 -33 210 -17 5 3 9 1 9 -4 0 -6 14 -7 35 -2 19 4 35 4 35 0 0 -5 12 -5 28
-1 15 5 37 5 49 0 12 -4 25 -4 28 0 2 5 19 5 37 2 18 -4 50 -4 71 0 20 3 37 3
37 -1 0 -4 16 -4 35 0 19 4 35 4 35 0 0 -5 12 -5 28 -1 15 5 37 5 49 0 12 -4
25 -4 28 0 2 5 19 5 37 2 18 -4 50 -4 71 0 20 3 37 3 37 -1 0 -4 16 -4 35 0
21 5 35 4 35 -2 0 -5 4 -6 10 -3 13 8 108 11 116 3 3 -4 16 -3 28 2 12 4 29 4
37 0 8 -5 21 -5 29 0 7 4 24 4 36 0 14 -6 26 -5 29 0 3 6 15 6 30 0 15 -6 27
-6 30 0 3 6 15 6 30 0 15 -6 27 -6 30 0 3 6 15 6 30 0 15 -6 27 -6 30 0 3 6
15 6 30 0 15 -6 27 -6 30 0 3 6 15 6 30 0 15 -6 27 -6 30 0 3 6 15 6 30 0 15
-6 27 -6 30 0 3 6 15 6 30 0 15 -6 27 -6 30 0 3 6 15 6 30 0 15 -6 27 -6 30 0
3 6 15 6 30 0 15 -6 27 -6 30 0 3 6 15 6 30 0 15 -6 27 -6 30 0 3 6 15 6 29 0
13 -5 26 -6 29 -4 3 3 16 7 29 8 193 23 354 198 363 399 1 26 5 50 8 53 3 3 1
19 -3 35 -5 16 -6 29 -2 29 8 0 7 68 -1 76 -3 3 -2 17 3 30 6 14 6 26 0 29 -5
3 -6 15 0 29 4 12 4 29 0 36 -5 8 -5 21 0 30 5 9 5 22 0 30 -5 8 -5 21 0 30 5
9 5 22 0 30 -5 8 -5 21 0 30 5 9 5 22 0 30 -5 8 -5 21 0 30 5 9 5 22 0 30 -5
8 -5 21 0 30 5 9 5 22 0 30 -5 8 -5 21 0 30 5 9 5 22 0 29 -4 8 -4 27 0 42 5
16 5 29 0 29 -5 0 -5 13 0 30 5 17 5 30 0 30 -5 0 -5 13 0 30 5 17 5 30 0 30
-5 0 -5 13 0 30 5 17 5 30 0 30 -5 0 -5 13 0 30 5 17 5 30 0 30 -5 0 -5 13 0
30 5 17 5 30 0 30 -5 0 -5 13 0 30 5 17 5 30 0 30 -5 0 -5 13 0 30 5 17 5 30
0 30 -5 0 -5 13 0 30 5 17 5 30 0 30 -5 0 -5 13 0 30 5 17 5 30 0 30 -5 0 -5
13 0 30 5 17 5 30 0 30 -5 0 -5 13 0 30 5 17 5 30 0 30 -5 0 -5 13 0 30 5 17
5 30 0 30 -5 0 -5 13 0 30 5 17 5 30 0 30 -5 0 -5 13 0 30 5 17 5 30 0 30 -5
0 -5 13 0 30 5 19 5 30 -1 30 -6 0 -7 5 -4 10 6 10 7 63 2 115 -16 149 -91
258 -229 334 -93 51 -86 50 -1063 51 l-910 0 -69 -24z"/>
<path d="M5409 8937 c-102 -35 -177 -100 -226 -197 l-28 -55 0 -2255 c0 -2195
1 -2256 19 -2305 11 -27 22 -52 25 -55 3 -3 15 -21 25 -40 29 -51 100 -114
164 -145 58 -29 75 -33 150 -40 23 -2 46 -6 51 -10 5 -3 12 -1 15 4 4 6 18 6
36 1 17 -5 30 -5 30 0 0 5 13 5 30 0 17 -5 30 -6 30 -2 0 8 68 7 76 -1 3 -3
17 -2 30 3 14 6 26 6 29 0 3 -6 15 -6 30 0 15 6 27 6 30 0 3 -6 15 -6 30 0 15
6 27 6 30 0 3 -6 15 -6 30 0 15 6 27 6 30 0 3 -6 15 -6 30 0 15 6 27 6 30 0 3
-6 15 -6 30 0 15 6 27 6 30 0 3 -6 15 -6 30 0 15 6 27 6 30 0 3 -6 15 -6 30 0
15 6 27 6 30 0 3 -6 15 -6 30 0 15 6 27 6 30 0 3 -6 15 -6 30 0 15 6 27 6 30
0 3 -6 15 -6 30 0 15 6 27 6 30 0 3 -6 15 -6 30 0 15 6 27 6 30 0 3 -6 15 -6
30 0 15 6 27 6 30 0 3 -6 15 -6 30 0 15 6 27 6 30 0 3 -6 15 -6 30 0 15 6 27
6 30 0 3 -6 15 -6 30 0 15 6 27 6 30 0 3 -6 15 -6 30 0 15 6 27 6 30 0 3 -6
15 -6 30 0 15 6 27 6 30 0 3 -6 15 -6 30 0 15 6 27 6 30 0 3 -6 15 -6 30 0 15
6 27 6 30 0 3 -6 15 -6 30 0 15 6 27 6 30 0 3 -6 15 -6 30 0 15 6 27 6 30 0 3
-6 15 -6 30 0 15 6 27 6 30 0 3 -6 15 -6 30 0 15 6 27 6 30 -1 4 -5 10 -7 14
-5 4 3 26 7 50 10 172 21 309 147 356 327 13 49 15 353 14 2240 0 1686 -3
2194 -12 2229 -32 118 -101 203 -219 269 -92 51 -86 50 -1063 51 l-910 0 -66
-23z"/>
<path d="M1687 5124 c-3 -3 -20 -7 -38 -9 -67 -8 -159 -40 -159 -56 0 -5 -6
-9 -13 -9 -13 0 -62 -46 -106 -99 -11 -13 -30 -43 -42 -67 -51 -107 -49 15
-46 -2360 2 -1948 4 -2213 17 -2229 8 -10 14 -20 12 -22 -2 -2 6 -24 18 -48
45 -93 161 -184 275 -214 56 -15 1855 -15 1910 0 77 21 168 75 201 119 7 8 21
26 33 39 47 53 88 171 87 249 -1 23 2 42 5 42 4 0 3 16 -1 35 -4 19 -4 35 0
35 5 0 5 14 0 30 -5 17 -5 30 0 30 5 0 5 12 1 28 -4 15 -4 39 0 54 4 16 3 28
-1 28 -5 0 -5 13 0 30 5 16 5 32 0 35 -5 3 -5 19 0 35 5 17 5 32 0 35 -5 3 -5
16 0 30 5 14 5 27 0 30 -5 3 -5 18 0 35 5 17 5 30 0 30 -5 0 -5 13 0 30 5 17
5 30 0 30 -5 0 -5 13 0 30 5 16 5 32 0 35 -5 3 -5 19 0 35 5 17 5 32 0 35 -5
3 -5 16 0 30 6 15 6 27 0 30 -5 3 -7 12 -4 19 9 24 11 71 3 93 -5 12 -4 25 1
28 6 3 6 15 0 29 -5 13 -6 27 -3 30 8 8 9 76 1 76 -4 0 -3 14 2 30 5 17 5 30
0 30 -5 0 -5 13 0 30 5 17 5 30 0 30 -5 0 -5 13 0 30 5 17 5 30 0 30 -5 0 -5
13 0 30 5 17 5 30 0 30 -5 0 -5 13 0 30 5 17 5 30 0 30 -5 0 -5 13 0 30 5 17
5 30 0 30 -5 0 -5 13 0 30 5 17 5 30 0 30 -5 0 -5 13 0 30 5 17 5 30 0 30 -5
0 -5 13 0 30 5 17 5 30 0 30 -5 0 -5 13 0 30 5 17 5 30 0 30 -5 0 -5 13 0 30
5 17 5 30 0 30 -5 0 -5 13 0 30 5 17 5 30 0 30 -5 0 -5 13 0 30 5 17 5 30 0
30 -5 0 -5 13 0 30 5 17 5 30 0 30 -5 0 -5 13 0 30 5 17 5 30 0 30 -5 0 -5 13
0 30 5 17 5 30 0 30 -5 0 -5 13 0 30 5 17 5 30 0 30 -5 0 -5 13 0 30 5 17 5
30 0 30 -5 0 -5 13 0 30 5 17 5 32 0 35 -5 3 -5 16 0 30 6 15 6 27 0 30 -5 3
-6 15 0 29 4 12 4 29 0 36 -5 8 -5 21 0 30 5 9 5 22 0 30 -5 8 -5 21 0 30 5 9
5 22 0 30 -5 8 -5 21 0 30 5 9 5 22 0 30 -5 8 -5 21 0 30 5 9 5 22 0 30 -5 8
-5 21 0 30 5 9 5 22 0 30 -5 8 -5 21 0 30 5 9 5 22 0 30 -5 8 -5 21 0 30 5 9
5 22 0 30 -5 8 -5 21 0 30 5 9 5 22 0 30 -5 8 -5 21 0 30 5 9 5 22 0 30 -5 8
-5 21 0 30 5 9 5 22 0 30 -5 8 -5 21 0 30 5 9 5 22 0 30 -5 8 -5 21 0 30 5 9
5 22 0 30 -5 8 -5 21 0 30 5 9 5 22 0 30 -5 8 -5 21 0 30 5 9 5 22 0 30 -5 8
-5 21 0 30 5 9 5 22 0 30 -5 8 -5 21 0 30 5 9 5 22 0 30 -5 8 -5 21 0 30 5 9
5 22 1 28 -4 7 -5 35 -1 62 4 27 3 55 -1 62 -4 6 -4 19 1 28 5 9 5 22 0 30 -5
8 -5 21 0 30 5 9 5 22 0 30 -5 8 -5 21 0 30 5 9 5 22 0 30 -5 8 -5 21 0 30 5
9 5 22 0 30 -5 8 -5 21 0 30 5 9 5 22 0 30 -5 8 -5 21 0 30 5 9 5 22 0 30 -5
8 -5 21 0 30 5 9 5 22 0 30 -5 8 -5 21 0 30 5 9 5 22 0 30 -5 8 -5 21 0 30 5
9 5 22 0 30 -5 8 -5 21 0 30 5 9 5 22 0 30 -5 8 -5 21 0 30 5 9 5 22 0 30 -5
8 -5 21 0 30 5 9 5 22 0 30 -4 7 -4 23 0 36 5 12 6 24 3 28 -3 3 -7 27 -9 53
-4 68 -10 87 -39 146 -51 99 -131 167 -250 212 -33 13 -47 16 -103 19 -30 2
-56 6 -58 9 -3 3 -21 1 -40 -3 -18 -4 -34 -5 -34 -1 0 3 -16 6 -35 6 -19 0
-35 -3 -35 -6 0 -4 -18 -3 -40 1 -22 4 -43 4 -46 -1 -2 -4 -15 -4 -27 0 -13 5
-30 5 -39 0 -10 -6 -19 -6 -22 0 -3 5 -21 5 -41 1 -19 -4 -35 -5 -35 -1 0 3
-16 6 -35 6 -19 0 -35 -3 -35 -6 0 -4 -18 -3 -40 1 -22 4 -43 4 -46 -1 -2 -4
-15 -4 -27 0 -13 5 -30 5 -39 0 -10 -6 -19 -6 -22 0 -3 5 -21 5 -41 1 -19 -4
-35 -5 -35 -1 0 3 -16 6 -35 6 -19 0 -35 -2 -35 -5 0 -7 -87 -3 -99 5 -5 3
-12 1 -16 -5 -4 -6 -12 -7 -24 -1 -10 6 -23 6 -31 1 -8 -5 -18 -6 -23 -3 -12
7 -666 7 -674 0 -3 -4 -13 -2 -23 3 -10 5 -20 7 -23 4z"/>
<path d="M5488 2519 c-96 -15 -206 -92 -269 -188 -71 -110 -67 -55 -67 -1050
0 -493 4 -917 8 -943 8 -42 17 -63 62 -148 34 -64 131 -137 225 -169 56 -20
84 -20 965 -21 881 0 908 1 972 20 135 42 248 163 286 305 14 56 14 1826 -1
1880 -14 52 -59 145 -70 145 -5 0 -9 5 -9 10 0 15 -50 62 -106 100 -96 66 -55
64 -1049 65 -495 1 -921 -2 -947 -6z"/>
</g>
</svg>
