<?xml version="1.0" encoding="utf-8"?>
<!-- Generator: Adobe Illustrator 19.0.0, SVG Export Plug-In . SVG Version: 6.00 Build 0)  -->
<svg version="1.1" id="Layer_1" xmlns="http://www.w3.org/2000/svg" xmlns:xlink="http://www.w3.org/1999/xlink" x="0px" y="0px"
	 viewBox="0 0 475 475" style="enable-background:new 0 0 475 475;" xml:space="preserve">
<style type="text/css">
	.st0{fill:#FFFFFF;stroke:#000000;stroke-linecap:round;stroke-linejoin:round;stroke-miterlimit:10;}
	.st1{fill:none;stroke:#000000;stroke-linecap:round;stroke-linejoin:round;stroke-miterlimit:10;}
</style>
<path id="XMLID_1116_" class="st0" d="M272.6,178.2c-1.3-15,12.7-27.7,22.7-36.5c13.7-12.2,28-20.8,45.6-26.7
	c7.7-2.5,17.7-3.8,24.5-7.7c-1.3,10.9-5.6,25.1-10.1,35.2c-4.8,10.8-12.1,17.7-21.7,24.5c-10.9,7.7-23,12.3-35.9,15.7
	c-7.7,2-17.2,6.6-25,7.1C271.9,185.4,272.7,177.6,272.6,178.2z"/>
<path id="XMLID_1115_" class="st0" d="M212,189.7c-10.9-14.8-18.5-29.9-20.7-48.4c-2-17.6,2.5-37.6,13.5-51.7
	c4.3-5.4,10.1-11.3,15.7-15.1c2,3.4,1.2,8.1,1.9,11.8c1.2,5.9,4.7,10.8,6.6,16.4c3.5,10.3,3.6,23.4,3.5,34.2c0,13.8-3,24.8-9.7,36.8
	c-3.6,6.4-5.7,13.5-10.9,18.9C210.9,190.8,210.8,188.7,212,189.7z"/>
<path id="XMLID_1114_" class="st0" d="M181.2,225.1c-3.7,0.4-6.5-1.8-9.7-3.2c-6.8-3-14.6-6.7-22-7.9c-11.2-1.8-23-1.5-34.1,0.4
	c-21.2,3.5-42.7,8.1-61.7,18.6c4.1,2.9,5.6,7.8,9.1,11.1c4.1,3.8,11,6.3,16.2,8.1c14.2,5,29.4,6.8,44.2,4.6
	C140.9,254,182,241.2,181.2,225.1z"/>
<path id="XMLID_1113_" class="st0" d="M214.7,265.9c-8.4,2.4-18.2,12.2-25.2,17.7c-9.3,7.3-14,17.6-17.9,28.6
	c-6.9,19.5-7.3,41.4-7.3,61.9c0,6.9,0.9,13.3,1.9,19.9c4,0.5,8.4-3,11.8-4.5c4.5-2,9.1-4,13.2-6.8c11.3-7.6,16.5-16.4,21.5-28.6
	c6.9-16.9,11.1-30.6,9.4-49.1c-0.7-7.1-2-14.6-4.6-21.3c-1.1-3-2.4-6.1-3.6-9C212.8,272.2,209.2,268.5,214.7,265.9z"/>
<path id="XMLID_1112_" class="st0" d="M263.8,264.5c-5,18.5-2.4,45.1,7.4,61.5c8.6,14.4,19.8,28.4,31.1,40.8
	c5.2,5.7,10.9,11.1,16.1,16.9c1,1.1,7.7,10.8,9.2,10.7c3.7-0.2,6.2-18,6.6-20.9c1.5-13.8,2.1-28.9-1.7-42.3
	c-4.7-16.6-14.5-33.9-28.4-44.5C291.2,276.8,275.8,274.3,263.8,264.5z"/>
<path id="XMLID_1111_" class="st0" d="M290.9,246.6c3.1-7.5,15.8-12.9,23-15.7c11.3-4.5,25.4-7.3,37.6-6.3
	c16,1.2,28.2,10.1,41.3,17.6c-15.9,13.7-37.6,22.8-59.3,18.6c-9.5-1.8-19-9.2-27.8-13.2c-3.4-1.6-6.4-3.7-10.2-4.6
	c-3-0.7-5.6,0.1-6-3.7"/>
<path id="XMLID_1110_" class="st0" d="M197.7,267.3c-4,5.8-5.3,15.3-6.9,22c-1.8,7.8-3.8,15.5-5,23.5c-1.2,8-2.9,17.9-1.9,26.1
	c1.4,11.2,13.1,15.2,22.4,17.1c8.4,1.8,22.5,8.1,24-4.2c1,8.1,3.2,9.9,11.1,11.4c4,0.7,16.9,4.5,17-1.8c7.2,6.8,13.3,4.1,13.2-6.6
	c0-8.2-1.8-15.3-3.1-23.3c-1.4-8.7-1.5-17.5-3.2-26.2c-1.6-8.1-2.5-22.8-9.8-28.3c-3-2.3-8.3-1.6-11.8-1.1
	c-6.5,0.9-12.9,1.7-19.4,0.6c-10.4-1.7-19.9-4.4-27.5-11.7C197.1,265.6,197.7,266.1,197.7,267.3z"/>
<path id="XMLID_1109_" class="st0" d="M295,243.4c-6.8-0.6-17.2,9.9-22.2,14.1c-6,5.1-15.4,12.5-11.9,21.2c2,5.1,6.8,11.3,10,16.1
	c4.2,6.2,9.3,11.7,14,17.4c6.9,8.5,19.9,18.8,31.2,19.3c8.2,0.3,13.6-5.4,18.4-10.8c5.4-6.1,8.3-7.5,3.2-15.1
	c4.8-1,7.5,3.6,12.5,1.5c3.3-1.4,7-4.9,9.6-7.4c6.8-6.3,12.4-14.2,15.1-23.3c3-10.2-5.1-12.1-12.7-17.6c-11.7-8.4-28-12-41.9-15.2
	C314.3,242.5,294.1,235.7,295,243.4z"/>
<path id="XMLID_1108_" class="st0" d="M275.8,197.5c-0.3,3.7,2.7,7.4,3.2,11c0.5,3.1,0.6,6.6,1.4,9.6c1.4,5.9,4.4,12.7,7.7,18
	c6.5,10.6,24.4-0.3,33.3-3.6c8.5-3.1,17.4-4.6,26-7.4c4.4-1.4,11.8-2.3,15.3-5.6c5.1-4.7,4.3-17,3.6-23.5c-0.7-6.3-4.7-8.6-10.9-8.3
	c-0.1-3.3,3.4-5.5,3.6-9.2c0.2-3.8-2-7.7-3.7-11c-4-8.1-7.7-15.1-17.3-15.5c-7-0.3-12.6,3-18.7,6c-9.3,4.6-17.7,9.4-25.6,16.2
	C288.7,178.3,274.9,189.5,275.8,197.5z"/>
<path id="XMLID_1107_" class="st0" d="M207.8,181c5.5,4.7,14.2,5.3,21.2,6c3.7,0.4,6,2,9.3,3.2c4.4,1.5,10.1,1.9,14.9,2.4
	c4.5,0.5,9.1,0.6,13.5,1.3c6.7,1,7.1,0.1,9.8-6.8c5.5-14.1,8.6-28.6,9.7-43.7c0.4-6.1,4.4-18.7-1.4-23.7c-2.3-2-7-2.2-9.8-3.2
	c-3.9-1.3-7.3-2.1-11.3-2.5c-7.4-0.8-6.7,5.1-12.3,8.7c-2.4-2.9-1.5-8-4.7-10.5c-2.9-2.3-10-1.1-13.9-1c-6.5,0.3-12.9,2.1-19.1,3.6
	c-1.7,0.4-6.6,1-7.9,2c-3.1,2.3-2,7.1-2.1,10.5c-0.3,7.9-0.9,15.7-0.9,23.7C202.8,156.2,200.3,177.8,207.8,181z"/>
<path id="XMLID_1106_" class="st0" d="M175.7,220.9c-15.2-9.9-31.1-20.2-48.4-26.9c-5.3-2-13.7-5.3-13.6-11.6
	c0.1-6.3,6.1-15.3,9.4-20.5c1.7-2.6,2.6-4.7,5.5-5.7c4.2-1.4,7.3,2.4,11.2,1.8c-0.2-3.6-3-6.2-1.8-9.6c1.7-5.1,10.9-12.7,15.3-15.5
	c3-1.9,8.6-5.1,12.4-4.7c3.2,0.3,5.6,3.3,7.7,5.3c3.3,3.2,7.1,6.1,10.1,9.5c7.7,8.8,16.2,19.8,19.2,31.5c2.3,9.1-2.8,15-8.5,22.1
	c-4.3,5.5-11.1,8-15,14c-1.4,2.1-2.5,4.3-3.4,6.7C175.5,218,174.6,222.2,175.7,220.9z"/>
<path id="XMLID_1105_" class="st0" d="M195.4,265.9c-2.5,1.9-4.7,5.4-7.1,7.7c-5.1,5.1-10.2,10.1-15.3,15.2
	c-7.9,8-14.9,14.6-24,21.1c-2.4,1.7-3.3,3-6.2,3.2c-5.5,0.3-5.7-3.8-8.7-7.6c-6.1-7.8-17.2-11.1-20.4-21.3
	c-2.5-8.1,3.2-9.9,6.7-16.5c-3-0.2-7.7,0.5-10-2.2c-3.3-3.8-4.1-15.2-5.4-20.1c-0.7-2.8-2.9-9.8-1.4-12.8c2.5-5,13.9-6,18.4-6.6
	c15.6-2.1,32.2-4.3,48.1-3.4c9.9,0.5,11.7,8.7,15.2,17c2.1,5.1,5.2,9.8,7.5,14.8c1.5,3.5,1.4,6.8,2.7,10.4
	C195.3,264.5,195.2,264,195.4,265.9z"/>
<path id="XMLID_1104_" class="st1" d="M208.3,207.6c-1.5-3.4-2-7.2-3-10.8c-1.7-6.2-5.5-11.7-8.1-17.7
	c-5.2-12.2-11.2-23.2-19.5-33.5c-7.6-9.4-15.4-16.9-24.4-24.8c-8.9-7.8-17.5-15.6-29-19c-17.3-5.1-36.3-5.9-54.2-2.9
	c-13.3,2.2-44.9,12.8-35.8,32.6c2.9,6.3,16.9,13.1,20.9,4.3c3.7-8-11-8.1-9.3-1.2c0.7,0.1,1.4,0.1,2.1,0.1"/>
<path id="XMLID_1103_" class="st1" d="M260.5,214.2c-0.6-7.8,5.1-17.8,8.1-24.8c3.8-8.8,7.4-17.7,10.7-26.6
	c3.6-9.8,9.1-18.9,13.2-28.5c4.3-9.9,7.2-20.5,10.5-30.8c8.2-26.1,44.1-99.1-7.1-103.2c-4.9-0.4-9.3-0.2-12,4.1
	c-2.3,3.7-1.6,6,2.4,7.5c5.5,2.1,10.4-4.8,4.5-5.6c2,0.5,3.9,0.5,6,0.4"/>
<path id="XMLID_560_" class="st1" d="M425.7,238.5c1-5.3-5.4-7-8.5-3.4c-4.4,5,4.2,9.8,8.8,8.4c7.6-2.3,11.9-14.1,7.1-20.2
	c-11.3-14.3-36.6-9.4-51.7-6.9c-16.4,2.7-32.3,8.8-48.7,11.7c-13.7,2.4-35.5,3.3-44.6-8.9"/>
<path id="XMLID_559_" class="st1" d="M435.8,364.3c-7.8,0.9-12.1-11.2-2.9-13.7c11.9-3.2,16.3,8.4,15.8,18
	c-1.5,24.8-36.1,21.5-52.4,15c-20-8-37.2-22.8-55.3-34.3c-21.9-13.8-45.5-35.3-72.8-35.5"/>
<path id="XMLID_558_" class="st1" d="M83.7,447.9c-1.4-7.6,17.1-6.7,13.8,4.2c-1.1,3.7-6.6,4.1-10.1,3.1c-6-1.7-7.9-7.8-9-13.2
	c-6.5-30,28-49,48.1-63.1c10.2-7.1,18.9-15.8,28.3-23.8c11.7-9.9,25-18.3,34.6-30.4c8.2-10.3,12.5-24.3,17.2-36.4
	c3-7.9,6.1-15.7,7.9-24"/>
<path id="XMLID_557_" class="st1" d="M37.3,387.7c5.7-1.2,8.2-12.3,0.5-12.4c-6.9-0.1-12.8,6.3-10.9,12.9c2.2,7.8,9.4,9.2,16.7,9.6
	c15,0.8,26.2-9.2,37.3-18.2c13.2-10.6,24.2-21.2,33.8-35.3c10.6-15.6,19.7-31.1,32.7-44.9c12.4-13.3,27.7-22.8,43.3-31.9
	c10.7-6.2,20.8-10.4,33.1-10.6"/>
<path id="XMLID_556_" class="st0" d="M268.4,425.2c-5.6-6.1-14.8-10.7-23-7.1c-6,2.6-10.3,12.5-6.5,18.5
	c-9.4-0.5-14.6,5.4-13.7,14.9c0.9,9.1,10.4,12.5,17.9,8.2c-0.1,6.6-0.5,12.7,7.1,15c4.3,1.3,15,1.1,14.1-5.3
	c7,2.8,16.3,6.6,20.2-3.8c2.4-6.5-3.3-13.3-7.6-17.2c7.7-3.2,8.1-11.8,2.9-18c-3.7-4.4-8.2-5.2-13.8-5.2
	C265.9,423.7,266.6,422.5,268.4,425.2z"/>
<path id="XMLID_555_" class="st1" d="M208.1,460.3c-2.4,0.1-4.7,2.6-3.7,5.2c3.1,8.3,19.7-1.1,23.1-3.6
	c13.6-10.1,26.1-20.7,30.5-37.6c4.1-15.9,6.9-33.6,7.2-50c0.4-23.7-6.7-45.9-20.7-64.9c-7.1-9.7-16.1-19.4-15.7-32.3"/>
<path id="XMLID_554_" class="st0" d="M308.4,82.3c0.3-8,7-17.4,13.4-21.8c5.9-4.1,12-7.1,18.8-9.4c2.9-1,11.2-1.7,11.7-4.9
	c-5.9,9.8-15.5,18.4-25.1,24.3c-3.6,2.2-20.5,9-20,13.6C308,84.3,308.4,83.9,308.4,82.3z"/>
<path id="XMLID_553_" class="st1" d="M290.5,98.8c-4.3-10.7-6.4-22.4-6.4-34.1c0-7.3,0.2-14.4-1.9-21.5c-1.3-4.2-2.9-8.2-3.2-12.6
	c8.7,8.4,10.2,21,10.2,32.5C289.1,73.5,283.6,93,290.5,98.8z"/>
<path id="XMLID_552_" class="st1" d="M150.9,131.9c-0.8-4.7-5.4-10.5-7.8-14.5c-4.2-6.9-9.5-13.2-13.5-20.2
	c-5.4-9.3-3.4-23.8,1.6-33.1c-0.2,12.4,1.5,23.1,6.1,34.6c2.5,6.4,4.8,12.9,6.5,19.5C145,122.8,143.9,137.2,150.9,131.9z"/>
<path id="XMLID_551_" class="st0" d="M366.2,223.7c9.6-7.7,19.9-12.9,27.3-23.5c3.7-5.3,5.6-11.6,7.1-17.8c0.9-3.7,0.6-9.7,2.7-12.4
	c2.7,8.8,1.1,20.8-3.1,28.7c-2.9,5.4-7.4,10.1-12.6,13.5C382.4,215.7,374.7,221.8,366.2,223.7z"/>
<path id="XMLID_550_" class="st0" d="M279,360.9c0.1,18.1,18.5,27.5,17.9,45.4c-7.7-0.8-13.2-12.8-15.3-19
	c-3.8-11.1-2.1-23-2.1-34.7"/>
<path id="XMLID_549_" class="st0" d="M275.8,337.5c0.4,4.7-1,9.8-2.5,14.2c-2,5.9-6.2,7.5-9.7,12.2c-5.2,7-4.2,17.3-7.4,24
	c7.1-8.7,18.3-15,20.5-26.9c0.9-5.1,1-11.3,0.9-16.6c0-4.2-2.5-10.2,0.5-13.8"/>
<path id="XMLID_548_" class="st1" d="M149.5,327.9c-9.6,6.7-25.7,12.8-37.2,9.3c-13.1-4-6-15.2-1.6-23.1
	c-11.1,5.1-23.9,20.7-10.3,31.7c7.8,6.3,20.8-0.3,28-4.3c11.3-6.2,16.9-15.6,31.1-16.4"/>
<path id="XMLID_547_" class="st1" d="M163.3,344.9c-8.9,3.6-17.6,15-18.3,24.7c-0.6,8.5,3.1,16.9,12,16.6c-8.4-3.5-8.8-15.5-8-23.4
	C150.2,352.2,158.7,347.8,163.3,344.9z"/>
<path id="XMLID_546_" class="st0" d="M248,218.2c-6.9-0.3-10.4,13.2-1,13.7C259.3,232.5,254.6,217.2,248,218.2z"/>
<path id="XMLID_545_" class="st0" d="M228.8,229c-3.8-1.1-8.8,0-10.4,4c-1.5,3.8,1.4,5.2,4.5,5.5c3.1,0.3,6.8-0.6,7.8-3.6
	c0.8-2.3-0.1-7.9-3-7.8c-0.5,0.1,0.5-0.1,0.4-0.3"/>
<path id="XMLID_544_" class="st0" d="M233,216.2c-7-1.5-6.4,15,2.6,10.1c5.3-2.9,2-15.7-4.6-11.4"/>
<path id="XMLID_543_" class="st0" d="M215.1,211c-4.4,0.3-3.2,13.4,3.1,8.3c4.1-3.2,0.3-9.6-4.4-9"/>
<path id="XMLID_542_" class="st0" d="M204,201.2c-1.2,1.8-2.2,8.4-1.1,10.5c1.3,2.6,5.4,3,7.3,1.2c2.1-1.9,2.6-7.4,1.3-9.9
	C210.4,201,205.9,198.5,204,201.2z"/>
<path id="XMLID_541_" class="st0" d="M218.7,192.4c-7.8-1.7-2.8,16.1,4.2,8.3c1.9-2.1,3-8.5,1.3-10.9c-2.7-3.8-7.2-2-7.5,2.3"/>
<path id="XMLID_540_" class="st0" d="M232,193.7c-7.1-1.2-9.4,15,2.6,12.7c4.2-0.8,5.5-8.7,2.9-11.8
	C234.6,191,229.8,192.7,232,193.7z"/>
<path id="XMLID_539_" class="st0" d="M247,196c-6.6-1.3-7.9,16.2,2.6,9.8c3.2-2,3.8-6.2,2.2-9.4c-0.9-1.8-5.7-6.1-6-1.6"/>
<path id="XMLID_538_" class="st0" d="M273.4,222.1c-3.1,1.6-5.2,6.8-3.6,10.2c1.6,3.5,9.5,3.8,11.4,0.5c2-3.3,0.6-10.2-2.6-12.1
	c-6-3.4-8.6,0.1-10.8,5.2"/>
<path id="XMLID_537_" class="st0" d="M269.2,243.3c-2.7,2-6.2,5.3-5.2,9.1c0.9,3.5,6.2,5.1,9.1,3.1c2.9-2,3.1-7.4,1-9.9
	c-3-3.5-6.7-1.6-9.8,0.3"/>
<path id="XMLID_536_" class="st0" d="M241.2,247.9c-3.7-1-5,5-4.6,7.6c0.6,4,5.4,5,7.8,1.2c3.8-5.9-3-15.8-8.5-8.8"/>
<path id="XMLID_535_" class="st0" d="M247.7,260.9c-2.9-0.1-6.3,0.5-7.4,3.6c-1.4,4.2,2.5,7.3,6.4,6.8c9.5-1.2-1-15.8-5.2-10.1"/>
<path id="XMLID_534_" class="st0" d="M259.1,258.6c-8.3-1.1-6.2,11.6,1.2,8.8c3.1-1.2,3-6.3,1.4-8.8c-1.8-2.9-5.4-2.3-8.4-2.3"/>
<path id="XMLID_533_" class="st0" d="M252.6,241c-3.4-0.1-5.2,5-4.2,7.8c1.5,4.2,7.7,3.3,9.2-0.4c2.1-5.4-5.6-13.4-9.9-8.1"/>
<path id="XMLID_532_" class="st0" d="M213.4,242.3c-10.5,3.4,1.8,18.6,7.1,10.4c2.1-3.2-0.5-7.2-3.2-9.2c-3.5-2.6-7.4-2.1-11.1-0.6"
	/>
<path id="XMLID_531_" class="st0" d="M192.9,233.5c-8.1,2.7,8.3,19.7,8.8,6.5c0.1-3.9-1.2-7.9-5.2-8.2c-3-0.2-8.9,2.4-9.2,5.9"/>
<path id="XMLID_530_" class="st0" d="M194.5,217.2c-0.8-0.2-1.5-0.1-2.2,0.3c-0.4,2.6-1,5.4,1.2,7.5c3,2.8,9.2,1.9,10.8-1.9
	c3.7-8.6-7.5-9.2-12-5.5"/>
<path id="XMLID_529_" class="st0" d="M182.5,207.4c-7.9,2.9,4.5,15.4,9.5,6c4.1-7.7-8-9.1-12.1-4.7"/>
<path id="XMLID_528_" class="st0" d="M200.4,188.5c-10.6-1.2-8.2,17.9,2.1,12.1c8.5-4.8-2.8-16-9.6-8.2"/>
<path id="XMLID_527_" class="st0" d="M213.4,182.6c-8.7-0.4-7.9,13.5,1.3,9.7c8.4-3.4-2.1-14.1-4.6-9.4"/>
<path id="XMLID_526_" class="st0" d="M264.3,192.1c-2.6-0.2-4.8,2.7-5.6,4.9c-1.8,5.5,0.8,9.5,6.4,9.8c8,0.4,6.3-3.1,4-8.8
	c-1.9-4.7-3.2-3.8-7.5-1.3"/>
<path id="XMLID_525_" class="st0" d="M274.4,208.1c-2.9,1.3-5.3,1.9-5.2,5.5c0.1,3,2.2,5.4,5.3,5.6c7.3,0.3,3.7-10.3-1.3-9.1"/>
<path id="XMLID_524_" class="st0" d="M284.9,236.8c-6.7-0.9-11.7,9.6-3.6,10.1c12.8,0.8,2.6-15.7-2.3-11.4"/>
<path id="XMLID_523_" class="st0" d="M262,230.3c-8.2-1.3-8,14.2,2.3,11.4c7.9-2.2-0.2-17.5-6.9-10.4"/>
<path id="XMLID_522_" class="st0" d="M258.4,213.3c-7.3,3.8,1.3,15.2,6.8,9.1c2.6-2.9,0.6-7.9-2.4-9.6c-2.6-1.5-5.3-0.7-8,0.5"/>
<path id="XMLID_521_" class="st0" d="M239.2,208.4c-7.4,1,2.2,14,7.8,7.5c2.2-2.6-0.6-7.7-3.2-9c-2.8-1.3-7-0.1-9.1,1.9"/>
<path id="XMLID_520_" class="st0" d="M221.3,206.1c-9.5,1.7,3.4,15.5,5.9,6.9c2.9-10.1-8.8-12.2-13.1-4.6"/>
<path id="XMLID_519_" class="st0" d="M208.9,222.8c-6.8-0.5-5.4,16,3.7,9.8c3.7-2.5,2.3-9-1.7-10.6c-3.3-1.4-6.1,1.5-8.2,3.8"/>
<path id="XMLID_518_" class="st0" d="M227.1,243c-2.9-0.1-4.5,3.3-3.9,5.9c0.8,3.4,7.1,5.2,9.8,2.8c2.7-2.4,0.8-7.7-2.6-8.6
	c-2.6-0.7-6.7,1.8-8.2,3.9"/>
<path id="XMLID_517_" class="st0" d="M228.4,260.6c-7.5,2.5,4.2,17.6,9.2,7.4c2-4-2.6-10.7-6.6-11.4c-4.9-0.8-8.5,4.2-10.8,7.8"/>
<path id="XMLID_516_" class="st0" d="M210.8,267.8c-6,3.2,11,14.3,10.1,3.4c-0.7-8.5-11.1-5.8-13.4-0.2"/>
<path id="XMLID_515_" class="st0" d="M197.8,250.8c-6.7-1.2-3.2,17.7,5.6,10.3c9.6-8.1-14.3-17.6-13.1-5.7"/>
<path id="XMLID_514_" class="st0" d="M185.4,227.3c-1.9,0.1-4,3.3-2.9,5.2c1.6,2.5,7.5,1,8.1-1.6c0.7-2.8-3-5.9-5.6-5.9
	c-3,0-5.3,2.9-6.2,5.6"/>
<path id="XMLID_513_" class="st0" d="M192.6,202.9c-5.7,3,7.4,14,8.8,6.2c1.8-9.6-10.2-6.6-10.8,1.6"/>
<path id="XMLID_512_" class="st0" d="M236.9,232.2c-3.3,0.6-4.3,6-3.2,8.8c1.2,3.2,7,4.2,9.8,2.2c3.4-2.5-0.6-9.1-3.7-10.7
	c-2.6-1.3-5.1,1.3-7.1,3.2"/>
<path id="XMLID_511_" class="st0" d="M237.9,189.8c-2.5-1.1-2.3,2.3-1.7,4c1.6,4.1,7.2,5.2,9,0.6c4.4-11.6-14.2-5.8-13.2,0.3"/>
<path id="XMLID_510_" class="st0" d="M272.5,236.1c-2.3-0.1-5.2,0-6.5,2.4c-2,3.9,3.9,6.5,6.9,5.1c5.2-2.3-0.3-14.3-6-8.8"/>
<path id="XMLID_509_" class="st0" d="M250.3,230.6c-5.3-0.4-15,6.9-7.2,11.1c3.7,2,11.7,0.1,9.4-5.3c-1.3-3-4.7-3.8-7.5-2.9"/>
<path id="XMLID_508_" class="st0" d="M237.2,226c-4.5-2.3-8.1,6.6-2.6,8.4c8.8,2.9,4.7-11.9-1.4-7.8"/>
<path id="XMLID_507_" class="st0" d="M218.3,220.8c-4.7-1.1-1.9,14.3,5.7,6.6c2.4-2.5,2.9-9.2-1.3-10.3c-2.7-0.7-6.5,3.3-8.9,4.7"/>
<path id="XMLID_506_" class="st0" d="M212.8,233.8c-4.9-1.7-4.4,11.5,2.8,7.3c6-3.6-5.7-14.2-9-3.4"/>
<path id="XMLID_505_" class="st0" d="M201.4,241.7c-6.6,3.8-0.2,13.1,5.3,9c4.4-3.3-2.4-13.7-6.6-6.7"/>
<path id="XMLID_504_" class="st0" d="M223.9,266.5c-6.4,2.2,0.8,10.3,6.2,8c7.1-3-5.5-14.4-8.8-7"/>
<path id="XMLID_503_" class="st0" d="M237.9,269.4c-5.4,1.2,0.8,8.1,4.1,3.7c2.7-3.6-6-7.2-6.1-1.8"/>
<path id="XMLID_502_" class="st0" d="M252.9,268.1c-6,0.4-4.6,9.3,2.1,7.5c3.4-0.9,3.5-4,0.8-6.2c-2.6-2.1-4.2-1-6.9,0.3"/>
<path id="XMLID_501_" class="st0" d="M247,254.1c-0.6,0.1-1.2,0.3-1.7,0.6c-0.7,5.2,5.3,3.9,4.9,0.5c-0.3-3.4-6.3-2.5-4.6,0.8"/>
<path id="XMLID_500_" class="st0" d="M259.1,249.5c-6.4,1.9,2.1,9.4,5,3.8c2-3.7-3.7-6.9-6-2.5"/>
<path id="XMLID_499_" class="st0" d="M256.2,226c-1.7,0.5-1.5,2.3-1.3,3.9c3.1,1.6,6.2-3.2,3.8-5.5c-2.9-2.7-4.8,1.6-5.1,4"/>
<path id="XMLID_498_" class="st0" d="M251.3,207.4c-5.8,1.4,1.2,8.2,3.2,2.9c1.5-3.9-4.2-3.9-5.5-0.6"/>
<path id="XMLID_497_" class="st0" d="M273.1,194.7c-4.9-0.5-3.9,8.5,0.7,5.8c3.9-2.2,0.1-9.8-3-3.5"/>
<path id="XMLID_496_" class="st0" d="M277,204.8c-4.7,1.5,2.1,7.6,2.6,2.3c0.2-2.3-2.3-2.7-4.1-2.1c-2.5,0.9-3.7,4-4.1,6.4"/>
<path id="XMLID_495_" class="st0" d="M284.2,229.9c-4.8,1.3,0.5,7.2,3,5.2c3.7-2.9-6-11-5.6-1.9"/>
<path id="XMLID_494_" class="st0" d="M290.7,238.1c-2.9,2.8,0,8.2,3.3,4.6c2.7-2.9-5.8-8.2-8.2-2.3"/>
<path id="XMLID_493_" class="st0" d="M209.2,194.7c-7,2.4,0,9.5,5.1,6.2c3.8-2.5-0.4-6.8-3.8-7.1c-4.1-0.4-2.8,1.7-4.2,4.8"/>
<path id="XMLID_492_" class="st0" d="M177.2,216.6c-6.1,1.4-1.1,12,4.2,7.2c2.3-2.1,0.9-8.7-2.6-8.8c-3.3-0.1-3.1,5.5-3.9,7.8"/>
<path id="XMLID_491_" class="st0" d="M186.7,241.3c-6.8,1.6,0.9,12.9,4.5,6.4c2.1-3.8-5.2-7.3-6.2-2.2"/>
<path id="XMLID_490_" class="st0" d="M186.7,220.1c-4.4,1.2,1.4,5.6,2.8,2.1c0.4-1-1.4-3.7-2.6-3.7c-1.6,0-2,1.9-2.4,3.3"/>
<path id="XMLID_489_" class="st0" d="M199.1,228.3c-4.8,1.4,0.2,3.9,2.9,3.5c0.1-2.6-4.8-6.4-5.2-1.9"/>
<path id="XMLID_488_" class="st0" d="M228.4,209.1c-3.7,0-3.4,6.4,0.5,6.2c6.7-0.4-1.9-7.7-3.1-2.3"/>
<path id="XMLID_487_" class="st0" d="M226.2,189.8c-3.2-1.4-2.6,5.8,0.8,2.1c2.9-3.1-3.5-4.6-4.1-0.5"/>
<path id="XMLID_486_" class="st0" d="M230.7,252.8c-4.4-0.6-2.7,6.5,1.9,4.3c5.1-2.4-4.2-5.5-5.1-1.7"/>
<path id="XMLID_485_" class="st0" d="M219.3,238.7c-4,1-0.8,8.9,2.6,4.3c2.1-2.9-1.8-5.4-4.3-3.6"/>
<path id="XMLID_484_" class="st0" d="M208.2,252.1c-4.7,0-2.7,8.3,0.8,5.6c3.1-2.4-1.6-8.5-3.4-3.9"/>
<path id="XMLID_483_" class="st0" d="M207.2,262.5c-4.4-0.5-0.5,8.9,4.9,3.6c2.7-2.7,0.3-7.2-3.4-7.2c-3,0-3.5,2.8-4.8,5.2"/>
<path id="XMLID_482_" class="st0" d="M215.7,257.3c-6.1,2.7,1.4,10.9,5.8,4.6c2.7-3.8-5.4-9.4-7.8-2.9"/>
<path id="XMLID_481_" class="st0" d="M265,259.6c-4.5,3.3,5.5,5.1,6.2,0.9c0.4-2.6-4-5.1-6.2-4.5c-3.1,0.8-3.4,4.6-3.3,7.2"/>
<path id="XMLID_480_" class="st0" d="M253.9,193.1c-0.6-0.1-1.3,0-1.9,0.1c-0.4,6.3,4.6,2.8,3.9,0.4c-1.5-4.9-6.2,1.9-6.5,4.1"/>
<path id="XMLID_479_" class="st0" d="M259.1,204.2c-5.7-0.9-6,9.9-0.6,8.2c1.5-0.5,2.4-4.5,0.5-5.7c-1.8-1.3-2.9,0.8-4.4,1.8"/>
<path id="XMLID_478_" class="st0" d="M264.3,209.1c-4.8-0.6,0.4,11.6,2.9,3.1c2.1-7-5.3-5.2-5.5,0.5"/>
<path id="XMLID_477_" class="st0" d="M279.6,216.6c-0.6-0.1-1.1-0.1-1.6,0c-0.8,2.5,0.7,7,3.4,3.4c3.3-4.4-5.8-6.5-6-1.5"/>
<path id="XMLID_476_" class="st0" d="M202.7,234.5c-5.8,1,0.1,10.4,5.7,6.9c4.3-2.7-2.9-9.6-6.3-4.6"/>
<path id="XMLID_475_" class="st0" d="M207.6,215.9c-4.8,0.2,1.7,8.5,3.3,2.9c1.4-5.1-8.1-3.4-6.9,2.3"/>
<path id="XMLID_474_" class="st0" d="M193.5,211.3c-5.4,0.1-2.5,7.7,2.3,4.7c4-2.6-2.9-6.6-5.2-1.1"/>
<path id="XMLID_473_" class="st0" d="M187.4,200.9c-2.7-0.4-2.8,3.1-1.4,4.6c3.4,3.6,6.6,0.3,7-3.1c0.3-3,0-6.2-3.6-6.3
	c-5.7-0.1-6.1,8.2-5.9,12.1"/>
<path id="XMLID_472_" class="st0" d="M184.1,235.1c-1.6,0.5-2.9,3.5-1.9,5.1c1.4,2.2,8.4,1.4,10.4,0.4c-1.1-6.2-7.9-8.7-10.1-1.9"/>
<path id="XMLID_471_" class="st0" d="M220.6,252.4c-3.4-0.3-2.3,7.4,4.1,5.5c6.1-1.8-1.3-10-5.4-5.8"/>
<path id="XMLID_470_" class="st0" d="M227.1,238.1c-0.4-0.1-0.9-0.1-1.3,0c-1,3.7,5.2,4.4,5.6,1.5c0.2-1.4-2.5-3.8-4-3.2
	c-1.2,0.4-1.7,3.8-1.9,4.9"/>
<path id="XMLID_469_" class="st0" d="M238.9,218.5c-3.5-0.2-2.1,5.7,1,3.9c2.8-1.7-1-4.5-3.3-2.2"/>
<path id="XMLID_468_" class="st0" d="M249.6,214.6c-5.3,0.5-0.6,8.3,2.3,3.8c2.1-3.1-2.6-4-4.6-3.2"/>
<path id="XMLID_467_" class="st0" d="M252.6,201.2c-3.9,0.5,1.5,9.6,5.7,2.6c1.4-2.3,1-6-2.1-6.2c-2.7-0.1-4.1,3.3-6.2,4.6"/>
<path id="XMLID_466_" class="st0" d="M250.6,233.2c-0.7,0.7-0.9,1.5-0.6,2.6c2.9,0.6,6.2-1.4,3.5-3.5c-2.3-1.7-7.1-1.1-7.1,2.2"/>
<path id="XMLID_465_" class="st0" d="M257.1,240.4c-4.6,1.2-1.6,9.8,3.9,7.2c4.5-2.2-2.5-7.9-4.9-4.6"/>
<path id="XMLID_464_" class="st0" d="M264,222.4c-5.1,0.7-1.7,11.4,3,5.9c3.4-4-5.6-8.3-6.9-4.2"/>
<path id="XMLID_463_" class="st0" d="M250.6,251.8c-2.5,3.7,1.2,10.3,4.4,5c2.5-4.1-5.8-9-6.7-4.7"/>
<path id="XMLID_462_" class="st0" d="M249.6,260.9c-3.9,0.4-1.7,8.1,3.9,4.1c4.7-3.4-4.5-10-6.2-4.1"/>
<path id="XMLID_461_" class="st0" d="M242.8,272.7c-4.3,1.3,1.1,7.1,4.4,3.1c3.9-4.7-6.2-5-9-2.1"/>
<path id="XMLID_460_" class="st0" d="M228.8,273.6c-4.1,3.4,4.9,8.1,5.9,1.6c0.9-6.1-7.2-4.5-9.1-0.9"/>
<path id="XMLID_459_" class="st0" d="M235,242.6c-4.2-0.7-3.6,6.8,0.6,5.5c5.5-1.7,0.5-10.8-4.2-4.5"/>
<path id="XMLID_458_" class="st0" d="M230.4,206.8c-3,3.7,2.8,8.5,3.3,2.9c0.4-5.1-5.8-4.2-7.9-1.3"/>
<path id="XMLID_457_" class="st0" d="M224.2,216.2c-3.8,0.5-1.3,10.6,3.1,6.3c4.4-4.3-3.7-9.8-3.7-4.7"/>
<path id="XMLID_456_" class="st0" d="M207.2,211.3c-6.3,1-2.9,10.6,3.7,8.8c3.8-1,3.4-8.3,0.3-10.5c-2.8-2-2.8,1.2-4,3.6"/>
<path id="XMLID_455_" class="st0" d="M215.1,200.9c-4.8-1.4-2.5,10,2.6,4.5c2-2.1,2.1-5.7-1-5.8c-3.1-0.1-3.3,2.7-3.9,4.9"/>
<path id="XMLID_454_" class="st0" d="M197.5,211.7c-4.1,1.6-0.1,9.7,3.9,5.2c1.5-1.7,1.5-4.6-0.9-5.2c-1.8-0.4-3,1.2-4.2,2.3"/>
<path id="XMLID_453_" class="st0" d="M188.7,220.5c-6.1,1-4.1,12.1,2,8.1c2.3-1.5,2.9-5.8-0.3-6.8c-1.9-0.6-3.4,1.2-5,1.9"/>
<path id="XMLID_452_" class="st0" d="M190,241c-1.9,0.1-3,1.5-3,3.3c0,2.6,2.5,3.6,4.8,4.2c2.9,0.7,5.7,1.2,5.7-2.1
	c0-2.6-3.2-6.8-5.6-7.7c-0.9,2.1-0.6,4.9-0.9,7.2"/>
<path id="XMLID_451_" class="st0" d="M196.2,262.9c-5.2,0.9,5.5,12.2,7.2,4.6c1.1-5.1-11-9.4-6.8,1.3"/>
<path id="XMLID_450_" class="st0" d="M220.9,274.3c-5.5,1.9,4.4,8.8,5.6,3.1c0.9-4.4-8.4-6.5-8.5-0.8"/>
<path id="XMLID_449_" class="st0" d="M237.2,275.6c-4.6,3.6,6.6,7.6,6.8,1.7c0.2-4.5-8.2-1.8-10.1-0.4"/>
<path id="XMLID_448_" class="st0" d="M257.5,274.3c-8.2,3.6,1.9,8.8,4.3,3.6c2.7-5.9-10.1-7.3-10.5-1"/>
<path id="XMLID_447_" class="st0" d="M261.4,264.5c-0.4-0.1-0.9-0.1-1.3,0c0,1.5-0.7,5,0.3,6.2c1.8,2.3,6.3,0.8,6.9-1.6
	c1.6-5.9-8.9-6.8-10.2-1.3"/>
<path id="XMLID_446_" class="st0" d="M274.4,249.5c-4.7,3.4,0.3,11.5,5.5,7.5c3.3-2.5,0.5-7.2-3-7.5c-2.6-0.2-4.9,1.7-6.8,3.3"/>
<path id="XMLID_445_" class="st0" d="M287.1,244.9c-2-0.3-4.9,2.6-4.3,4.8c0.5,1.7,4.7,2.7,6.2,1.6c4.4-3-5.2-10.5-5.9-5.2"/>
<path id="XMLID_444_" class="st0" d="M281.9,222.8c-5,1.1-1.4,10.5,3.3,3.8c4.3-6-5.6-3.9-8.2-1.9"/>
<path id="XMLID_443_" class="st0" d="M279.6,209.4c-1.3,0.2-5.9,2.8-3.1,4.7c2.5,1.7,4-3.7,3.7-5.3c-2.2-0.2-5.3,0.3-6.8,1.9"/>
<path id="XMLID_442_" class="st0" d="M274.8,190.5c-2.1-2.3-5.2,0.6-4.2,2.9c1.2,2.9,5.7,1,6.4-1c3.2-8.9-12.8-8.7-9.4,2.3"/>
<path id="XMLID_441_" class="st0" d="M257.1,187.5c-5.2-2.6-6.3,9.8,0.6,6.4c3.1-1.5,3.6-7.9,0.1-9c-4.1-1.3-5.4,4.4-8.2,6.2"/>
<path id="XMLID_440_" class="st0" d="M230.7,183c-9.2-3-4.9,11.3,1.6,7c3.6-2.4,0.4-6.7-2.6-7.3c-4.2-0.9-9.8,2.2-9.1,6.9"/>
<path id="XMLID_439_" class="st0" d="M202,182.3c-6.5,0.4-2.8,11.3,3.7,7c2.9-1.9,2.2-6.4-1.1-7.6c-3.7-1.3-5.2,2.7-7.5,4.8"/>
<path id="XMLID_438_" class="st0" d="M189.6,191.8c-0.6,0.2-1.1,0.5-1.7,0.8c-0.3,3.2,4.1,1.8,3.9-0.4c-0.2-3-4.6-0.7-5.2,1.3"/>
<path id="XMLID_437_" class="st0" d="M179.5,203.2c-6.1,2.4,3.8,6.6,2.3-0.3c-1.2-5.4-7,2.8-7.8,5.2"/>
<path id="XMLID_436_" class="st0" d="M175.6,213c-1-0.4-3.3,0.4-2.2,1.9c1.1,1.6,4.9,1,5.5-0.6c0.8-2-1.4-4.3-3.3-3.8
	c-2.8,0.6-3.8,6.3-3.5,8.5"/>
<path id="XMLID_435_" class="st0" d="M176.3,226.3c-4.8-1.1-1.1,7.8,2.1,4.6c2.9-2.9-4.1-6.7-6,0.3"/>
<path id="XMLID_434_" class="st0" d="M179.5,233.2c-5.5,0.8,1.2,6.6,3,2c1.7-4.6-6.6-4.5-6.5,1.9"/>
<path id="XMLID_433_" class="st0" d="M190.3,254.4c-4.5,1.6-1.3,10.9,3.6,8.8c5.9-2.6-6.6-13.5-5.2-3.2"/>
<path id="XMLID_432_" class="st0" d="M236.6,185.6c-1.5-0.1-3.4,2.8-2.9,4.3c0.8,2.5,6.4,0.7,6.8-1.7c0.5-2.8-3.8-2.9-5.9-2.2
	c-2.2,0.8-3.3,2.6-3.5,5.1"/>
<path id="XMLID_431_" class="st0" d="M246.7,185.6c-0.7-0.2-1.3-0.1-1.8,0.3c-0.6,4.2,3.5,9.3,5.4,3c2.1-7-6.7-2.4-8.5,0.2"/>
<path id="XMLID_430_" class="st0" d="M246.7,209.4c-4.4,1.5-1.5,7.2,2.3,6.1c1.4-0.4,1.8-2.2,3.4-2.2c2.2,0.1,3.5,2.8,1.7,4.3
	c-2.2,1.7-3-0.6-3.8-2.3c-0.8-1.8-0.7-5.2-2.8-6.1c-3.7-1.7-5.3,3.5-5.1,6.1"/>
<path id="XMLID_429_" class="st0" d="M237.2,224.4c-6.1,1.6,1.8,10.3,5.2,4.6c3.2-5.2-6.3-5.9-9.2-2.6"/>
<path id="XMLID_428_" class="st0" d="M236.9,200.6c-5.2,4-0.2,11.1,3,6.2c2.8-4.3-3.4-7.9-6-3.6"/>
<path id="XMLID_427_" class="st0" d="M222.9,197.6c-4,0.6-3.5,10.3,1.9,8.1c4.6-1.8,0.3-7.6-2.9-6.5"/>
<path id="XMLID_426_" class="st0" d="M267.6,206.5c-1.9-0.6-3.6,1.8-2.9,3.6c0.8,2.2,5.3,1.7,6.6-0.3c3.9-6.4-9.3-8.6-8.2-0.3"/>
<path id="XMLID_425_" class="st0" d="M267.9,218.8c-7.9-1.6-3.1,8,0.8,3.7c4.3-4.7-7.3-11.7-6.4-1.1"/>
<path id="XMLID_424_" class="st0" d="M266.9,230.9c-4.7,1,0.6,5.4,2.3,2.3c1.8-3.1-4.6-5.6-4.3-1.7"/>
<path id="XMLID_423_" class="st0" d="M279.6,236.8c-5.8-1.9-10.2,7.3-1.7,6.2c8.7-1.1-0.5-15.5-4.5-4.6"/>
<path id="XMLID_422_" class="st0" d="M262,241.3c-5.7-0.4-1.5,10,3.8,5.6c4.4-3.7-5.4-12.7-6.8-2.6"/>
<path id="XMLID_421_" class="st0" d="M253.2,232.9c-3.9,1.4,0.7,8.4,4.6,4.7c2.1-2,0.9-6.4-1.9-7c-2.7-0.6-6.2,2.8-7.3,4.9"/>
<path id="XMLID_420_" class="st0" d="M244.4,242.6c-4.7-0.3-2.6,9.1,2.3,7.7c5.3-1.6,1-12.1-5.6-4.4"/>
<path id="XMLID_419_" class="st0" d="M234.6,256c-7.1,1.3-0.8,9.7,3.3,5.4c3.9-4.2-3.9-8.8-6.5-3.4"/>
<path id="XMLID_418_" class="st0" d="M215.4,230.6c-1.3-0.2-3.1,1.1-1.9,2.5c1.7,2.1,6.1-0.8,6.2-2.9c0.1-2.7-3.1-4.4-5.3-3.5
	c-2.1,0.9-4.2,5.3-4.1,7.4"/>
<path id="XMLID_417_" class="st0" d="M224.9,238.4c-4.8,0.7-2.6,8.7,1.8,6c4.2-2.6-4-8.5-5.7-1.8"/>
<path id="XMLID_416_" class="st0" d="M236.6,212.6c-4.6-0.6-3.5,9.9,1.1,5.2c4.4-4.6-3.3-8.1-5.3-3.6"/>
<path id="XMLID_415_" class="st0" d="M274.4,199.9c-4.6,0.8-2.5,9.5,1.9,5.4c2.2-2,1.3-5.4-1.9-5.1c-2.1,0.2-3.6,2.8-5,4.2"/>
<path id="XMLID_414_" class="st0" d="M281.3,214.6c-5.3,2.8-3.3,11.5,3.1,10.4c4.9-0.8,5.7-7.1,0.8-8.9c-3.2-1.2-5.7,0.8-8.5,1.7"/>
<path id="XMLID_413_" class="st0" d="M285.8,233.5c-6.2,0.4-4.3,12.3,2.6,8.5c6.1-3.3-2.2-14.5-6.9-6.9"/>
<path id="XMLID_412_" class="st0" d="M278.7,247.2c-4.2,0.2-2.8,9.4,2.3,4.7c2.1-1.9,1.8-5-1-5.7c-2.4-0.7-3.7,1.3-5.6,2"/>
<path id="XMLID_411_" class="st0" d="M269.2,260.6c-4.1,2.6,1.4,7.7,4.5,4.3c2.4-2.7-1.5-6.4-4.2-6.6c-2.8-0.1-4.1,2.1-5.2,4.3"/>
<path id="XMLID_410_" class="st0" d="M195.2,225c-7.9,4.6,3,12.6,8.1,8.6c3.6-2.8,0.3-10.2-3.5-11.2c-4.3-1.2-5.2,4.8-6.6,7.9"/>
<path id="XMLID_409_" class="st0" d="M252.9,433.2c-5.1-0.6-9.3,6.4-9.8,10.8c-0.9,8.2,14.4,12.5,20.7,9.1
	C277.1,445.8,261.8,415.6,252.9,433.2z"/>
<path id="XMLID_408_" class="st0" d="M142.8,246.1c14.3-5,30.9-7.1,45.9-8.9"/>
<path id="XMLID_407_" class="st0" d="M159.5,263.8c8.5-5.2,18.7-9.9,28.2-13"/>
<path id="XMLID_406_" class="st0" d="M160.6,178.8c11,9.4,23,18.6,36,25"/>
<path id="XMLID_405_" class="st0" d="M175.2,170.5c5.9,10,12.1,20.4,23.5,25"/>
<path id="XMLID_404_" class="st0" d="M232,154.8c-2.8,9.1-4.1,20.2-3.6,29.7"/>
<path id="XMLID_403_" class="st0" d="M258.6,158c-5.4,7.6-6.6,16-8.3,25"/>
<path id="XMLID_402_" class="st0" d="M246.6,160.6c-0.3,0.5-0.5,1-0.5,1.6"/>
<path id="XMLID_401_" class="st0" d="M279.4,205.4c7.4-5.6,14.8-8.1,23.5-10.9"/>
<path id="XMLID_400_" class="st0" d="M287.3,214.8c2.5-1.2,5.2-2.2,7.8-3.1"/>
<path id="XMLID_399_" class="st0" d="M283.1,230.4c14.1-1.9,27.1-9.5,37.5-18.8"/>
<path id="XMLID_398_" class="st0" d="M265.9,255.5c5.3,10.3,14.1,19,23.5,25.5"/>
<path id="XMLID_397_" class="st0" d="M278.4,249.7c3,7.9,10.7,13.2,17.7,17.2"/>
<path id="XMLID_396_" class="st0" d="M282,241.4c15.3,9.8,28.7,21.2,46.4,27.1"/>
<path id="XMLID_395_" class="st0" d="M307.1,276.8c1.5,1.3,3.1,2.5,4.7,3.6"/>
<path id="XMLID_394_" class="st0" d="M228.3,263.3c-3,16.6-2.1,37.6-11.5,52.1"/>
<path id="XMLID_393_" class="st0" d="M236.7,268.5c-6.1,14.9-1.7,33.3,0.5,48.5"/>
<path id="XMLID_392_" class="st0" d="M244.5,271.1c0,8-0.5,16-0.5,24"/>
<path id="XMLID_391_" class="st0" d="M159,163.7c0.8,0.8,1.3,2,1.6,3.1"/>
<path id="XMLID_390_" class="st0" d="M156.4,233.6c-0.5-0.9,0.6-0.7,1.6-0.5"/>
<path id="XMLID_389_" class="st0" d="M174.6,265.4c1-0.8,2-1.3,3.1-1.6"/>
<path id="XMLID_388_" class="st0" d="M166.8,250.8c1.2-0.5,2.5-1,3.6-1.6"/>
<path id="XMLID_387_" class="st0" d="M296.1,162.1c0,0.8-0.4,1.3-1,1.6"/>
<path id="XMLID_386_" class="st0" d="M310.2,202.8c0.1-0.6,0.5-0.7,1-0.5"/>
<path id="XMLID_385_" class="st0" d="M324.3,278.9c0.8-0.1,1.5,0,2.1,0.5"/>
<line id="XMLID_384_" class="st0" x1="357.5" y1="237" x2="357.5" y2="236"/>
<path id="XMLID_383_" class="st0" d="M230.4,327.4c0,0-0.1,1.1-0.5,2.1"/>
<path id="XMLID_382_" class="st0" d="M203.3,330.5c-0.1-0.6-0.2-1.1-0.5-0.5"/>
<path id="XMLID_381_" class="st1" d="M94.9,416.6c1.3-7.4,7.8-13.5,13.6-17.7"/>
<path id="XMLID_380_" class="st1" d="M69.9,373.3c5.9-7.3,15.3-11.9,20.3-19.8"/>
<path id="XMLID_379_" class="st1" d="M371.2,354c3.2,7.7,18.9,20.7,27.6,13.6"/>
<path id="XMLID_378_" class="st1" d="M412.4,220c-7-2.1-17.3-2-24.5-0.5"/>
<path id="XMLID_377_" class="st0" d="M349.3,120.4c-8.9,7.7-19.6,12.3-30.2,17.2c-18.5,8.5-35.7,20.2-46.9,37.5"/>
<path id="XMLID_376_" class="st0" d="M219,79.2c-11,9.9-12.5,27.9-12.5,41.7"/>
<path id="XMLID_375_" class="st0" d="M56.8,233c3.6-0.9,11.4,3,15.4,4.2c12.4,3.7,26.4,7.1,38.3,0"/>
<path id="XMLID_374_" class="st0" d="M218.4,332.6c-0.6,0.1-0.7,0.5-0.5,1"/>
<path id="XMLID_373_" class="st0" d="M197.1,305c-4.5,23.5-8.3,50.8-26.1,68.3"/>
<path id="XMLID_372_" class="st0" d="M423.9,219.5c-3.2,2.2-0.7,7.8,3.1,6.3c4.4-1.8-0.6-11.7-3.1-6.8"/>
<path id="XMLID_371_" class="st1" d="M391,176.7c-6.1,2.5-3.4,11.9,3.5,9.3c8.1-2.9,4.1-23.4-2-15.1"/>
<path id="XMLID_370_" class="st0" d="M364.9,120.4c-6.7-1.1-17.8,9.5-13.1,16.1C358.3,145.5,371.8,129.1,364.9,120.4z"/>
<path id="XMLID_369_" class="st0" d="M302.9,93.3c-8.8,2.9-6.4,19.2,2.5,14.5c3.4-1.8,4.8-11.4,2.9-14.5
	C306.6,90.6,303.8,89.4,302.9,93.3"/>
<path id="XMLID_368_" class="st0" d="M311.2,78.2c0.1-3.7,5-6,7.7-7.9c9.6-6.5,20.3-11,29.8-17.6"/>
<path id="XMLID_367_" class="st0" d="M217.9,81.3c-4.2,6.7-2.3,18.4-0.5,25.5"/>
<path id="XMLID_366_" class="st0" d="M199.2,110c-7.2,7.1-2.6,24.8,0,32.8"/>
<path id="XMLID_365_" class="st1" d="M129.3,81.8c-1.5,6.2,0.9,13.2,3.6,18.8"/>
<path id="XMLID_364_" class="st1" d="M44.8,124.6c-7.4-7.6,14.7-14.9,18.3-16.2c11.5-4.3,24.8-6.5,36.3-0.9
	c9.9,4.8,17.3,13.9,25.2,21.3"/>
<path id="XMLID_363_" class="st0" d="M137.1,141.3c-9.1,9.1-15.9,18.5-20.3,30.8"/>
<path id="XMLID_362_" class="st1" d="M95.4,140.8C92,140,84,138.5,82.3,135c-2.8-5.6,7.8-7.9,12.1-8.3c26.6-2.4-3.8,37.6,12.5,47.4"
	/>
<path id="XMLID_361_" class="st1" d="M121,220.5c-8.9,0.7-47.9-1.8-42-15.9c1.5-3.6,10.7-9.9,14.9-8c3.1,1.4,3.6,5-0.5,5.2"/>
<path id="XMLID_360_" class="st0" d="M76.6,245c4.6-0.1,8.8,2.1,13,3.6"/>
<path id="XMLID_359_" class="st0" d="M93.3,227.3c2.2-0.9,4.5-1.6,6.8-2.1"/>
<path id="XMLID_358_" class="st0" d="M133.5,216.4c8.8,0.4,17.6-2.7,26.6-2.6"/>
<path id="XMLID_357_" class="st0" d="M131.9,274.7c4.3-4.2,9.5-8.2,15.1-10.9"/>
<path id="XMLID_356_" class="st0" d="M137.6,254.9c1.1-0.6,2.4-1.1,3.6-1.6"/>
<path id="XMLID_355_" class="st0" d="M127.7,237.7c0.9-0.3,1.7-0.4,2.6-0.5"/>
<path id="XMLID_354_" class="st0" d="M319.6,193.9c1.5-1,3.1-1.8,4.7-2.6"/>
<path id="XMLID_353_" class="st0" d="M325.3,180.4c1.6-0.7,3.1-1.3,4.7-2.1"/>
<path id="XMLID_352_" class="st0" d="M334.7,268c1.9,0.7,3.7,1,5.7,1"/>
<path id="XMLID_351_" class="st0" d="M331.6,284.7c1.1,1,2.6,2,3.6,2.6"/>
<path id="XMLID_350_" class="st0" d="M305,296.1c0,2,0.9,3.6,2.6,4.7"/>
<path id="XMLID_349_" class="st1" d="M232,372.2c0,4.8-0.5,10.6,1,15.1"/>
<path id="XMLID_348_" class="st0" d="M242.9,394.7c-0.4,2.4-0.6,4.9-1,7.3"/>
<path id="XMLID_347_" class="st1" d="M237.2,423.3c-3.4,5.7-7.2,9-12.5,13"/>
<path id="XMLID_346_" class="st0" d="M244,322.2c-0.1,4.7,1.1,9,2.1,13.6"/>
<line id="XMLID_345_" class="st0" x1="245.5" y1="348" x2="245.5" y2="350"/>
<path id="XMLID_344_" class="st0" d="M276.8,302.9c7.2,10.6,13.5,21.8,22.3,31.8c8.7,9.8,18.3,22.9,19.9,36.5"/>
<path id="XMLID_343_" class="st0" d="M289.3,332.1c2.2,3,4.6,6.3,5.7,9.9"/>
<path id="XMLID_342_" class="st0" d="M301.3,349.3c1,2,2.1,3.8,3.1,5.7"/>
<path id="XMLID_341_" class="st0" d="M317.5,342.5c-0.4,1.8-0.2,3.7,0.5,5.2"/>
<path id="XMLID_340_" class="st0" d="M323.2,361.8c0.4,1.9,0.6,3.8,0.5,5.7"/>
<path id="XMLID_339_" class="st0" d="M193.9,359.2c-1.2,1.1-1.9,2.5-2.1,4.2"/>
<path id="XMLID_338_" class="st0" d="M188.2,368.6c-2,3.3-2.3,7.2-5.2,9.9"/>
<path id="XMLID_337_" class="st0" d="M176.7,347.2c-1.7,2.1-2.2,4.8-2.6,7.3"/>
<path id="XMLID_336_" class="st0" d="M178.8,302.9c-0.9,1.7-1.6,3.4-2.1,5.2"/>
<path id="XMLID_335_" class="st0" d="M172.6,320.1c-0.3,1.1-0.7,2.1-1,3.1"/>
<path id="XMLID_334_" class="st0" d="M229.4,296.6c-2.1,2.3-2.2,5.4-2.6,8.3"/>
<path id="XMLID_333_" class="st0" d="M211.1,325.8c-2.1,2.3-1.6,9.1-1.6,13"/>
<path id="XMLID_332_" class="st0" d="M229.4,349.3c0.2,1.8,0,3.5-0.5,5.2"/>
<path id="XMLID_331_" class="st1" d="M116.3,394.1c1.1-3.1,3.9-7.2,6.8-8.9"/>
<path id="XMLID_330_" class="st1" d="M86.5,425.9c-1.2-1.9-1.3-4.1-0.5-6.3"/>
<path id="XMLID_329_" class="st0" d="M106.4,411.9c0.3-1.9,1.2-3.5,2.6-4.7"/>
<path id="XMLID_328_" class="st1" d="M36.5,380.6c-0.5-0.1,0-0.9-1-0.5c-1.9,12.3,16.3,9.5,23.4,6.7"/>
<path id="XMLID_327_" class="st0" d="M146.5,283.1c0.5-0.2,0.9-0.6,1-1"/>
<line id="XMLID_326_" class="st0" x1="160" y1="276.5" x2="161" y2="276.5"/>
<line id="XMLID_325_" class="st0" x1="240.1" y1="169" x2="240.1" y2="169"/>
<path id="XMLID_324_" class="st0" d="M251.8,149.6c-0.4,0-0.8,0.2-1,0.5"/>
<path id="XMLID_323_" class="st0" d="M252.3,121.5c-2.1,0.1-3,9.5-4.7,12"/>
<path id="XMLID_322_" class="st0" d="M138.2,141.8c0.8,2,1.6,3.9,3.1,5.2"/>
<path id="XMLID_321_" class="st0" d="M164.7,131.9c-10,4-21.1,3.4-20.3,16.2"/>
<path id="XMLID_320_" class="st0" d="M114.2,257.5c2.1,0,4.2-0.4,6.3-1"/>
<line id="XMLID_319_" class="st0" x1="160" y1="253.5" x2="159" y2="253.5"/>
<path id="XMLID_318_" class="st0" d="M147,236.2c-0.8,0-1.4,0.1-2.1,0.5"/>
<path id="XMLID_317_" class="st0" d="M152.8,186.6c-0.9,0-1.4,0.6-1.6,1.6"/>
<line id="XMLID_316_" class="st0" x1="236" y1="143.5" x2="238" y2="143.5"/>
<path id="XMLID_315_" class="st0" d="M258.1,143.4c0.5-0.3,1.1,0.3,1.6,1"/>
<path id="XMLID_314_" class="st0" d="M282,120.4c3.7-1.5,8.8,7,9.4,10.4"/>
<path id="XMLID_313_" class="st0" d="M342,137.1c-14.9,8.7-33.1,12.4-45.4,25"/>
<path id="XMLID_312_" class="st0" d="M353.5,187.2c-12.2,5.7-25.3,8.2-37.5,13.6"/>
<path id="XMLID_311_" class="st0" d="M348.8,200.2c-2.4,0.2-5,1.3-7.3,2.1"/>
<path id="XMLID_310_" class="st0" d="M330.5,165.3c-6.3,1.3-11.5,3.4-16.7,7.3"/>
<path id="XMLID_309_" class="st0" d="M343.6,261.2c1,0.1,1.9,0.7,2.6,1.6"/>
<path id="XMLID_308_" class="st0" d="M337.8,281c0.7,0.7,1.4,1.4,2.1,2.1"/>
<path id="XMLID_307_" class="st0" d="M276.3,261.2c2.4,0.6,3.9,3,5.7,4.7"/>
<path id="XMLID_306_" class="st0" d="M288.8,254.9c1.5,1.3,2.9,2.7,4.2,4.2"/>
<path id="XMLID_305_" class="st0" d="M265.9,177.3c-1.4,3.6-3.4,7.3-6.3,9.9"/>
<path id="XMLID_304_" class="st0" d="M235.6,177.8c-0.5,3.7-1.3,7.3-2.1,10.9"/>
<path id="XMLID_303_" class="st0" d="M215.3,177.8c-0.9,3.2-0.2,6.2,0,9.4"/>
<path id="XMLID_302_" class="st0" d="M171,199.1c2.5,1.3,4.5,4.2,5.7,6.8"/>
<path id="XMLID_301_" class="st0" d="M165.3,231c2.9-1.9,5.4-3.1,8.9-2.6"/>
<path id="XMLID_300_" class="st0" d="M176.7,248.2c1.4-1.1,3.1-1.7,4.7-1.6"/>
<path id="XMLID_299_" class="st0" d="M181.9,262.8c1.3-0.4,2.5-0.9,3.6-1.6"/>
<path id="XMLID_298_" class="st0" d="M205.9,273.2c-2.8,1.7-2.9,5.9-4.2,8.9"/>
<path id="XMLID_297_" class="st0" d="M219,275.8c0.4,5-2.3,8.8-2.6,13.6"/>
<path id="XMLID_296_" class="st0" d="M248.2,278.9c0.5,3.4,1.6,7,1.6,10.4"/>
<path id="XMLID_295_" class="st0" d="M266.9,260.1c-0.3,7.4,2.9,15.6,7.3,21.4"/>
<path id="XMLID_294_" class="st0" d="M279.4,257.5c0.9,2.7,2.7,5.6,4.7,7.8"/>
<path id="XMLID_293_" class="st0" d="M283.6,249.2c3.1,0.2,5.3,2.8,6.8,5.2"/>
<path id="XMLID_292_" class="st0" d="M293.5,248.7c5-0.3,12.4,0.5,16.2,4.2"/>
<path id="XMLID_291_" class="st0" d="M292.5,235.1c4-1.2,8-0.9,12-2.1"/>
<path id="XMLID_290_" class="st0" d="M294,214.8c3.8-0.2,7.1-2.9,9.9-5.2"/>
<path id="XMLID_289_" class="st0" d="M279.4,196.5c3.5-2.6,7.2-4.5,10.9-6.8"/>
<path id="XMLID_288_" class="st0" d="M240.3,189.2c0.8-3.6,1-7.4,2.1-10.9"/>
<path id="XMLID_287_" class="st0" d="M219,185.6c-2.3-9.6,2.9-23.4-8.9-28.7"/>
<path id="XMLID_286_" class="st0" d="M165.8,199.7c2.8,1.2,5,3.5,7.8,4.7"/>
<path id="XMLID_285_" class="st0" d="M167.4,210.1c1.9,0.7,3.5,2,4.7,3.6"/>
<path id="XMLID_284_" class="st0" d="M164.2,232.5c2.5-0.4,4.8-1.2,7.3-1"/>
<path id="XMLID_283_" class="st0" d="M170.5,241.9c1.1-0.6,2.4-1,3.6-1"/>
<path id="XMLID_282_" class="st0" d="M176.2,251.8c2-2,5-2.9,7.8-3.1"/>
<path id="XMLID_281_" class="st1" d="M88.1,273.7c0.8-5.1-4.4-4.1-6.2-0.8c-4.8,9.3,15.8,3.4,19.7,2.3"/>
<path id="XMLID_280_" class="st1" d="M385.8,293c4.8,1.4,14,1.3,12.5,8.8c-4.6,0.6-9.5-1-13.5-3"/>
<path id="XMLID_279_" class="st0" d="M315.4,398.8c-3.7,12.1,11.3,18.6,18.6,7.9c6-9-1.6-15.3-10.8-14.7
	c-9.4,0.6-13.4,8.6-15.1,17.3"/>
<path id="XMLID_278_" class="st0" d="M125.1,399.9c-3.8,5.4,2.3,16.3,7,10c4-5.4-7.8-15-8.6-4.7"/>
<path id="XMLID_277_" class="st0" d="M105.8,359.2c-8.3-3.6-20.1,5.8-15.2,15c3.5,6.5,12.1,3.1,12.7-3.5c0.4-5-5.4-13-10.5-8.4"/>
<path id="XMLID_276_" class="st1" d="M60,337.8c-8.6,3.5-2.3,16.2,2.9,10.9c3.6-3.7-3-16-6.6-12"/>
<path id="XMLID_275_" class="st0" d="M118.3,300.8c-3.5-0.4-3.6,4.9-0.8,4.7c3-0.2,3.3-5.7,0.2-6.3c-0.4,0.4-0.6,0.9-0.5,1.5"/>
<path id="XMLID_274_" class="st0" d="M85,163.7c-5.2,1.5-10.4,3.6-13.6,8.3c-3.6,5.3-1.5,9.3,5.3,8.4c6-0.8,11.8-8.2,9.1-14.4
	C84.3,162.8,78.7,159.9,85,163.7z"/>
<path id="XMLID_273_" class="st0" d="M162.1,117.3c-5.5,1.9-1.7,12,2.7,8.7c2.6-2-1.4-10.6-3.7-6.6"/>
<path id="XMLID_272_" class="st0" d="M194.5,90.2c-5.9,9.1,8.5,13.4,14,6.3c8.9-11.4-12-19.9-16.7-7.4"/>
<path id="XMLID_271_" class="st0" d="M242.9,108.4c-3.9-0.8-7,3.6-3.2,6c4.6,2.8,8.3-5,5.8-8.1"/>
<path id="XMLID_270_" class="st0" d="M40.1,103.2c-2.5,5.2,5.2,10.8,9.3,7c4-3.8-1.5-13.4-6.2-8"/>
<path id="XMLID_269_" class="st1" d="M321.7,14.6c-3.3,1.3-8.3,5.6-8.3,9.4c0,5.6,8.2,7.7,12,4.1"/>
<path id="XMLID_268_" class="st1" d="M327.9,24c-0.1-3.4,1.3-10.1-3.6-10.4"/>
<path id="XMLID_267_" class="st0" d="M301.3,36.5c-6,1.2-5,13.5,2.5,11.6c7.7-2,2.1-14.4-1-10.5"/>
<path id="XMLID_266_" class="st1" d="M311.8,116.8c1.6-2.2,3.8-3.8,5.7-5.8c4.5-4.8,6.8-10.9,9.7-16.7c2.6-5,10.3-17.7,13.2-5.7
	c-3.4-0.1-6.7,0.1-9.4,2.7"/>
<path id="XMLID_265_" class="st1" d="M352,166.7c9.8-3.1,31.9-9.5,33.3-22.1c1.2-10.5-13.4-4.5-13.4,3.3c1.1,0.3,2,0.1,3-0.4"/>
<path id="XMLID_264_" class="st0" d="M328.4,149.6c0.8-0.9,1.9-1.5,3.1-1.6"/>
<path id="XMLID_263_" class="st0" d="M287.3,164.7c-0.9,0.2-1.5,1-1.6,2.1C286.2,167.9,286.7,163.7,287.3,164.7z"/>
<path id="XMLID_262_" class="st0" d="M297.2,166.3c2.1-2.2,4.2-4.2,6.8-5.7"/>
<path id="XMLID_261_" class="st0" d="M312.3,155.9c2-1,4.1-1.9,6.3-2.6"/>
<path id="XMLID_260_" class="st0" d="M309.2,146c2.3-1.4,4.2-2.7,6.8-3.1"/>
<path id="XMLID_259_" class="st0" d="M329,136.6c1.3-0.9,2.7-1.6,4.2-2.1"/>
<path id="XMLID_258_" class="st0" d="M137.1,138.2c2.2-0.4,4,0.7,5.2,2.6"/>
<path id="XMLID_257_" class="st0" d="M123.6,147c1.5,0.3,3.8,1.5,4.7,2.6"/>
<path id="XMLID_256_" class="st0" d="M119.9,155.9c1.8-0.4,3.3-0.2,3.6,1"/>
<path id="XMLID_255_" class="st1" d="M110.5,159.5c5.8-1.9,6.2-0.3,8.9,4.7"/>
<path id="XMLID_254_" class="st0" d="M125.6,222.1c0.1-2.3,5.2-0.6,7.3,0.5"/>
<path id="XMLID_253_" class="st0" d="M138.7,216.9c2.5,0.7,5.1,1.1,7.3,2.6"/>
<path id="XMLID_252_" class="st0" d="M153.8,217.4c0.8,2.3,3.2,3.1,5.2,4.7"/>
<line id="XMLID_251_" class="st0" x1="254.5" y1="299" x2="254.5" y2="304"/>
<path id="XMLID_250_" class="st0" d="M225.2,361.8c0.7-4.6,2.6-9.7,4.5-13.9c1.6,3.6,2.3,8.8,6.1,10.8c8.1,4.2,25.9-2.1,33.1-5.2"/>
<path id="XMLID_249_" class="st0" d="M343.6,341c4.4,2.7,10.9,6.2,14.6,9.9"/>
<path id="XMLID_248_" class="st1" d="M429.6,372.2c3.9,7.9-16.8,4-19.3,1"/>
<path id="XMLID_247_" class="st0" d="M404.6,364.9c1.4,0.1,2.6,0.6,3.6,1.6"/>
<path id="XMLID_246_" class="st0" d="M389.4,358.2c0.4,0.5,0.7,1,1,1.6"/>
<path id="XMLID_245_" class="st0" d="M380.1,351.9c0.7,2.3,2.9,3.8,5.2,4.7"/>
<path id="XMLID_244_" class="st1" d="M436.9,355c3.4,1.1,3.5,7.1,3.6,10.4"/>
<path id="XMLID_243_" class="st0" d="M413.4,362.9c0.6,0.9,1.5,1.3,2.6,1"/>
<path id="XMLID_242_" class="st0" d="M358.2,343c1.3,2.7,4.1,5,6.8,6.3"/>
<path id="XMLID_241_" class="st1" d="M332.7,334.1c13.6,8.8,47.5,27.3,60.5,8.4c8.7-12.7-18.1-17.9-18.7-7.3"/>
<path id="XMLID_240_" class="st1" d="M388.4,339.9c-1.5,0.4-4.6,0.3-5.7,1c-5.5,3.8-11.6-2.4-16.7-4.2"/>
<path id="XMLID_239_" class="st0" d="M409.3,344.6c-4.1,4.4,4.5,7.7,6.5,2.1c2-5.4-5.2-8-8.1-3.7"/>
<path id="XMLID_238_" class="st0" d="M400.1,390.7c3.8-2.6,6.6-7.2,4-11.7c-2.8-4.6-12.5-6.2-17.3-6.2c-3.7,0-8.3,1.2-9.4,5.3
	C373.9,391,390.7,397.2,400.1,390.7z"/>
<path id="XMLID_237_" class="st0" d="M343.6,364.4c0.5,2.9,0.3,16.2,6.1,15.2c6.9-1.2-2.5-19-6.6-20.4
	C343,361.3,343.2,362.4,343.6,364.4z"/>
<path id="XMLID_236_" class="st1" d="M401,271.5c7.7,5.5,17.2,8.1,24.1,15.1C418.1,292,398.5,279.8,401,271.5z"/>
<path id="XMLID_235_" class="st1" d="M86.5,294c-5.3,1.6-32.4,1.3-30.8,10.2c0.8,4.4,10.4,1.9,12.3,0.5c5-3.6,5.2-18.2,12.2-17.5"/>
<path id="XMLID_234_" class="st0" d="M231.5,59.4c0.5-6-2.9-12.7-9.3-13.6c-4.2-0.6-19.5,6.8-11.7,10.9c-2.4-2.2-10.3-2.6-13.1-1
	c-4.3,2.4-4.5,11.2,1.1,12c-4.4,0.9-8,2.7-11.3,5.7c-8,7.3-3.5,12.7,3.6,19.4"/>
<path id="XMLID_233_" class="st0" d="M231,62.6c-1-6.4,9.1-4,11.2-0.3c4.1,7.1,0.1,11.8-5.5,14.8c3.9,1.3,10.3,0.9,12.4,5.3
	c1.5,3.1-0.4,5-0.9,7.7c3.7,0.4,5.7,4.5,4.1,7.8c-3.3,7.1-23.3,5.4-27.7,0.7"/>
<path id="XMLID_232_" class="st0" d="M219,70.9c-8.3-1.2-18.1,11-7.5,15.1c4.7,1.8,10.9,2.5,12.6-2.7c1.2-3.6-1.1-13.2-5.2-14"/>
<path id="XMLID_231_" class="st0" d="M222.1,62.6c-1.1-1.2,9.3-5.9,12.4-4.8c5.8,2.1,3.1,10.1,0.1,13.6"/>
<path id="XMLID_230_" class="st0" d="M380.1,107.9c-11.4,0.6,0,14.7,0.4,8.4c-6.3,5.9,14.6,12,12,4.6c5.1,5.1,8-5.5,7.9-9.1
	c-0.1-3-0.3-6.4-3.4-7.7c-2.2-0.9-3.2-0.5-3.4,1.6c3.3,0.3,4.5-3,3.4-5.9c-1.3-3.7-9.8-8.1-13.1-8.9
	C370.3,87.9,366.5,109.5,380.1,107.9z"/>
<path id="XMLID_229_" class="st0" d="M381.1,103.7c-6.7,3.4-2.9,14.6,6.3,10.4c12.1-5.5-0.7-17.7-3.7-10.4"/>
<path id="XMLID_228_" class="st1" d="M393.7,103.7c2.8-9,17.6-18.3,26.3-20.1c2.8-0.6,12.2-2.3,12.8,2.4c0.4,3.1-7.2,5.3-9.4,6.3"/>
<path id="XMLID_227_" class="st1" d="M377.5,118.9c-4.3,4.8-5.3,13.3-8,19c-4.2,8.7-13.8,20.5-24.3,20.7"/>
<path id="XMLID_226_" class="st1" d="M381.7,152.7c6.1-10.1,51.2-18.7,52.2-4.6c1.1,16.6-17.4,5.8-24.4,1.9c0.6,0,1.3,0,1.9,0"/>
<path id="XMLID_225_" class="st1" d="M397.9,95.3c0-2.7,3.1-7,2.7-11.1c-0.6-5.8-7-15.8-12.6-17.9c-8.5-3.1-19.8,8.4-6.7,8.1"/>
<path id="XMLID_224_" class="st1" d="M262.2,115.7c1.7-3.2,3.5-8.5,4.1-12.5c1.1-7.4,2.3-23.5-2.8-29.3c-8.3-9.4-10.5,9.6-4.9,9.5"
	/>
<path id="XMLID_223_" class="st1" d="M161.1,119.4c-7.2-7.1-11.9-24.9-3.7-32.8c1.4-1.4,9.2-6.2,9.4-2.2c0.2,3.2-3.7,2.9-5.2,4.2"/>
<path id="XMLID_222_" class="st1" d="M75.6,147c-9-5.9-31.2,10.6-12,13.6"/>
<path id="XMLID_221_" class="st1" d="M73,119.4c2.8-1.4,6.5-1.4,9.4-0.5"/>
<path id="XMLID_220_" class="st0" d="M99.1,118.9c1.6,0.9,3,2.2,4.2,3.6"/>
<path id="XMLID_219_" class="st0" d="M116.3,111.6c3.4,0.9,5.7,3.2,8.3,5.2"/>
<path id="XMLID_218_" class="st1" d="M116.8,138.2c1.6-0.2,2.6,0.5,2.6,2.1"/>
<path id="XMLID_217_" class="st0" d="M78.2,229.4c-1.4,0.4,5.1,1.4,6.8,2.1"/>
<line id="XMLID_216_" class="st0" x1="114" y1="248.5" x2="119" y2="248.5"/>
<path id="XMLID_215_" class="st0" d="M100.1,351.4c-1.2,0.2-2.4,0.3-3.6,0.5"/>
<path id="XMLID_214_" class="st0" d="M103.2,333.7c0.4,1.2,1.1,2.3,2.1,3.1"/>
<line id="XMLID_213_" class="st0" x1="55" y1="379.5" x2="63" y2="379.5"/>
<path id="XMLID_212_" class="st0" d="M47.4,391c1.3,0.2,2.5,0,3.6-0.5"/>
<path id="XMLID_211_" class="st0" d="M91.8,422.3c-0.5,1.7-0.6,3.4-0.5,5.2"/>
<line id="XMLID_210_" class="st0" x1="82.5" y1="436" x2="82.5" y2="438"/>
<path id="XMLID_209_" class="st0" d="M319.1,301.9c0.5,1.5,1.4,2.7,2.6,3.6"/>
<path id="XMLID_208_" class="st0" d="M289.9,293.5c0.3,0.3,0.7,0.7,1,1"/>
<path id="XMLID_207_" class="st0" d="M285.7,283.1c0.4,1,1.1,1.7,2.1,2.1"/>
<path id="XMLID_206_" class="st0" d="M297.7,269c1,1,2.1,2.1,3.1,3.1"/>
<path id="XMLID_205_" class="st0" d="M302.4,266.9c1.1,0.6,2.4,1.1,3.6,1.6"/>
<path id="XMLID_204_" class="st0" d="M323.2,259.1c0.8,0.6,1.7,1.2,2.6,1.6"/>
<line id="XMLID_203_" class="st0" x1="326.6" y1="235.5" x2="326.6" y2="235.5"/>
<path id="XMLID_202_" class="st0" d="M318,214.3c0.2-0.2,0.3-0.3,0.5-0.5"/>
<path id="XMLID_201_" class="st0" d="M303.4,201.8c0.1-0.5,0.5-0.8,1-1"/>
<line id="XMLID_200_" class="st0" x1="289" y1="201.5" x2="291" y2="201.5"/>
<path id="XMLID_199_" class="st0" d="M294.6,197.6c0.2-0.3,0.3-0.7,0.5-1"/>
<path id="XMLID_198_" class="st0" d="M291.4,184.6c-0.2,0.2-0.3,0.3-0.5,0.5"/>
<path id="XMLID_197_" class="st0" d="M236.7,167.3c1.4,0.9,1.7,1.8,0.5,2.6"/>
<path id="XMLID_196_" class="st0" d="M240.9,171c-0.3,1.3-0.5,2.8-0.5,4.2"/>
<line id="XMLID_195_" class="st0" x1="237.1" y1="176" x2="237.1" y2="176"/>
<path id="XMLID_194_" class="st0" d="M219,166.8c0.2,1.3,0,2.5-0.5,3.6"/>
<path id="XMLID_193_" class="st0" d="M214.3,170.5c-0.2,1.9-1.1,3.6-2.6,4.7"/>
<path id="XMLID_192_" class="st0" d="M180.9,181.4c1.3,1.5,2.3,3.4,3.1,5.2"/>
<path id="XMLID_191_" class="st0" d="M173.6,188.2c0.2,2.7-0.2,5.5-1.6,7.8"/>
<path id="XMLID_190_" class="st0" d="M164.2,200.7c-0.8-1.2-0.9-2.4,0-3.6C163.7,197.8,164.7,200,164.2,200.7z"/>
<path id="XMLID_189_" class="st0" d="M170,201.8c0.3-0.5,0.7-1,1-1.6"/>
<path id="XMLID_188_" class="st0" d="M216.4,303.4c-0.5-0.4-0.4-1.4-1.1-0.5c0,1.2-0.1,2.5,0.1,3.6"/>
<path id="XMLID_187_" class="st0" d="M216.4,286.2c0.2,1.5,0,2.9-0.5,4.2"/>
<path id="XMLID_186_" class="st0" d="M220,286.2c-0.6,0.8-1.1,1.7-1.6,2.6"/>
<path id="XMLID_185_" class="st0" d="M183.5,265.4c-1.5,1.7-2.7,3.2-2.6,5.2"/>
<path id="XMLID_184_" class="st0" d="M187.7,273.7c-2.2,1-3.2,3.5-3.6,5.7"/>
<path id="XMLID_183_" class="st0" d="M191.9,278.4c-0.3-0.8-0.9-1.1-1.6-0.9c-0.4,0.7-1.2,1.3-1.5,2"/>
<path id="XMLID_182_" class="st0" d="M179.3,262.2c-3.2,0.9-6.2,2.4-9.4,3.1"/>
<path id="XMLID_181_" class="st0" d="M164.2,269.5c-1,0.2-2.1,0.3-3.1,0.5"/>
<path id="XMLID_180_" class="st0" d="M166.8,247.6c-2.4,1.1-4.2,2.1-6.8,2.1"/>
<path id="XMLID_179_" class="st0" d="M161.1,223.1c-0.7,0.9-1.4,1.7-2.1,2.6"/>
<path id="XMLID_178_" class="st0" d="M165.8,225.7c-4.4-0.5-10.4,2.9-14.6,4.2"/>
<path id="XMLID_177_" class="st0" d="M295.1,245.5c-0.6-0.5-0.6-0.9,0-1.1c2.7-0.1,5.1,0.9,7.8,1.1"/>
<path id="XMLID_176_" class="st0" d="M299.3,231c-0.9-0.4-1.1-0.8-0.5-1.1c1.2,0.1,2.5-0.1,3.7,0.1"/>
<path id="XMLID_175_" class="st0" d="M293,211.1c0.4-1.8,1.5-2.9,3.1-3.1"/>
<path id="XMLID_174_" class="st0" d="M287.3,194.5c0.2-1.6,1-3.1,2.1-4.2"/>
<path id="XMLID_173_" class="st0" d="M285.2,186.1c0.9-1.1,1.6-2.3,2.1-3.6"/>
<path id="XMLID_172_" class="st0" d="M275.8,180.4c0.1-2.2,1.2-3.9,3.1-4.7"/>
<path id="XMLID_171_" class="st0" d="M282.6,163.2c0.7-2.4,2-4.5,4.2-5.7"/>
<path id="XMLID_170_" class="st0" d="M281,167.9c1.6-2.9,4.7-6.9,8.3-6.8"/>
<path id="XMLID_169_" class="st0" d="M289.3,167.9c-3.9,3.1-8,6.3-11.5,9.9C281,173.7,285.1,170.5,289.3,167.9z"/>
<path id="XMLID_168_" class="st0" d="M293,163.7c-2.8,3.5-6.2,6.6-7.8,10.9"/>
<path id="XMLID_167_" class="st0" d="M286.7,162.7c1.5-2,3.1-3.9,4.7-5.7"/>
<path id="XMLID_166_" class="st0" d="M286.7,151.2c1.7-0.8,3.3-1.9,4.7-3.1"/>
<path id="XMLID_165_" class="st0" d="M292,173.6c1.4-1.4,2.8-2.8,4.2-4.2"/>
<path id="XMLID_164_" class="st0" d="M295.1,160.6c1.2-2.2,3.4-4.1,5.2-5.7"/>
<path id="XMLID_163_" class="st0" d="M277.9,184.6c3.5-4.6,7.2-8.1,11.5-12"/>
<path id="XMLID_162_" class="st0" d="M201.2,126.2c-0.7,4.4-3.6,8.1-3.6,12.5c0,6.2-0.5,12.6,0.5,18.8"/>
<path id="XMLID_161_" class="st0" d="M195.5,126.7c-1,5.5-0.7,11.1-1.6,16.7"/>
<path id="XMLID_160_" class="st0" d="M213.8,112.1c0.3,1.9,0.1,3.9-0.5,5.7"/>
<path id="XMLID_159_" class="st0" d="M222.1,106.9c0,3.2,0.4,6.4-1,9.4"/>
<line id="XMLID_158_" class="st0" x1="227.5" y1="106" x2="227.5" y2="112"/>
<path id="XMLID_157_" class="st0" d="M102.2,221c5.8-1.9,14.2-1.8,20.3-1.6"/>
<path id="XMLID_139_" class="st0" d="M85.5,225.7c4.1,2.4,7.1,6.9,11.5,9.4"/>
<path id="XMLID_138_" class="st0" d="M69.9,229.9c2.5,1.5,4.7,3.4,7.3,4.7"/>
<path id="XMLID_137_" class="st0" d="M95.9,245c1.9-0.5,4.1-0.6,6.3-1"/>
<path id="XMLID_136_" class="st0" d="M95.9,249.2c2.2-0.6,4.5-0.7,6.8-0.5"/>
<path id="XMLID_135_" class="st0" d="M99.1,251.8c1.7-0.4,3.4-0.5,5.2-0.5"/>
<path id="XMLID_134_" class="st0" d="M108.4,225.7c1.8-1,7.8,1.6,10.9,1.6"/>
<path id="XMLID_133_" class="st0" d="M186.6,289.3c-2.9,5.1-5.6,10.3-8.3,15.6"/>
<path id="XMLID_132_" class="st0" d="M186.1,300.8c-3.7,3.3-7.4,8.2-9.9,12.5"/>
<path id="XMLID_131_" class="st0" d="M185.6,311.8c-4.7,3.8-9.7,9.5-12,15.1"/>
<path id="XMLID_130_" class="st0" d="M184,322.7c-2.8,4.5-6.7,10.5-11.5,13"/>
<path id="XMLID_129_" class="st0" d="M183,341c-1.9,3.7-3,7.9-5.2,11.5"/>
<path id="XMLID_128_" class="st0" d="M190.8,351.4c-0.1,3.3-1.6,6.3-2.6,9.4"/>
<path id="XMLID_127_" class="st0" d="M196,354.5c0.3,2.3-0.3,4.7-1,6.8"/>
<path id="XMLID_126_" class="st0" d="M202.8,358.7c-0.1,1.8-0.7,3.6-1.6,5.2"/>
<path id="XMLID_125_" class="st0" d="M228.9,356.6c0.4,4.9-1.6,9.8-2.1,14.6"/>
<path id="XMLID_124_" class="st0" d="M234.6,357.6c1.1,4.2,1.2,9.8,1,14.1"/>
<path id="XMLID_123_" class="st0" d="M246.6,360.8c0,4.2-0.3,8.5,1,12.5"/>
<path id="XMLID_119_" class="st0" d="M257,357.6c-0.1,2,0.1,3.8,0.5,5.7"/>
<path id="XMLID_118_" class="st0" d="M262.2,357.6c1.9,1.6,1.9,3.9,2.6,6.3"/>
<path id="XMLID_117_" class="st0" d="M261.2,287.3c4.8,10.5,7.5,22.9,15.1,31.8"/>
<path id="XMLID_115_" class="st0" d="M265.4,287.8c1.9,11,8.5,20.8,14.1,30.2"/>
<path id="XMLID_114_" class="st0" d="M269.5,290.4c-0.6,10,11.3,16.1,13.6,25"/>
<path id="XMLID_113_" class="st0" d="M277.9,320.6c3.8,2.4,4.8,7.7,6.8,11.5"/>
<path id="XMLID_112_" class="st0" d="M283.6,319.6c2.2,4.6,4.6,8.7,7.3,13"/>
<path id="XMLID_111_" class="st0" d="M297.2,326.4c2.5,3.6,4.6,7.2,6.8,10.9"/>
<path id="XMLID_110_" class="st0" d="M308.1,330c2.8,2.5,4.9,6,7.3,8.9"/>
<path id="XMLID_109_" class="st0" d="M318.5,331.6c2.6,3.5,4.3,8.8,8.3,10.9"/>
<path id="XMLID_108_" class="st0" d="M310.7,234.6c9.4-0.6,19.7,1.5,29.2,1.6"/>
<path id="XMLID_107_" class="st0" d="M326.9,240.3c9.4-0.3,18.8,1.3,28.2,1"/>
<path id="XMLID_106_" class="st0" d="M319.1,238.3c23.1-4,47.1,5.4,70.4,4.7"/>
<path id="XMLID_105_" class="st0" d="M327.4,240.3c4.6-0.5,10.5,3.5,14.6,5.2c5.8,2.3,10.5,2.6,16.6,2.7"/>
<path id="XMLID_104_" class="st0" d="M318.5,234.1c10.2-2.3,22-1.5,31.8-4.7"/>
<path id="XMLID_103_" class="st0" d="M325.8,235.1c10.7-1.8,23.6,2.3,33.9-1"/>
<path id="XMLID_102_" class="st0" d="M305,235.6c9.4,1.9,17.6,6.7,27.1,8.3"/>
<path id="XMLID_101_" class="st0" d="M272.1,182.5c3.9-0.5,7.8-6.6,10.9-8.9c12.3-8.9,28-14,42.8-17.1"/>
<path id="XMLID_100_" class="st0" d="M280.5,179.9c10.8-5.6,22.1-10.8,33.9-14.1"/>
<path id="XMLID_99_" class="st0" d="M278.4,170c6.5-8.3,15.8-14.3,24-20.9"/>
<path id="XMLID_98_" class="st0" d="M285.7,156.9c3.3-6.1,10.9-10.7,16.7-14.1"/>
<path id="XMLID_97_" class="st0" d="M198.6,121.5c-6.7,11.4-5.2,34.7-2.6,46.9"/>
<path id="XMLID_96_" class="st0" d="M200.7,133.5c-1.7,10.1-0.6,21.3,1,31.3"/>
<path id="XMLID_95_" class="st1" d="M106.4,150.1c5.3-0.5,10.4,3.2,15.1,5.2"/>
<path id="XMLID_94_" class="st1" d="M109.5,140.2c4.2,3.5,8.4,6.9,13.6,8.9"/>
<path id="XMLID_93_" class="st1" d="M126.7,125.6c5.7,0,10.9,8.9,14.6,12.5"/>
<path id="XMLID_92_" class="st0" d="M174.6,139.7c5.9,7.6,10.8,16.2,16.7,24"/>
<path id="XMLID_91_" class="st0" d="M140.2,217.4c5.1-0.4,10.1,1.7,15.1,2.1"/>
<path id="XMLID_90_" class="st0" d="M115.2,226.3c10.4-4.9,23.2-3.1,34.4-3.1"/>
<path id="XMLID_89_" class="st0" d="M131.4,221.6c9.6-3.5,17.7-3.4,27.1-0.5c-4.6-0.5-9-2.8-13.6-3.7c-6.6-1.2-13-1-19.7-1"/>
<path id="XMLID_88_" class="st0" d="M191.3,284.7c-4,2.5-4.4,7.3-6,11.2c-2.4,6.1-6,11.8-8.9,17.7c-4.9,9.9-5.4,18.7-5.4,29.5"/>
<path id="XMLID_87_" class="st0" d="M191.9,354.5c-1.6,5.9-5.4,13-10.4,16.7"/>
<path id="XMLID_86_" class="st0" d="M203.8,359.2c0.7,7.1-4.7,12.5-9.4,17.2"/>
<path id="XMLID_85_" class="st1" d="M181.4,289.9c-4.3,4.9-7.1,11.4-10.9,16.8c-7.6,10.7-16.4,19.9-21.7,32.2
	c-4.2,10-6.7,19.4-16.9,24.8c-6.4,3.4-14.2,4.3-21.4,4.3c-0.8-4.4,2.7-7,6.7-6.2"/>
<path id="XMLID_84_" class="st1" d="M184,287.3c-4.5,1.7-6.3,6.8-8.4,10.7c-5.7,10.8-12,21.4-17.2,32.5c-6.1,12.9-4.8,26.6-2.7,40.3
	c1.2,7.5,2.6,15.4,1.7,23c-0.6,5-3.1,8.8-4.7,13.4"/>
<path id="XMLID_83_" class="st1" d="M226.8,357.6c-2,7.8-1,16.5-1,24.5"/>
<path id="XMLID_82_" class="st0" d="M264.3,298.2c1.2,13,9.3,30.7,19.3,39.6"/>
<path id="XMLID_81_" class="st0" d="M270.6,296.6c2.1,9.3,5.5,17.1,11.3,24.7c2.6,3.4,6.3,6.8,8,10.7"/>
<path id="XMLID_80_" class="st0" d="M299.8,331.1c3.1,6.9,11.4,13.8,10.4,21.9"/>
<path id="XMLID_79_" class="st0" d="M313.9,335.7c0.5,6.3,4.9,11,4.7,17.7"/>
<path id="XMLID_78_" class="st0" d="M320.6,335.7c1.5,4.6,4.5,9,4.2,14.1"/>
<path id="XMLID_77_" class="st0" d="M326.9,340.4c2.3,5.9,3.9,15.2,2.1,21.4"/>
<path id="XMLID_76_" class="st0" d="M292,262.2c0.7,0.5,1.4,1,2.1,1.6"/>
<path id="XMLID_75_" class="st0" d="M286.2,271.6c1.1,0.7,1.9,1.8,2.1,3.1"/>
<path id="XMLID_74_" class="st0" d="M278.4,283.1c0.9,0.9,1.2,2,1,3.1"/>
<path id="XMLID_73_" class="st0" d="M219.5,223.7c0.5-0.4-0.3,0.3-0.5,0.5"/>
<path id="XMLID_72_" class="st0" d="M200.7,228.9c0.2,0.4,0.3,0.7,0.5,1"/>
<path id="XMLID_71_" class="st0" d="M213.2,206.4c-0.6,0.1-0.7,0.5-0.5,1"/>
<path id="XMLID_70_" class="st0" d="M202.8,206.4c-0.7,0.9-1.1,2-1,3.1"/>
<path id="XMLID_69_" class="st0" d="M187.2,211.7c0.5,0.6,0.8,1.3,1,2.1"/>
<path id="XMLID_68_" class="st0" d="M193.4,241.9c-0.6,2.7,0.3,5.3,2.1,7.3"/>
<path id="XMLID_67_" class="st0" d="M208,247.6c0.2,0.8,0.5,1.5,1,2.1"/>
<path id="XMLID_66_" class="st0" d="M219,234.1c-0.3,1.3-0.1,2.6,0.5,3.6"/>
<line id="XMLID_65_" class="st0" x1="229.5" y1="236" x2="229.5" y2="238"/>
<path id="XMLID_64_" class="st0" d="M232.5,259.1c0.4,1,0.9,1.8,1.6,2.6"/>
<path id="XMLID_63_" class="st0" d="M251.8,226.3c0.2-0.2,0.3-0.3,0.5-0.5"/>
<path id="XMLID_62_" class="st0" d="M243.5,227.3c0.2-0.2,0.3-0.3,0.5-0.5"/>
<path id="XMLID_61_" class="st0" d="M230.4,201.2c0.1-0.6,0.5-1,1-1"/>
<path id="XMLID_60_" class="st0" d="M253.9,223.1c0,0.4,0.2,0.8,0.5,1"/>
<path id="XMLID_59_" class="st0" d="M274.2,224.7c0.4-0.8,0.9-1.5,1.6-2.1"/>
<path id="XMLID_58_" class="st0" d="M271.1,207C271.1,206.1,271.1,206.1,271.1,207"/>
<path id="XMLID_57_" class="st0" d="M262.8,199.7c0-0.4-0.1-0.6-0.5-0.5"/>
<line id="XMLID_56_" class="st0" x1="212" y1="206.5" x2="211" y2="206.5"/>
<path id="XMLID_55_" class="st0" d="M201.2,207.5c-0.2-0.5-0.3-1-0.5-1.6"/>
<line id="XMLID_54_" class="st0" x1="197.5" y1="202" x2="197.5" y2="201"/>
<path id="XMLID_53_" class="st0" d="M283.1,120.9c0.6,5.9-3.3,13.9-6.3,18.8"/>
<path id="XMLID_52_" class="st0" d="M278.9,119.4c-2.1,4.2-3.3,8.7-5.2,13"/>
<path id="XMLID_51_" class="st0" d="M301.3,69.3c-1.9,6-3.5,12.2-5.2,18.2"/>
<path id="XMLID_50_" class="st1" d="M317.5,41.2c-3,13.6-9.1,27.9-14.6,40.7"/>
<path id="XMLID_49_" class="st1" d="M322.7,46.9c9.7-12.1,23.9-21,40.2-19.3c12.5,1.3-5.9,5-9.4,6.3"/>
<path id="XMLID_48_" class="st1" d="M362.4,259.5c5.2-0.3,11.4,3.4,16.7,4.2c8.4,1.3,26.2,3,33.8-1.7c10.9-6.7-11.6-12.3-8.9-6.2"/>
<path id="XMLID_47_" class="st1" d="M341,306c6.8,1.6,10.7,12.7,18.9,12.5c9.4-0.2,5.5-10.9,3-7.3"/>
<path id="XMLID_46_" class="st1" d="M203.4,364.3c0,20.9-3.5,63-31.2,64.1c-2.8,0.1-19.4-4.3-11.1-8.8c2.8-1.5,4.4,1.6,6.8,2.6"/>
<path id="XMLID_45_" class="st1" d="M110,278.9c-4.3,1.5-8,5.1-11.4,7.9c-3.5,2.8-15.1,9.3-16.2,13.7c-1.7,7.2,11.9,8.4,10.4-1.8"/>
<path id="XMLID_44_" class="st1" d="M171.1,46.3c5.2,2.5,3.9-11.3-1.3-9.1c-3.1,1.3-1.7,11.1-0.8,13c4.2,9.2,14.9,13.2,18.8,23.2"/>
<path id="XMLID_43_" class="st0" d="M225.2,55.3c-4.4-2-11.3-0.9-12,5.2c-5-0.2-12.7,5.3-9.4,12c-6.9-0.1-11.3,2.3-10.4,10.4"/>
<path id="XMLID_42_" class="st0" d="M209.6,72.5c-5.7-3.2-10.1,8.6-3.1,10.9"/>
<path id="XMLID_41_" class="st0" d="M198.6,79.2c-6.7,0.1-4.5,12.6,4.2,12"/>
<path id="XMLID_40_" class="st0" d="M210.1,68.3c0.8-4.4,9.3-6.1,12.5-3.6"/>
<path id="XMLID_39_" class="st0" d="M222.1,71.9c6.7-3.3,9.5,8.2,3.6,10.9"/>
<path id="XMLID_38_" class="st0" d="M228.3,67.8c7.2-1.4,8.9,8.5,6.3,13.6"/>
<path id="XMLID_37_" class="st0" d="M228.3,85c7-0.7,3.4,8-3.1,7.3"/>
<path id="XMLID_36_" class="st0" d="M242.4,85.5c8.8,3-10.1,21-15.1,9.4"/>
<path id="XMLID_35_" class="st0" d="M244.5,95.9c1.8,2.7-1.1,7.7-4.7,4.7"/>
<path id="XMLID_34_" class="st0" d="M232,81.3c2.3,3.1,10.1,11,1,12.5"/>
<path id="XMLID_32_" class="st0" d="M216.9,51.1c2-1.1,4.2-2.2,6.3-1"/>
<path id="XMLID_30_" class="st0" d="M204.4,58.4c-4.1-0.5-5,4.6-4.7,7.8"/>
<path id="XMLID_29_" class="st0" d="M193.9,60.5c-5.9,0.1-7.8,9.5-5.2,13.6"/>
<path id="XMLID_26_" class="st0" d="M186.1,83.4c-5.5,4.7-2.9,18.2,5.7,16.7"/>
<path id="XMLID_25_" class="st0" d="M228.3,52.1c3.3,0.1,6.7,4.3,7.3,7.3"/>
<path id="XMLID_24_" class="st0" d="M240.9,71.4c1.9,2.3,3.6,6.8,0.5,8.9"/>
<path id="XMLID_23_" class="st0" d="M398.8,94.4c0.6-4.2-3.7-8.9-7.7-9.9c-7.1-1.8-6.3,4.8-6.3,10.5"/>
<path id="XMLID_22_" class="st0" d="M382.1,88.1c-6.8-4.7-21.6,2.1-16.2,10.9"/>
<path id="XMLID_21_" class="st0" d="M369.1,100.1c-6.2,2.8,1.3,12.5,6.8,11.5"/>
<path id="XMLID_20_" class="st0" d="M379,120.4c-0.3,7.2,10.1,11.9,8.3,5.2"/>
<path id="XMLID_19_" class="st0" d="M392.6,125.6c6.4,4.3,13.3-7.4,5.7-9.9"/>
<path id="XMLID_18_" class="st0" d="M401.4,114.2c9.7-2.5,3.3-22.8-5.2-15.6"/>
<path id="XMLID_17_" class="st0" d="M384.8,94.4c5.2-6.5,15.7,3.4,8.9,7.8"/>
<path id="XMLID_16_" class="st0" d="M377.5,95.9c-4.4-2.3-10.6-1.1-9.4,5.2"/>
<path id="XMLID_11_" class="st0" d="M394.7,104.8c2.3,0.8,5,5.2,3.6,7.9c-1.5,2.8-8.3,2.7-10.9,2.6"/>
<path id="XMLID_10_" class="st0" d="M372.2,109c-2.8,5.1,3.3,10.7,8.3,11.5"/>
<path id="XMLID_9_" class="st0" d="M380.6,116.8c2.1,4.3,7.6,5.7,12,4.2"/>
<path id="XMLID_8_" class="st1" d="M395.8,87.5c10.2-12,20.5,9.5,12,16.2"/>
<path id="XMLID_6_" class="st0" d="M423.9,87.6c-5.3-0.5-5.3,7.5-1.1,9.3c9.1,3.8,9.3-13.8,0-11.9"/>
<path id="XMLID_5_" class="st0" d="M372.8,67.2c-6.7,2.6-3.7,15,4.1,10.9c7.5-3.9,1.4-17.7-5.6-10.4"/>
<path id="XMLID_4_" class="st0" d="M410.3,66.7c-4.8,2.3,5.1,5.8,3-2c-1.9-0.4-3.6,0.3-4.6,2"/>
<path id="XMLID_2_" class="st0" d="M405.1,122.5c-2.8,5.1,4.8,7.3,7.5,3.3c3.1-4.6-3.8-8-6.5-4.9"/>
</svg>
