<svg xmlns="http://www.w3.org/2000/svg" viewBox="0 0 96 96">
  <path d="M66.4 42.1c3.2.6 5.5 2 6.8 4.1 1.3 2.1 2 5.4 2 10 0 9-2.7 16.4-8.1 22.2-5.4 5.8-12.4 8.6-20.8 8.6-3.3 0-6.6-.6-9.7-1.8-3.1-1.2-5.8-2.9-8.1-5-2.6-2.4-4.5-4.9-5.8-7.5-1.3-2.6-1.9-5.3-1.9-8.1 0-3.1.7-5.5 2-7.1 1.3-1.7 3.4-2.8 6.3-3.4-.5-1.3-.9-2.3-1.2-3.2-.3-.9-.4-1.5-.4-2 0-1.6.9-3.3 2.6-4.9 1.7-1.7 3.3-2.5 4.8-2.5.6 0 1.3.1 2 .3.7.2 1.5.6 2.5 1.2-2.8-7.8-4.8-13.8-6-18.1-1.3-4.2-1.9-7.2-1.9-8.8 0-2.2.6-4 1.7-5.3 1.1-1.3 2.7-2 4.7-2 3.4 0 7.6 7.5 12.8 22.6.9 2.6 1.6 4.6 2 6 .4-1.1.9-2.7 1.7-4.7 5.2-14.9 9.6-22.4 13.3-22.4 1.8 0 3.3.6 4.4 1.9 1.1 1.2 1.6 2.9 1.6 5 0 1.6-.6 4.5-1.8 8.7-1.2 4-3 9.5-5.5 16.2zM28 64.1c.5.6 1.2 1.5 2.1 2.7 2.4 3.3 4.6 4.9 6.6 4.9.7 0 1.3-.2 1.8-.6.5-.4.8-.9.8-1.3 0-.5-.4-1.4-1.1-2.7-.7-1.3-1.7-2.7-3-4.2-1.4-1.8-2.6-3.2-3.6-4-.9-.8-1.7-1.3-2.3-1.3-1.3 0-2.4.7-3.5 2s-1.6 2.9-1.6 4.8c0 1.5.4 3.1 1.1 4.9.7 1.8 1.8 3.6 3.2 5.5 2.1 2.8 4.7 5 7.9 6.5 3.1 1.5 6.6 2.3 10.4 2.3 7 0 12.8-2.6 17.5-7.8 4.7-5.2 7.1-11.7 7.1-19.6 0-2.4-.2-4.3-.5-5.7-.4-1.4-.9-2.4-1.8-3.1-1.5-1.2-4.3-2.3-8.6-3.3-4.2-1-8.7-1.5-13.3-1.5-1.3 0-2.2.2-2.7.6-.5.4-.8 1.2-.8 2.2 0 2.4 1.4 4.2 4.1 5.3 2.7 1.1 7.1 1.6 13.2 1.6h2.2c.5 0 .9.2 1.2.6.3.4.5.9.6 1.7-.6.6-1.9 1.2-3.8 2-1.9.7-3.4 1.5-4.4 2.2-2.2 1.6-3.9 3.4-5.2 5.6-1.3 2.2-2 4.2-2 6.2 0 1.2.3 2.6.8 4.3.6 1.7.8 2.7.8 3.1v.4l-.1.5c-1.6-.1-2.8-1-3.7-2.8-.9-1.7-1.4-4.1-1.4-7v-.5c-.3.3-.6.4-.8.5-.3.1-.6.2-.9.2-.3 0-.6 0-.9-.1-.3-.1-.6-.1-1-.2.1.4.2.8.2 1.2.1.4.1.7.1.9 0 1.3-.5 2.5-1.6 3.4-1 .9-2.3 1.4-3.7 1.4-2.3 0-4.6-1.1-6.9-3.3-2.3-2.2-3.5-4.4-3.5-6.5 0-.4 0-.7.1-1 .5-.5.6-.8.9-1zm16.1 1.3c.6 0 1.2-.3 1.7-.8.5-.6.8-1.2.8-1.8 0-.7-.5-2.3-1.5-4.8s-2.2-4.9-3.7-7.3c-1.1-1.8-2.1-3.1-3.2-4.1-1-.9-2-1.4-3-1.4-.8 0-1.6.5-2.5 1.4-.9.9-1.4 1.8-1.4 2.7 0 .9.4 2.2 1.3 3.9.9 1.7 2.1 3.5 3.6 5.5 1.6 2.1 3.1 3.8 4.5 4.9 1.4 1.2 2.6 1.8 3.4 1.8zm5.2-26l-5.8-16.8c-1.5-4.3-2.7-7-3.5-8.4-.8-1.3-1.7-2-2.7-2-.8 0-1.4.3-1.8.9-.5.6-.7 1.3-.7 2.3 0 1.6.6 4.5 1.9 8.6 1.3 4.1 3.1 9.4 5.6 16.1.2-.4.5-.7.9-.8.4-.2.9-.2 1.6-.2.2 0 .6 0 1.3.1.7 0 1.8.1 3.2.2zm6.1 16.3c-1.5-.1-3-.2-4.4-.5-1.4-.3-2.7-.6-4-1.1.6 1.1 1.1 2.3 1.5 3.4.4 1.1.8 2.3 1.1 3.4.9-1.1 1.8-2.1 2.7-2.9 1.1-.8 2.1-1.6 3.1-2.3zm7.2-14.5c2.4-6.5 4.3-11.9 5.6-16.2 1.3-4.2 2-6.9 2-7.8 0-1-.2-1.8-.7-2.4-.4-.6-1.1-.9-1.9-.9-1 0-2 .8-3.1 2.5-1 1.7-2.2 4.3-3.4 8L55.8 40l6.8 1.2z"/>
</svg>
