<svg xmlns="http://www.w3.org/2000/svg" viewBox="-189 190 96 96">
  <path d="M-141 198.6c12.8 0 14.3 0 19.4.3 4.7.2 7.2 1 8.9 1.7 2.2.9 3.8 1.9 5.5 3.6s2.7 3.3 3.6 5.5c.7 1.7 1.4 4.2 1.7 8.9.2 5.1.3 6.6.3 19.4s0 14.3-.3 19.4c-.2 4.7-1 7.2-1.7 8.9-.9 2.2-1.9 3.8-3.6 5.5s-3.3 2.7-5.5 3.6c-1.7.7-4.2 1.4-8.9 1.7-5.1.2-6.6.3-19.4.3s-14.3 0-19.4-.3c-4.7-.2-7.2-1-8.9-1.7-2.2-.9-3.8-1.9-5.5-3.6-1.7-1.7-2.7-3.3-3.6-5.5-.7-1.7-1.4-4.2-1.7-8.9-.2-5.1-.3-6.6-.3-19.4s0-14.3.3-19.4c.2-4.7 1-7.2 1.7-8.9.9-2.2 1.9-3.8 3.6-5.5s3.3-2.7 5.5-3.6c1.7-.7 4.2-1.4 8.9-1.7 5.1-.2 6.6-.3 19.4-.3m0-8.6c-13 0-14.7.1-19.8.3s-8.6 1-11.7 2.2c-3.2 1.2-5.8 2.9-8.5 5.5-2.7 2.7-4.3 5.3-5.5 8.5-1.2 3.1-2 6.5-2.2 11.7-.2 5.1-.3 6.8-.3 19.8s.1 14.7.3 19.8 1 8.6 2.2 11.7c1.2 3.2 2.9 5.8 5.5 8.5 2.7 2.7 5.3 4.3 8.5 5.5 3.1 1.2 6.5 2 11.7 2.2 5.1.2 6.8.3 19.8.3s14.7-.1 19.8-.3 8.6-1 11.7-2.2c3.2-1.2 5.8-2.9 8.5-5.5 2.7-2.7 4.3-5.3 5.5-8.5 1.2-3.1 2-6.5 2.2-11.7.2-5.1.3-6.8.3-19.8s-.1-14.7-.3-19.8-1-8.6-2.2-11.7c-1.2-3.2-2.9-5.8-5.5-8.5-2.7-2.7-5.3-4.3-8.5-5.5-3.1-1.2-6.5-2-11.7-2.2-5.1-.2-6.8-.3-19.8-.3z"/>
  <path d="M-141 213.4c-13.6 0-24.6 11-24.6 24.6s11 24.6 24.6 24.6 24.6-11 24.6-24.6-11-24.6-24.6-24.6zm0 40.6c-8.8 0-16-7.2-16-16s7.2-16 16-16 16 7.2 16 16-7.2 16-16 16z"/>
  <circle cx="-115.4" cy="212.4" r="5.8"/>
</svg>
