<svg width="14" height="14" viewBox="0 0 14 14" xmlns="http://www.w3.org/2000/svg">
  <path d="M7 5.58578644L12.2928932.29289322c.3905243-.3905243 1.0236893-.3905243 1.4142136 0 .3905243.3905243.3905243 1.02368927 0 1.41421356L8.41421356 7l5.29289324 5.2928932c.3905243.3905243.3905243 1.0236893 0 1.4142136-.3905243.3905243-1.0236893.3905243-1.4142136 0L7 8.41421356 1.70710678 13.7071068c-.39052429.3905243-1.02368927.3905243-1.41421356 0-.3905243-.3905243-.3905243-1.0236893 0-1.4142136L5.58578644 7 .29289322 1.70710678c-.3905243-.39052429-.3905243-1.02368927 0-1.41421356.3905243-.3905243 1.02368927-.3905243 1.41421356 0L7 5.58578644z" fill="#FFF" fill-rule="nonzero"/>
</svg>
