<?xml version="1.0" encoding="utf-8"?>
<!-- Generator: Adobe Illustrator 22.1.0, SVG Export Plug-In . SVG Version: 6.00 Build 0)  -->
<svg version="1.1" id="Layer_1" xmlns="http://www.w3.org/2000/svg" xmlns:xlink="http://www.w3.org/1999/xlink" x="0px" y="0px"
	 viewBox="0 0 800 600" style="enable-background:new 0 0 800 600;" xml:space="preserve">
<style type="text/css">
	.st0{fill:#E9F7FF;}
	.st1{opacity:0.5;fill:#FFFFFF;}
	.st2{fill:none;stroke:#4A3A68;stroke-width:4;stroke-linecap:round;stroke-linejoin:round;stroke-miterlimit:10;}
	.st3{fill:url(#SVGID_1_);}
	.st4{fill:url(#SVGID_2_);}
	.st5{fill:url(#SVGID_3_);}
	.st6{fill:url(#SVGID_4_);}
	.st7{fill:url(#SVGID_5_);}
	.st8{fill:url(#SVGID_6_);}
	.st9{fill:url(#SVGID_7_);}
	.st10{fill:url(#SVGID_8_);}
	.st11{fill:url(#SVGID_9_);}
	.st12{fill:url(#SVGID_10_);}
	.st13{fill:url(#SVGID_11_);}
	.st14{fill:url(#SVGID_12_);}
	.st15{fill:url(#SVGID_13_);}
	.st16{fill:url(#SVGID_14_);}
	.st17{fill:url(#SVGID_15_);}
	.st18{fill:url(#SVGID_16_);}
	.st19{fill:url(#SVGID_17_);}
	.st20{fill:url(#SVGID_18_);}
	.st21{fill:url(#SVGID_19_);}
	.st22{fill:#E5D9F9;}
	.st23{fill:#FFFFFF;}
	.st24{fill:url(#SVGID_20_);}
	.st25{fill:none;stroke:#FFFFFF;stroke-linecap:round;stroke-linejoin:round;stroke-miterlimit:10;}
	.st26{opacity:0.75;fill:#FFFFFF;}
	.st27{fill:#7C2159;}
	.st28{fill:#EADAE4;}
	.st29{fill:#4A3A68;}
	.st30{fill:none;stroke:url(#SVGID_21_);stroke-width:8;stroke-linecap:round;stroke-linejoin:round;stroke-miterlimit:10;}
	.st31{fill:url(#SVGID_22_);}
	.st32{opacity:0.2;}
	.st33{opacity:0.75;fill:#292635;}
	.st34{fill:none;stroke:#000000;stroke-linecap:round;stroke-linejoin:round;stroke-miterlimit:10;}
	.st35{opacity:0.2;fill:none;stroke:#E9F7FF;stroke-width:0.5;stroke-linecap:round;stroke-linejoin:round;stroke-miterlimit:10;}
	.st36{fill:none;stroke:#4A3A68;stroke-linecap:round;stroke-linejoin:round;stroke-miterlimit:10;}
	.st37{fill:#292635;}
	.st38{fill:#CAD6E8;}
	.st39{fill:url(#SVGID_23_);}
	.st40{opacity:0.25;fill:#FFFFFF;}
	.st41{opacity:0.1;}
	.st42{fill:#181214;}
	.st43{fill:#FFF6DC;}
	.st44{fill:url(#SVGID_24_);}
	.st45{fill:url(#SVGID_25_);}
	.st46{fill:url(#SVGID_26_);}
	.st47{fill:url(#SVGID_27_);}
	.st48{fill:none;stroke:#FFFFFF;stroke-width:0.5;stroke-linecap:round;stroke-linejoin:round;}
	.st49{fill:none;stroke:#FFFFFF;stroke-width:0.5;stroke-linecap:round;stroke-linejoin:round;stroke-dasharray:0,1.0037;}
	.st50{fill:none;stroke:#FFFFFF;stroke-width:0.5;stroke-linecap:round;stroke-linejoin:round;stroke-dasharray:0,0.9668;}
	.st51{fill:none;stroke:#FFFFFF;stroke-width:0.5;stroke-linecap:round;stroke-linejoin:round;stroke-dasharray:0,0.975;}
	.st52{fill:none;stroke:#FFFFFF;stroke-width:0.5;stroke-linecap:round;stroke-linejoin:round;stroke-dasharray:0,0.9842;}
	.st53{fill:none;stroke:#FFFFFF;stroke-width:0.5;stroke-linecap:round;stroke-linejoin:round;stroke-dasharray:0,1.0034;}
	.st54{fill:none;stroke:#FFFFFF;stroke-width:0.5;stroke-linecap:round;stroke-linejoin:round;stroke-dasharray:0,0.9895;}
	.st55{fill:none;stroke:#FFFFFF;stroke-width:0.5;stroke-linecap:round;stroke-linejoin:round;stroke-dasharray:0,1.027;}
	
		.st56{fill:none;stroke:#FFFFFF;stroke-width:0.5;stroke-linecap:round;stroke-linejoin:round;stroke-miterlimit:10;stroke-dasharray:0,1;}
	.st57{fill:url(#SVGID_28_);}
	.st58{fill:url(#SVGID_29_);}
	.st59{fill:url(#SVGID_30_);}
	.st60{fill:url(#SVGID_31_);}
	.st61{fill:url(#SVGID_32_);}
	.st62{fill:url(#SVGID_33_);}
	.st63{fill:url(#SVGID_34_);}
	.st64{opacity:0.15;}
	.st65{fill:url(#SVGID_35_);}
	.st66{fill:url(#SVGID_36_);}
	.st67{fill:url(#SVGID_37_);}
	.st68{fill:url(#SVGID_38_);}
	.st69{fill:url(#SVGID_39_);}
	.st70{fill:url(#SVGID_40_);}
	.st71{fill:url(#SVGID_41_);}
	.st72{fill:url(#SVGID_42_);}
	.st73{fill:url(#SVGID_43_);}
	.st74{fill:url(#SVGID_44_);}
	.st75{fill:url(#SVGID_45_);}
	.st76{fill:url(#SVGID_46_);}
	.st77{fill:url(#SVGID_47_);}
	.st78{fill:url(#SVGID_48_);}
</style>
<path class="st0" d="M28.2,251.3c2.7-10.6,6.5-20.8,11.5-30.5c15.9-30.9,41.9-56.3,73.5-70.9c25.8-11.9,54.8-16.1,82.9-11.9
	c3.2,0.5,6.4,1.1,9.6,1.8c21.8,4.9,42.5,13.9,62.6,23.7c37.9,18.5,81.8,24.1,123.2,16.1c45.1-8.7,89-23.8,134.4-31.1
	c37.5-6.1,76-5.5,113.5,0.1c38.3,5.7,78.2,17.6,106.7,45.1c27.8,26.8,35.7,69.2,26.8,105.9c-1,4.1-2.2,8.2-3.6,12.2
	C742.4,389.5,659.9,432,586.7,456.3c-20.2,6.7-40.7,12.3-61.4,17.2c-84.8,20.1-171.8,25.7-258.7,22.8c-55.5-1.8-116.8-6-165.6-35
	c-31.4-18.7-53.3-48.6-65.9-82.6C20.3,338.5,17.4,292.9,28.2,251.3z"/>
<path class="st1" d="M502.4,198.3c-28.5,5.6-56.8,12.5-85.5,16.9c-13.9,2.1-28,3.7-42,4.3c-29.6,1.2-59.4-2-88.3-8.6
	c-21.2-4.9-42-11.6-63.6-14.7c-45.5-6.7-99.5,13-124.5,53.5c-18.4,29.9-18.3,69.1-3.8,101s41.9,56.9,73.1,72.9s66.1,23.7,101,27.4
	c121.9,13.1,247.3-21,349-89.3c15.7-10.5,31.1-22.1,42.4-37.4c10-13.5,16.2-29.5,19.6-46c3.6-17.4,4.1-35.5,0.3-52.9
	c-1.8-8.1-4.7-16.4-10.9-22c-4.5-4.1-10.3-6.4-16.1-8.3c-17.6-5.7-35-8.8-53.1-6.5c-9.6,1.2-19.9-0.2-29.7,0.3
	c-10.3,0.5-20.5,1.5-30.7,2.9C527,193.7,514.6,195.9,502.4,198.3z"/>
<path class="st0" d="M411.1,465.8c-50.7,5.4-102.5-2.8-151.1-18.7c-32.5-10.7-63.9-24.3-85.5-52.1c-18.1-23.3-29.9-55-23.5-84.6
	c3.4-15.7,12.2-29.6,24.6-39.7c35.2-28.8,90.7-22.6,132.8-20.8c70.6,3,139.6-3.6,209.5-13.4c21.3-3,44.1-6.3,64.8,1.7
	c60.2,23.2,17.6,107.2-7.7,141.4c-26.7,35.9-67.2,61.2-109.3,74.8C447.7,460.2,429.5,463.9,411.1,465.8z"/>
<polyline class="st2" points="587.1,114.6 595.1,131.2 619.9,137.9 "/>
<g>
	
		<linearGradient id="SVGID_1_" gradientUnits="userSpaceOnUse" x1="1963.6382" y1="754.0436" x2="1963.6382" y2="540.0425" gradientTransform="matrix(-0.955 -0.2966 -0.2966 0.955 2703.9436 316.4142)">
		<stop  offset="3.004808e-04" style="stop-color:#3F827D"/>
		<stop  offset="1" style="stop-color:#50A668"/>
	</linearGradient>
	<path class="st3" d="M709.1,262.3c-5.5,8.5-16.2,14.2-26.2,19.9c-48.9,27.7-97.7,40.4-113.2,160.9c31.9-99.9,40.7-88.5,73.3-110.4
		c22.5-15.1,31.2-17.1,46.3-36.7C697.6,285.2,701.9,273.4,709.1,262.3z"/>
	<linearGradient id="SVGID_2_" gradientUnits="userSpaceOnUse" x1="573.4539" y1="455.7015" x2="573.4539" y2="98.695">
		<stop  offset="3.004808e-04" style="stop-color:#3F827D"/>
		<stop  offset="1" style="stop-color:#50A668"/>
	</linearGradient>
	<path class="st4" d="M565.8,255.9c-2.7-47.4-31.7-113.4,23.7-157.2c8.3,52.1-16.5,87.3-17.8,122.9c-0.4,10.5,0.3,21.1,0.5,31.6
		c1.3,64.6,24.5,160.5-8.8,202.5C576.4,382.2,568,294.7,565.8,255.9z"/>
	<linearGradient id="SVGID_3_" gradientUnits="userSpaceOnUse" x1="614.3215" y1="333.5309" x2="614.3215" y2="205.5184">
		<stop  offset="3.004808e-04" style="stop-color:#3F827D"/>
		<stop  offset="1" style="stop-color:#50A668"/>
	</linearGradient>
	<path class="st5" d="M636.4,205.5c8.7,5.6,11.6,12.1,10.7,17.6c-2.2,14.5-40,82.6-65.9,110.4C601.6,270.7,614.5,227.3,636.4,205.5z
		"/>
	
		<linearGradient id="SVGID_4_" gradientUnits="userSpaceOnUse" x1="2128.8787" y1="-549.1252" x2="2204.7698" y2="-549.1252" gradientTransform="matrix(-0.9957 -9.264866e-02 9.264866e-02 -0.9957 2840.396 -48.4673)">
		<stop  offset="3.004808e-04" style="stop-color:#3F827D"/>
		<stop  offset="1" style="stop-color:#50A668"/>
	</linearGradient>
	<path class="st6" d="M590,339.7c7.3-18.2,53.4-86.4,84.1-84.3C671.2,278.1,608.4,328.2,590,339.7z"/>
	
		<linearGradient id="SVGID_5_" gradientUnits="userSpaceOnUse" x1="641.4624" y1="185.9476" x2="719.2639" y2="185.9476" gradientTransform="matrix(0.9412 0.3378 -0.3378 0.9412 -37.7714 -193.1649)">
		<stop  offset="2.944712e-03" style="stop-color:#4EA19B"/>
		<stop  offset="1" style="stop-color:#5FC47B"/>
	</linearGradient>
	<path class="st7" d="M527.9,129.6c-2.4,9.3,1.6,18.7,5,27.7c16.9,44.2,23.2,90.7,18.7,136.6c-6.8-21-20.6-40.2-28.3-61.1
		c-8-21.8-10.2-44.9-6.6-67.3C518.8,153,524.8,141.6,527.9,129.6z"/>
	
		<linearGradient id="SVGID_6_" gradientUnits="userSpaceOnUse" x1="560.918" y1="296.9333" x2="560.918" y2="150.2421" gradientTransform="matrix(0.9946 0.1036 -0.1036 0.9946 -6.5442 -30.0853)">
		<stop  offset="3.004808e-04" style="stop-color:#3F827D"/>
		<stop  offset="1" style="stop-color:#50A668"/>
	</linearGradient>
	<path class="st8" d="M490.6,172.8c0.6,9.4,7.4,17.9,13.7,26c30.4,39.9,51.3,83.9,61.5,129.3c-13.3-19.2-32.8-35.4-46.8-54.3
		c-14.7-19.8-24.2-41.7-27.8-64.2C489.2,197.2,491.4,185.1,490.6,172.8z"/>
	
		<linearGradient id="SVGID_7_" gradientUnits="userSpaceOnUse" x1="2215.8025" y1="-856.5015" x2="2215.8025" y2="-1003.3396" gradientTransform="matrix(-0.9302 -4.404652e-02 2.619405e-02 -0.5532 2608.5334 -14.9339)">
		<stop  offset="3.004808e-04" style="stop-color:#3F827D"/>
		<stop  offset="1" style="stop-color:#50A668"/>
	</linearGradient>
	<path class="st9" d="M565.3,444.6c-1.5-5.2-16.5-33.4-29.3-42.7c-31-22.6-45.7-10.9-55-42.7c14.1,10.5,38.2,4.4,55,17.3
		C569.2,401.9,563.3,437.7,565.3,444.6z"/>
	
		<linearGradient id="SVGID_8_" gradientUnits="userSpaceOnUse" x1="1018.319" y1="620.1392" x2="1018.319" y2="462.1949" gradientTransform="matrix(0.7548 0.6559 -0.6559 0.7548 183.5446 -854.5842)">
		<stop  offset="3.004808e-04" style="stop-color:#3F827D"/>
		<stop  offset="1" style="stop-color:#50A668"/>
	</linearGradient>
	<path class="st10" d="M626.3,142.5c-6.7,8-7.6,17.8-8.7,27.2c-5.6,45.8-22.1,90.9-48.5,132.4c3.8-21.4,0.2-43.1,3.1-64.7
		c3.1-22.5,12.1-44.6,26.3-64.6C606.5,161.8,617.6,152.9,626.3,142.5z"/>
	<linearGradient id="SVGID_9_" gradientUnits="userSpaceOnUse" x1="622.0797" y1="445.0494" x2="622.0797" y2="322.8074">
		<stop  offset="3.004808e-04" style="stop-color:#3F827D"/>
		<stop  offset="1" style="stop-color:#50A668"/>
	</linearGradient>
	<path class="st11" d="M608.1,360c-14.5,28-26.3,56.5-37.9,85c46.6-36.7,60.1-84.4,103.7-122.2c-1.7,1.7-18.3,1.2-38.4,3.8
		C627.8,328.8,613.3,350,608.1,360z"/>
	<linearGradient id="SVGID_10_" gradientUnits="userSpaceOnUse" x1="686.2386" y1="366.3068" x2="686.2386" y2="319.3782">
		<stop  offset="2.944712e-03" style="stop-color:#4EA19B"/>
		<stop  offset="1" style="stop-color:#5FC47B"/>
	</linearGradient>
	<path class="st12" d="M668.4,319.4c17.4-0.5,47.2,40.1,68.6,46.9c-51.3-4.7-79.1-43-101.4-39.7
		C643.3,324.8,660.3,320.7,668.4,319.4z"/>
	<linearGradient id="SVGID_11_" gradientUnits="userSpaceOnUse" x1="554.6597" y1="269.5247" x2="554.6597" y2="192.4466">
		<stop  offset="3.004808e-04" style="stop-color:#3F827D"/>
		<stop  offset="1" style="stop-color:#50A668"/>
	</linearGradient>
	<path class="st13" d="M536,194.4c0,5.7,3.2,22.9,4.3,26.5c3,10.4,6.2,21,12.7,30.5c2.9,4.2,6.5,8.2,10.6,11.8
		c2.8,2.5,6,4.8,9.8,6.3c-3-6.5-4.1-13.4-5-20.3c-2-15.2-4-53.1-5-56.8C563.3,192.4,539.8,194.2,536,194.4z"/>
	<linearGradient id="SVGID_12_" gradientUnits="userSpaceOnUse" x1="562.9475" y1="309.4833" x2="597.1818" y2="309.4833">
		<stop  offset="3.004808e-04" style="stop-color:#3F827D"/>
		<stop  offset="1" style="stop-color:#50A668"/>
	</linearGradient>
	<path class="st14" d="M563.6,292.7c0.3,2.6,0.8,5.2,1.2,7.8c1.2,7.4,2.5,14.9,3.7,22.3c0.9,5.3,1.8,10.6,3.7,15.7
		c5-8.7,6.4-18.4,6.6-27.9c0.1-2.9,0-5.8,0.9-8.6c0.6-2.2,1.8-4.2,3-6.2c3.4-5.7,7.7-11.3,14.5-14.8c-3.6,0.3-20,0.9-32.2-0.6
		C561.8,280.5,563.2,290.1,563.6,292.7z"/>
	<linearGradient id="SVGID_13_" gradientUnits="userSpaceOnUse" x1="486.3836" y1="212.3938" x2="563.3113" y2="212.3938">
		<stop  offset="2.944712e-03" style="stop-color:#4EA19B"/>
		<stop  offset="1" style="stop-color:#5FC47B"/>
	</linearGradient>
	<path class="st15" d="M536.8,192.6c-10,0-21.8,32.3-50.5,39.4c19.1,0.8,29.9,0.3,41.6-4.9c18.7-8.3,35.3-34.7,35.3-34.7
		L536.8,192.6z"/>
	<linearGradient id="SVGID_14_" gradientUnits="userSpaceOnUse" x1="597.584" y1="304.0894" x2="597.584" y2="224.6536">
		<stop  offset="3.004808e-04" style="stop-color:#3F827D"/>
		<stop  offset="1" style="stop-color:#50A668"/>
	</linearGradient>
	<path class="st16" d="M596.9,224.7c-19.6,0-5,53.7-23,79.4c25.3,0,34-76.5,47.4-76.5C621.3,227.6,600.7,224.5,596.9,224.7z"/>
	
		<linearGradient id="SVGID_15_" gradientUnits="userSpaceOnUse" x1="2152.2104" y1="249.1395" x2="2222.4019" y2="249.1395" gradientTransform="matrix(-1 0 0 1 2819.322 0)">
		<stop  offset="2.944712e-03" style="stop-color:#4EA19B"/>
		<stop  offset="1" style="stop-color:#5FC47B"/>
	</linearGradient>
	<path class="st17" d="M623.4,224.8c10,0,19.1,48.6,43.7,48.6c-13,0-22.3,1.5-30.3-3.8c-21.3-14.1-29.4-44.9-39.9-44.9L623.4,224.8z
		"/>
	<linearGradient id="SVGID_16_" gradientUnits="userSpaceOnUse" x1="559.3402" y1="368.0769" x2="636.8657" y2="368.0769">
		<stop  offset="2.944712e-03" style="stop-color:#4EA19B"/>
		<stop  offset="1" style="stop-color:#5FC47B"/>
	</linearGradient>
	<path class="st18" d="M559.5,384.9c-0.4-8.7-0.2-17.4,1.7-26c6.8-30.6,36.8-57.7,75.6-68.2c-3.5,7.8-8.7,15.2-15.3,21.7
		c-11.9,11.7-28.3,20.7-37.5,33.7c-2.6,3.6-4.6,7.5-6.3,11.4c-12.2,27.6-11.8,57.5-6.9,86.3c0.2,0.9,0,1.6-1.2,1.8
		c-3.6-9.2-4.5-20.1-6.2-29.7C561.5,405.6,560,395.3,559.5,384.9z"/>
	
		<linearGradient id="SVGID_17_" gradientUnits="userSpaceOnUse" x1="2254.9363" y1="431.1114" x2="2254.9363" y2="276.2873" gradientTransform="matrix(-1 0 0 1 2795.427 0)">
		<stop  offset="2.944712e-03" style="stop-color:#4EA19B"/>
		<stop  offset="1" style="stop-color:#5FC47B"/>
	</linearGradient>
	<path class="st19" d="M579.1,370.6c0.4-8.7,0.2-17.4-1.7-26c-6.8-30.6-36.8-57.7-75.6-68.2c3.5,7.8,8.7,15.2,15.3,21.7
		c11.9,11.7,28.3,20.7,37.5,33.7c2.6,3.6,4.6,7.5,6.3,11.4c12.2,27.6,11.8,57.5,6.9,86.3c-0.2,0.9,0,1.6,1.2,1.8
		c3.6-9.2,4.5-20.1,6.2-29.7C577.1,391.2,578.5,380.9,579.1,370.6z"/>
	
		<linearGradient id="SVGID_18_" gradientUnits="userSpaceOnUse" x1="457.3104" y1="439.4356" x2="457.3104" y2="233.1109" gradientTransform="matrix(0.9935 -0.1136 0.1136 0.9935 30.3321 71.0173)">
		<stop  offset="3.004808e-04" style="stop-color:#3F827D"/>
		<stop  offset="1" style="stop-color:#50A668"/>
	</linearGradient>
	<path class="st20" d="M472.2,255.1c3.3,9.1,12.4,16.2,20.8,23.2c41.2,34,86,53.4,71.3,173.9c-6.6-102.6-18.1-92.6-44.7-118.7
		c-18.3-18-26.4-21.2-36.4-42.6C477.8,279.2,476.5,267,472.2,255.1z"/>
	
		<linearGradient id="SVGID_19_" gradientUnits="userSpaceOnUse" x1="2193.7971" y1="371.0791" x2="2193.7971" y2="280.3413" gradientTransform="matrix(-1 0 0 1 2779.0103 0)">
		<stop  offset="2.944712e-03" style="stop-color:#4EA19B"/>
		<stop  offset="1" style="stop-color:#5FC47B"/>
	</linearGradient>
	<path class="st21" d="M598.9,280.3c9,0,10.8,59.9-8.8,90.7c-5.2-44.2-14-90.6-25.1-90.6L598.9,280.3z"/>
</g>
<ellipse class="st22" cx="409.1" cy="457.5" rx="333.4" ry="44.3"/>
<path class="st23" d="M493.8,425.2H329.3c-1.6,0-48.9,17.1-48.9,17.1c-1.8,1.8-2.8,4.3-2.8,6.9l0,0c0,3.3,2.7,6,6,6h256
	c3.3,0,6-2.7,6-6l0,0c0-2.6-1-5-2.8-6.9C542.8,442.3,495.4,425.2,493.8,425.2z"/>
<path class="st0" d="M539.6,455.2h-256c-3.3,0-6-2.7-6-6l0,0c0-2.2,1.8-4,4-4h260c2.2,0,4,1.8,4,4l0,0
	C545.6,452.5,542.9,455.2,539.6,455.2z"/>
<g>
	
		<linearGradient id="SVGID_20_" gradientUnits="userSpaceOnUse" x1="41.5622" y1="-1663.7446" x2="16.745" y2="-1706.7294" gradientTransform="matrix(-0.866 0.5 -0.5 -0.866 -624.4235 -1217.5475)">
		<stop  offset="2.944712e-03" style="stop-color:#4EA19B"/>
		<stop  offset="1" style="stop-color:#5FC47B"/>
	</linearGradient>
	<path class="st24" d="M185,278.5l17.1,3.6c3,0.6,6-1.1,6.9-4l5.4-16.6c0.5-1.6,0.3-3.4-0.5-4.9l-12.2-21.1
		c-1.7-2.9-5.3-3.9-8.2-2.2l-22.5,13c-2.9,1.7-3.9,5.3-2.2,8.2l12.2,21.1C181.9,277.1,183.3,278.1,185,278.5z M201.5,272.7
		c1.5-0.8,3.3-0.2,4,1.3s0.2,3.3-1.3,4c-1.5,0.8-3.3,0.2-4-1.3S200,273.5,201.5,272.7z"/>
	<line class="st25" x1="199.8" y1="246.1" x2="179" y2="258.1"/>
	<line class="st25" x1="192.5" y1="245.5" x2="182.1" y2="251.5"/>
	<g>
		<path class="st23" d="M187.9,260.9c0.8-3.1,3.7-5,3.7-5s1.7,3.2,0.9,6.4c-0.8,3.1-3.7,5-3.7,5S187.2,264,187.9,260.9z"/>
		<path class="st26" d="M192.5,262.3c-1.7-2.9-0.9-6.4-0.9-6.4s3.4,1.1,5.1,4s0.9,6.4,0.9,6.4S194.2,265.1,192.5,262.3z"/>
		<path class="st23" d="M196.5,260c-3.1-0.9-5.1-4-5.1-4s3.1-1.6,6.2-0.7c3.1,0.9,5.1,4,5.1,4S199.6,260.9,196.5,260z"/>
	</g>
</g>
<g>
	<polygon class="st27" points="133,464.7 34.8,464.7 74.8,442.8 173,442.8 	"/>
	<path class="st23" d="M173,456.2l-40,21.9h-10v-13.4h10l40-21.9C168.9,447.6,169.1,452.1,173,456.2z"/>
	<path class="st28" d="M126.5,471.4c0-3.6,2.9-6.6,6.5-6.7v0H36.7c-3.7,0-6.7,3-6.7,6.7c0,3.7,3,6.7,6.7,6.7H133v0
		C129.4,478.1,126.5,475.1,126.5,471.4z"/>
</g>
<g>
	<polygon class="st27" points="139,449.7 40.8,449.7 80.8,427.8 179,427.8 	"/>
	<path class="st23" d="M179,441.2l-40,21.9h-10v-13.4h10l40-21.9C174.9,432.6,175.1,437.1,179,441.2z"/>
	<path class="st29" d="M132.5,456.4c0-3.6,2.9-6.6,6.5-6.7v0H42.7c-3.7,0-6.7,3-6.7,6.7c0,3.7,3,6.7,6.7,6.7H139v0
		C135.4,463.1,132.5,460.1,132.5,456.4z"/>
</g>
<g>
	<polygon class="st27" points="137,436.7 38.8,436.7 78.8,414.8 177,414.8 	"/>
	<path class="st23" d="M177,428.2l-40,21.9h-10v-13.4h10l40-21.9C172.9,419.6,173.1,424.1,177,428.2z"/>
	<path class="st28" d="M130.5,443.4c0-3.6,2.9-6.6,6.5-6.7v0H40.7c-3.7,0-6.7,3-6.7,6.7c0,3.7,3,6.7,6.7,6.7H137v0
		C133.4,450.1,130.5,447.1,130.5,443.4z"/>
</g>
<g>
	<linearGradient id="SVGID_21_" gradientUnits="userSpaceOnUse" x1="214" y1="408" x2="182.25" y2="408">
		<stop  offset="0" style="stop-color:#065159"/>
		<stop  offset="1" style="stop-color:#45B2C4"/>
	</linearGradient>
	<path class="st30" d="M206,387c-13,0-19.8,0-19.8,21s7.7,21,23.8,21"/>
	<path class="st2" d="M247.1,438.2c6.3-0.6,12.6-0.7,18.9-0.4c0.3,0,0.6,0,0.8-0.2c0.2-0.1,0.2-0.4,0.3-0.6c0.3-1.4,0.7-2.9,1-4.3"
		/>
	<path class="st2" d="M249.2,377.4c6.6-14,10.6-24.2,15.4-38.5c0,0-3.8-10.4-8.6-16"/>
	<linearGradient id="SVGID_22_" gradientUnits="userSpaceOnUse" x1="200.3591" y1="423.7117" x2="247.2404" y2="395.1523">
		<stop  offset="1.762821e-03" style="stop-color:#0DAABA"/>
		<stop  offset="1" style="stop-color:#5ECBDD"/>
	</linearGradient>
	<path class="st31" d="M227.7,450c-12.7,0-17.8-2-22.8-7c-11.5-11.5-12-61-11-65s15.1-7,33.8-7l0,0c18.8,0,32.8,3,33.8,7
		s0.5,53.5-11,65C245.5,448,240.4,450,227.7,450L227.7,450z"/>
	<ellipse class="st32" cx="227.7" cy="377.9" rx="30.5" ry="5.9"/>
	<path class="st33" d="M227.7,383.8c12.5,0,23.3-1.5,28-3.6c-4.3-2.2-15.2-3.7-28-3.7s-23.7,1.5-28,3.7
		C204.4,382.4,215.1,383.8,227.7,383.8z"/>
	<circle cx="223.2" cy="398" r="3"/>
	<circle cx="249.2" cy="398" r="3"/>
	<path class="st34" d="M229.6,406c1.4,1.2,4,2.1,7.1,2.1s5.6-0.8,7.1-2.1"/>
	<path class="st2" d="M205.6,398.5C193,425,202,451,184,451"/>
	<path class="st2" d="M222,446.1c19.8-5.6,21,5.1,26.7,11.4c1.4-2.1,2.1-3.5,3.1-5.7"/>
	<path class="st2" d="M177,398"/>
</g>
<path class="st35" d="M217.5,379.6c0-0.4,1.5-0.7,3.3-0.7c1.8,0,3.3,0.3,3.3,0.7"/>
<path class="st35" d="M226,379.8c0,0.6-2.3,1-5.2,1c-2.8,0-5.2-0.5-5.2-1"/>
<path class="st36" d="M220.6,379.2c0-36.5-26.3-57.4-37.9-54.8c-7.3,1.7-5.4,7.3-0.1,7.3c11.8,0,40-34.6,19.8-54.9"/>
<g>
	<polyline class="st2" points="427.5,391.1 427.5,432.2 443,435.7 	"/>
	<polyline class="st2" points="554.9,307.8 545.6,323.3 529.3,330.1 	"/>
	<polyline class="st2" points="264.5,317.4 272.6,333.9 297.4,340.6 	"/>
	<polyline class="st2" points="400.1,391.1 400.1,432.2 385.5,435.7 	"/>
	<path class="st37" d="M525.7,398h-225c-4.4,0-8-3.6-8-8V246.1c0-4.4,3.6-8,8-8h225c4.4,0,8,3.6,8,8V390
		C533.7,394.4,530.1,398,525.7,398z"/>
	<path class="st38" d="M292.7,374.1V390c0,4.4,3.6,8,8,8h225c4.4,0,8-3.6,8-8v-15.9H292.7z"/>
	<linearGradient id="SVGID_23_" gradientUnits="userSpaceOnUse" x1="467.2502" y1="399.4534" x2="359.5131" y2="212.8474">
		<stop  offset="0" style="stop-color:#FFCE76"/>
		<stop  offset="0.9997" style="stop-color:#CF738E"/>
	</linearGradient>
	<rect x="301.2" y="246.5" class="st39" width="224.3" height="119.3"/>
	<g>
		<circle cx="383.4" cy="303.4" r="6.9"/>
		<circle cx="443" cy="303.4" r="6.9"/>
		<path class="st34" d="M398.1,321.7c3.3,2.8,9.3,4.7,16.2,4.7s12.9-1.9,16.2-4.7"/>
	</g>
	<rect x="301.2" y="246.5" class="st40" width="224.3" height="4"/>
	<path class="st40" d="M444.3,365.8h-63.4v-4c0-1.1,0.9-2,2-2h59.4c1.1,0,2,0.9,2,2V365.8z"/>
	<g class="st41">
		<circle class="st23" cx="390.8" cy="362.8" r="1.5"/>
		<circle class="st23" cx="397" cy="362.8" r="1.5"/>
		<circle class="st23" cx="403.2" cy="362.8" r="1.5"/>
		<circle class="st23" cx="409.5" cy="362.8" r="1.5"/>
		<circle class="st23" cx="415.7" cy="362.8" r="1.5"/>
		<circle class="st23" cx="421.9" cy="362.8" r="1.5"/>
		<circle class="st23" cx="428.1" cy="362.8" r="1.5"/>
		<circle class="st23" cx="434.4" cy="362.8" r="1.5"/>
	</g>
	<circle class="st42" cx="412.6" cy="385.4" r="3.6"/>
</g>
<g>
	<g>
		<path class="st29" d="M587,189.7c11.2,11.2,23,18.5,30.5,19.5c3,0.4,9.8,0,14-20.2c2.4-11.8,6-22.9,17.6-34.4
			c1.6-3.3,1.9-7.2,0.6-10.6c-1.5-4-3.8-7.6-6.5-10.3c-2.8-2.7-6.3-5-10.3-6.5c-3.5-1.3-7.3-1-10.6,0.6
			c-11.6,11.6-22.6,15.1-34.4,17.6c-20.2,4.2-20.6,10.9-20.2,14C568.5,166.7,575.8,178.5,587,189.7z"/>
		
			<ellipse transform="matrix(0.7071 -0.7071 0.7071 0.7071 47.0418 474.4638)" class="st43" cx="596.2" cy="180.4" rx="11.9" ry="35"/>
		<path class="st23" d="M593.8,182.9c11.4,11.4,23.7,17.5,27.6,13.6c0,0,0.1-0.1,0.1-0.1c-2.2-6.7-8.3-15.7-16.9-24.3
			c-8.6-8.6-17.6-14.7-24.3-16.9c0,0-0.1,0.1-0.1,0.1C576.4,159.1,582.5,171.5,593.8,182.9z"/>
		<ellipse transform="matrix(0.7071 -0.7071 0.7071 0.7071 49.4058 470.171)" cx="592.2" cy="175.4" rx="1.1" ry="3.2"/>
		<ellipse transform="matrix(0.7071 -0.7071 0.7071 0.7071 54.6987 472.9491)" cx="598.2" cy="170.4" rx="1.1" ry="3.2"/>
		<path class="st34" d="M603.6,177.1c3.1,3.3-1.9,7.6-4.7,4.7"/>
	</g>
	<polyline class="st2" points="645.4,146.7 671.4,295.2 645.4,439.1 663.8,439.1 	"/>
	<polyline class="st2" points="635.6,146.7 661.6,295.2 635.6,439.1 617.2,439.1 	"/>
</g>
<g>
	<g>
		<linearGradient id="SVGID_24_" gradientUnits="userSpaceOnUse" x1="118.8892" y1="387.2563" x2="118.8892" y2="436.2563">
			<stop  offset="0" style="stop-color:#FFCE76"/>
			<stop  offset="0.9997" style="stop-color:#CF738E"/>
		</linearGradient>
		<path class="st44" d="M118.9,376.3L118.9,376.3c18.8,0,28.9,2,31.9,7c3.9,6.6,9,19-1,31c-4.5,5.4-11.7,11-30.9,11
			s-26.4-5.6-30.9-11c-10-12-4.9-24.4-1-31C90,378.3,100.1,376.3,118.9,376.3L118.9,376.3z"/>
		<ellipse class="st32" cx="118.7" cy="384.2" rx="27.3" ry="5.3"/>
		<path class="st32" d="M118.7,389.5c11.2,0,20.9-1.3,25.1-3.2c-3.9-2-13.6-3.3-25.1-3.3s-21.2,1.4-25.1,3.3
			C97.8,388.2,107.4,389.5,118.7,389.5z"/>
		<circle cx="124.2" cy="400.5" r="3"/>
		<circle cx="149.5" cy="394.4" r="3"/>
		<path class="st34" d="M136.4,405.9c1.1,1.2,2.9,1.8,4.6,1.3c1.7-0.4,3-1.7,3.5-3.3"/>
	</g>
	<g>
		<linearGradient id="SVGID_25_" gradientUnits="userSpaceOnUse" x1="110.3369" y1="373.3057" x2="112.7582" y2="289.8333">
			<stop  offset="0" style="stop-color:#805C8E"/>
			<stop  offset="1" style="stop-color:#5594FF"/>
		</linearGradient>
		<path class="st45" d="M122.1,361.2c1.9-6.4,2.8-13,3-19.6c0-0.6-0.2-1.1-0.5-1.6c-0.3-0.4-0.3-1,0-1.4c0.4-0.4,0.5-1,0.5-1.6
			c-0.1-2.5-0.3-5.1-0.6-7.6c-0.1-0.9-0.6-1.7-1.5-2c-0.8-0.3-0.4-1.1-0.1-1.5l0,0c0.5-0.6,0.8-1.6,0.6-2.3c-0.4-2.2-1-4.3-1.6-6.4
			c-0.2-0.7-0.4-1.5-0.7-2.2c-0.3-0.9-1-1.6-1.9-2c-0.8-0.4-0.5-0.9-0.4-1.1c0.2-0.9-0.1-1.9-0.7-2.6c-1.1-1.4-2.5-2.5-4.2-3.1
			c-1.7-0.6-3.3-0.4-3.9,0.6c-0.4,0.7-0.7,0.4-1.5,0.3c-1.1-0.2-2.5-0.3-3.4,0.3c-1,0.7-1.9,1.5-2.7,2.4c-0.3,0.4-0.6,0.8-0.9,1.2
			c-0.4,0.6-0.7,1.8-0.5,2.6l0,0c0.1,0.3-0.1,0.6-0.5,0.7c-0.7,0.3-1.2,0.9-1.4,1.6c-0.6,1.9-1,3.8-1.2,5.7c-0.2,1.3-0.3,2.6-0.3,4
			c0,1,0.5,1.9,1.3,2.4c0.2,0.2,0.4,0.3,0.3,0.5c0,0.1-0.2,0.3-0.3,0.4c-0.8,0.6-1.3,1.4-1.2,2.4c0.2,2.8,0.5,5.5,1.1,8.3
			c0.2,0.8,0.6,1.5,1.3,1.9c0.2,0.1,0.3,0.2,0.4,0.4c0,0.1,0,0.3-0.1,0.4c-0.4,0.7-0.6,1.6-0.4,2.4c2.5,9,6.8,17.6,12,25.5
			c3.3,5,1.8,15,5.8,15c2,0,0.5-6.3,0.6-9.8C118.8,370.6,120.7,365.9,122.1,361.2z"/>
		<linearGradient id="SVGID_26_" gradientUnits="userSpaceOnUse" x1="117.0395" y1="381.405" x2="144.406" y2="326.8554">
			<stop  offset="0" style="stop-color:#805C8E"/>
			<stop  offset="1" style="stop-color:#5594FF"/>
		</linearGradient>
		<path class="st46" d="M145.8,345.5c0.9,0,1.8-0.4,2.4-1.1c3.3-4.2,6-8.1,8.1-11.7c0.6-1,0.5-2.2-0.1-3.1c-0.3-0.5-0.5-1-0.3-1.4
			c0.2-0.3,0.6-0.4,1.2-0.5c1.2,0,2.2-0.8,2.6-1.9c1.3-3.1,2.1-5.8,2.6-8.3c0.1-0.8-0.3-1.5-0.9-2c-0.5-0.3-0.3-0.8,0.1-0.9l0,0
			c0.7-0.3,1.2-1,1.1-1.7c-0.1-2.3-0.6-4.2-1.5-5.6c-1.1-1.8-3.7-2.4-5.6-2c-1.1,0.2-1.9,0.7-2.4,1.1c0.1-0.9,1.2-1.8,2-2.1
			c-5.8,0.3-12.9,5.6-15,7.7c-10.7,10.3-16.4,27.1-18.6,43.3c-1.6,11.7-3.4,31.6,0,31.6c4.2,0,2.8-17.7,13.9-28.4
			c3.1-3,5.9-5.9,8.4-8.7c0.8-0.9,0.3-2.3,0.4-3.2C144.1,345.7,144.9,345.5,145.8,345.5z M143.4,340.1c-0.6-0.1-1.1-0.6-1-1.2
			c0.1-0.7,1.2-1.8,2.4-2c2.2-0.4,2.1,1.9,1.1,2.6C144.9,340.2,144,340.2,143.4,340.1z"/>
		<linearGradient id="SVGID_27_" gradientUnits="userSpaceOnUse" x1="84.8474" y1="368.114" x2="94.2074" y2="335.131">
			<stop  offset="0" style="stop-color:#805C8E"/>
			<stop  offset="1" style="stop-color:#5594FF"/>
		</linearGradient>
		<path class="st47" d="M110.1,362.5c-4.1-11.2-11.7-21.9-16.5-26c-6.1-5.3-17.5-10.5-25.5-6.7c-0.7,0.3-1.3,1-1.3,1.8
			c0,0.5,0.4,1.2-1.4,1.3c-0.9,0.1-1.8,0.5-2.3,1.2c-2.8,3.7-3.6,8-3,12.3c0.1,0.9,0.6,1.9,1.5,2.2c0.5,0.2,0.7,0.8,0.3,1.4
			c-0.4,0.7-0.4,1.6-0.1,2.3c1.2,2.9,2.8,5.7,4.8,8.3c0.2,0.3,0.6,0.6,1.4,0.3c1.2-0.4,2.3,0.2,1.6,1.9c-0.2,0.5-0.1,1.1,0.2,1.5
			c2.2,2.3,4.7,4.4,7.2,6.1c0.7,0.5,1.6,0.6,2.4,0.4c0,0,0,0,0,0c0.6-0.2,1,0.1,1.1,0.6c0.2,0.7,0.6,1.4,1.3,1.7
			c0.9,0.4,1.8,0.7,2.6,1c2.9,0.9,5.9,1.3,8.9,1.3c0.7,0,1.1-1,1.9-1.1c1.2-0.1,1.1,1.1,2.6,0.8c3.6-0.8,8.1-2.3,11.3,1.1
			c2.8,2.9-1,10,2,10C114.5,386.3,113.8,372.9,110.1,362.5z"/>
		<g class="st32">
			<g>
				<g>
					<line class="st48" x1="110.5" y1="309.8" x2="110.5" y2="309.8"/>
					<path class="st49" d="M110.6,310.8c1.2,16.5,7.3,49.6,6.7,70.4"/>
					<line class="st48" x1="117.2" y1="381.7" x2="117.2" y2="381.7"/>
				</g>
			</g>
			<g>
				<g>
					<line class="st48" x1="103.5" y1="318.8" x2="103.5" y2="318.8"/>
					<path class="st50" d="M104,319.6c2.7,4,5.4,7,8.1,8.9"/>
					<line class="st48" x1="112.5" y1="328.8" x2="112.5" y2="328.8"/>
					<path class="st51" d="M113.2,328.1c2.5-2.8,4.2-6.3,5.2-9.8"/>
					<line class="st48" x1="118.5" y1="317.8" x2="118.5" y2="317.8"/>
				</g>
			</g>
			<g>
				<g>
					<line class="st48" x1="102.5" y1="330.8" x2="102.5" y2="330.8"/>
					<path class="st52" d="M103.1,331.6c2.1,2.6,5.6,5.2,10,7"/>
					<line class="st48" x1="113.5" y1="338.8" x2="113.5" y2="338.8"/>
					<path class="st53" d="M114.3,338.3c2.7-1.9,5.5-4.7,7-9"/>
					<line class="st48" x1="121.5" y1="328.8" x2="121.5" y2="328.8"/>
				</g>
			</g>
			<g>
				<g>
					<line class="st48" x1="103.5" y1="342.8" x2="103.5" y2="342.8"/>
					<path class="st54" d="M104,343.7c2.9,4.3,7.3,7.1,11,8.9"/>
					<line class="st48" x1="115.5" y1="352.8" x2="115.5" y2="352.8"/>
					<path class="st55" d="M116.3,352.2c2.6-2.1,5.1-5.6,6.1-9.9"/>
					<line class="st48" x1="122.5" y1="341.8" x2="122.5" y2="341.8"/>
				</g>
			</g>
		</g>
		<g class="st32">
			<path class="st56" d="M68.5,333.8c13,6.1,32.3,20.1,40,36c2.4,4.9,3.4,8.6,3,14.4"/>
			<path class="st56" d="M79.5,331.8c2,3,3,6,3,10c-7-2-14-1-18,5"/>
			<path class="st56" d="M90.5,337.8c1,3,3,7,2.2,12.6c-10.2-2.6-17.2-2.6-21.2,6.4"/>
			<path class="st56" d="M99.5,346.8c1,3,1,8,0,10.5c-11-4.5-18.4,5-19,8.5"/>
			<path class="st56" d="M106.5,357.8c0.6,3.1-0.9,7.1-0.9,7.1c-4.1-1.1-8.1-0.1-9.4,5.8"/>
		</g>
		<linearGradient id="SVGID_28_" gradientUnits="userSpaceOnUse" x1="129.0622" y1="324.2336" x2="133.2654" y2="291.9254">
			<stop  offset="0" style="stop-color:#805C8E"/>
			<stop  offset="1" style="stop-color:#5594FF"/>
		</linearGradient>
		<path class="st57" d="M126.7,306.3c1.5-6.9,5.5-14,9-9.9c2.6,3.1,0.7,7.9-0.7,10.7c-0.8,1.6-5.7,9.3-7.6,9.3
			C125.1,316.4,125.6,311.3,126.7,306.3z"/>
		
			<linearGradient id="SVGID_29_" gradientUnits="userSpaceOnUse" x1="174.7049" y1="476.9336" x2="173.7353" y2="467.8353" gradientTransform="matrix(0.9795 0.2013 -0.2013 0.9795 1.0434 -176.7597)">
			<stop  offset="0" style="stop-color:#805C8E"/>
			<stop  offset="1" style="stop-color:#5594FF"/>
		</linearGradient>
		<path class="st58" d="M67.9,318.9c-0.3-0.8-0.2-1.7,0.3-2.4c0.8-1.2,2.4-1.6,3.8-1.7c6.9-0.5,13.2,4.4,13.6,9.2
			c-3.6-2.8-8.8-3.7-11.8-3.3C71.5,321,68.7,320.7,67.9,318.9z"/>
		
			<linearGradient id="SVGID_30_" gradientUnits="userSpaceOnUse" x1="216.7594" y1="487.3864" x2="210.8782" y2="480.1279" gradientTransform="matrix(0.9706 0.2409 -0.2409 0.9706 1.9923 -216.4916)">
			<stop  offset="0" style="stop-color:#805C8E"/>
			<stop  offset="1" style="stop-color:#5594FF"/>
		</linearGradient>
		<path class="st59" d="M94.2,306.8c-1.6-0.4-4.1-2.6-3.8-4.2c0.3-1.5,2.5-1.5,3.3-0.5C94.8,303.5,94.5,305.6,94.2,306.8"/>
		
			<linearGradient id="SVGID_31_" gradientUnits="userSpaceOnUse" x1="1671.8749" y1="360.429" x2="1672.116" y2="363.3786" gradientTransform="matrix(-0.7071 0.7071 -0.7071 -0.7071 1493.988 -572.1727)">
			<stop  offset="0" style="stop-color:#805C8E"/>
			<stop  offset="1" style="stop-color:#5594FF"/>
		</linearGradient>
		<path class="st60" d="M56.1,355.3c-0.6,0.1-1.6,0-1.9-0.8c-0.3-0.9,0.7-1.7,1.6-1.7c0.9,0,1.7,0.8,2,1.6
			C57.7,354.4,56.7,355.2,56.1,355.3z"/>
		<g class="st32">
			<path class="st56" d="M150.3,311c-15.2,16.1-27.8,41.1-28.8,72"/>
			<path class="st56" d="M139.5,346.9c-8.2,1-14.4,10.3-14.4,10.3s-0.9-5.4-0.8-8.5"/>
			<path class="st56" d="M146.6,330.8c-7.2,1-13.9,6.2-13.9,6.2s-1-4-1.1-6.3"/>
			<path class="st56" d="M155.7,316.5c-6.6,1.4-13.3,4.4-13.3,4.4c-0.7-1.5-1-3.1-0.9-4.7"/>
		</g>
		
			<linearGradient id="SVGID_32_" gradientUnits="userSpaceOnUse" x1="1842.7524" y1="-54.7277" x2="1835.5543" y2="-67.7491" gradientTransform="matrix(-0.8752 0.4838 0.4838 0.8752 1777.917 -458.691)">
			<stop  offset="0" style="stop-color:#805C8E"/>
			<stop  offset="1" style="stop-color:#5594FF"/>
		</linearGradient>
		<path class="st61" d="M146.5,370.7c0.1-0.8-0.3-1.6-1-2.2c-1.2-0.9-2.8-0.8-4.1-0.5c-6.8,1.6-11.3,8.1-10.3,12.8
			c2.6-3.7,7.3-6.2,10.3-6.6C143.6,373.8,146.3,372.7,146.5,370.7z"/>
	</g>
</g>
<polyline class="st2" points="658.4,176.4 660.1,155.5 645.6,141.4 "/>
<path class="st36" d="M261.7,291.8c-0.9,3.7-1.5,7.4-1.8,11.2"/>
<path class="st36" d="M245.9,292.6c2.8,3.4,5.2,7,7.3,10.8"/>
<path class="st36" d="M239,306.3c4-0.1,7.9,0.7,11.6,2.3"/>
<g>
	<linearGradient id="SVGID_33_" gradientUnits="userSpaceOnUse" x1="325.4051" y1="407.4725" x2="312.7826" y2="391.4222">
		<stop  offset="0" style="stop-color:#FFF064"/>
		<stop  offset="0.9971" style="stop-color:#EBD612"/>
	</linearGradient>
	<rect x="307" y="387" class="st62" width="22" height="22"/>
	<linearGradient id="SVGID_34_" gradientUnits="userSpaceOnUse" x1="332.3098" y1="391.4089" x2="305.5533" y2="389.2505">
		<stop  offset="0" style="stop-color:#FFF064"/>
		<stop  offset="0.9971" style="stop-color:#EBD612"/>
	</linearGradient>
	<rect x="307" y="387" class="st63" width="22" height="6.5"/>
	<g class="st64">
		<line class="st36" x1="311.2" y1="398.6" x2="326" y2="398.3"/>
		<line class="st36" x1="311.3" y1="402.2" x2="322" y2="401.9"/>
	</g>
</g>
<g>
	
		<linearGradient id="SVGID_35_" gradientUnits="userSpaceOnUse" x1="654.1923" y1="1051.8981" x2="641.5698" y2="1035.8478" gradientTransform="matrix(0.7071 0.7071 -0.7071 0.7071 376.0329 -742.1348)">
		<stop  offset="0" style="stop-color:#FFF064"/>
		<stop  offset="0.9971" style="stop-color:#EBD612"/>
	</linearGradient>
	<polygon class="st65" points="96.2,467.8 80.7,452.3 96.2,436.7 111.8,452.3 	"/>
	
		<linearGradient id="SVGID_36_" gradientUnits="userSpaceOnUse" x1="661.097" y1="1035.8346" x2="634.3405" y2="1033.6761" gradientTransform="matrix(0.7071 0.7071 -0.7071 0.7071 376.0329 -742.1348)">
		<stop  offset="0" style="stop-color:#FFF064"/>
		<stop  offset="0.9971" style="stop-color:#EBD612"/>
	</linearGradient>
	<polygon class="st66" points="107.2,456.9 91.6,441.3 96.2,436.7 111.8,452.3 	"/>
	<g class="st64">
		<line class="st36" x1="91" y1="448" x2="101.7" y2="458.1"/>
		<line class="st36" x1="88.6" y1="450.5" x2="96.4" y2="457.9"/>
	</g>
</g>
<g>
	<linearGradient id="SVGID_37_" gradientUnits="userSpaceOnUse" x1="354.657" y1="402.99" x2="342.0344" y2="386.9397">
		<stop  offset="0" style="stop-color:#FFF064"/>
		<stop  offset="0.9971" style="stop-color:#EBD612"/>
	</linearGradient>
	<rect x="336.2" y="382.5" class="st67" width="22" height="22"/>
	<linearGradient id="SVGID_38_" gradientUnits="userSpaceOnUse" x1="361.5617" y1="386.9264" x2="334.8051" y2="384.768">
		<stop  offset="0" style="stop-color:#FFF064"/>
		<stop  offset="0.9971" style="stop-color:#EBD612"/>
	</linearGradient>
	<rect x="336.2" y="382.5" class="st68" width="22" height="6.5"/>
	<g class="st64">
		<line class="st36" x1="340.4" y1="394.1" x2="355.2" y2="393.8"/>
		<line class="st36" x1="340.5" y1="397.7" x2="351.3" y2="397.4"/>
	</g>
</g>
<g>
	<linearGradient id="SVGID_39_" gradientUnits="userSpaceOnUse" x1="386.7341" y1="407.9549" x2="374.1115" y2="391.9046">
		<stop  offset="0" style="stop-color:#FFF064"/>
		<stop  offset="0.9971" style="stop-color:#EBD612"/>
	</linearGradient>
	<rect x="368.3" y="387.5" class="st69" width="22" height="22"/>
	<linearGradient id="SVGID_40_" gradientUnits="userSpaceOnUse" x1="393.6388" y1="391.8913" x2="366.8822" y2="389.7328">
		<stop  offset="0" style="stop-color:#FFF064"/>
		<stop  offset="0.9971" style="stop-color:#EBD612"/>
	</linearGradient>
	<rect x="368.3" y="387.5" class="st70" width="22" height="6.5"/>
	<g class="st64">
		<line class="st36" x1="372.5" y1="399.1" x2="387.3" y2="398.7"/>
		<line class="st36" x1="372.6" y1="402.7" x2="383.4" y2="402.4"/>
	</g>
</g>
<g>
	<linearGradient id="SVGID_41_" gradientUnits="userSpaceOnUse" x1="413.9668" y1="413.2865" x2="401.3443" y2="397.2362">
		<stop  offset="0" style="stop-color:#FFF064"/>
		<stop  offset="0.9971" style="stop-color:#EBD612"/>
	</linearGradient>
	<rect x="395.5" y="392.8" class="st71" width="22" height="22"/>
	<linearGradient id="SVGID_42_" gradientUnits="userSpaceOnUse" x1="420.8716" y1="397.223" x2="394.115" y2="395.0645">
		<stop  offset="0" style="stop-color:#FFF064"/>
		<stop  offset="0.9971" style="stop-color:#EBD612"/>
	</linearGradient>
	<rect x="395.5" y="392.8" class="st72" width="22" height="6.5"/>
	<g class="st64">
		<line class="st36" x1="399.8" y1="404.4" x2="414.5" y2="404.1"/>
		<line class="st36" x1="399.8" y1="408" x2="410.6" y2="407.7"/>
	</g>
</g>
<g>
	<linearGradient id="SVGID_43_" gradientUnits="userSpaceOnUse" x1="442.6983" y1="401.2167" x2="430.0757" y2="385.1664">
		<stop  offset="0" style="stop-color:#FFF064"/>
		<stop  offset="0.9971" style="stop-color:#EBD612"/>
	</linearGradient>
	<rect x="424.3" y="380.7" class="st73" width="22" height="22"/>
	<linearGradient id="SVGID_44_" gradientUnits="userSpaceOnUse" x1="449.603" y1="385.1531" x2="422.8464" y2="382.9947">
		<stop  offset="0" style="stop-color:#FFF064"/>
		<stop  offset="0.9971" style="stop-color:#EBD612"/>
	</linearGradient>
	<rect x="424.3" y="380.7" class="st74" width="22" height="6.5"/>
	<g class="st64">
		<line class="st36" x1="428.5" y1="392.4" x2="443.3" y2="392"/>
		<line class="st36" x1="428.6" y1="395.9" x2="439.3" y2="395.7"/>
	</g>
</g>
<g>
	<linearGradient id="SVGID_45_" gradientUnits="userSpaceOnUse" x1="475.2452" y1="406.1696" x2="462.6227" y2="390.1193">
		<stop  offset="0" style="stop-color:#FFF064"/>
		<stop  offset="0.9971" style="stop-color:#EBD612"/>
	</linearGradient>
	<rect x="456.8" y="385.7" class="st75" width="22" height="22"/>
	<linearGradient id="SVGID_46_" gradientUnits="userSpaceOnUse" x1="482.15" y1="390.106" x2="455.3934" y2="387.9475">
		<stop  offset="0" style="stop-color:#FFF064"/>
		<stop  offset="0.9971" style="stop-color:#EBD612"/>
	</linearGradient>
	<rect x="456.8" y="385.7" class="st76" width="22" height="6.5"/>
	<g class="st64">
		<line class="st36" x1="461" y1="397.3" x2="475.8" y2="397"/>
		<line class="st36" x1="461.1" y1="400.9" x2="471.9" y2="400.6"/>
	</g>
</g>
<g>
	<linearGradient id="SVGID_47_" gradientUnits="userSpaceOnUse" x1="519.4717" y1="402.99" x2="506.8491" y2="386.9397">
		<stop  offset="0" style="stop-color:#FFF064"/>
		<stop  offset="0.9971" style="stop-color:#EBD612"/>
	</linearGradient>
	<rect x="501" y="382.5" class="st77" width="22" height="22"/>
	<linearGradient id="SVGID_48_" gradientUnits="userSpaceOnUse" x1="526.3764" y1="386.9264" x2="499.6198" y2="384.768">
		<stop  offset="0" style="stop-color:#FFF064"/>
		<stop  offset="0.9971" style="stop-color:#EBD612"/>
	</linearGradient>
	<rect x="501" y="382.5" class="st78" width="22" height="6.5"/>
	<g class="st64">
		<line class="st36" x1="505.3" y1="394.1" x2="520" y2="393.8"/>
		<line class="st36" x1="505.3" y1="397.7" x2="516.1" y2="397.4"/>
	</g>
</g>
</svg>
